<?xml version="1.0" encoding="utf-8"?>
<svg version="1.1" id="Laag_1" x="0px" y="0px" viewBox="129.133 250.64 167.887 89.98" style="enable-background:new 0 0 425.2 425.2;" xmlns="http://www.w3.org/2000/svg">
  <style type="text/css">
	.st0{fill:#1D1A38;}
</style>
  <path class="st0" d="M147,287.2c-2.4,0-4.7-0.4-6.8-1.3c-2.1-0.9-3.9-2.1-5.4-3.7c-1.5-1.6-2.7-3.5-3.6-5.7 c-0.9-2.2-1.3-4.5-1.3-7.1c0-2.5,0.4-4.9,1.3-7c0.9-2.2,2.1-4,3.6-5.7c1.6-1.6,3.4-2.8,5.5-3.7c2.1-0.9,4.4-1.3,6.9-1.3 c2.4,0,4.7,0.4,6.8,1.3c2.1,0.9,3.9,2.1,5.4,3.7c1.5,1.6,2.7,3.5,3.6,5.6c0.9,2.1,1.3,4.5,1.3,7.1c0,2.6-0.4,4.9-1.3,7.1 c-0.9,2.2-2.1,4-3.6,5.7c-1.6,1.6-3.4,2.8-5.5,3.7S149.5,287.2,147,287.2z M147.1,280.5c1.8,0,3.5-0.5,4.9-1.4c1.5-1,2.6-2.3,3.4-4 s1.3-3.6,1.3-5.7c0-2.1-0.4-4-1.3-5.7c-0.8-1.6-2-3-3.4-3.9c-1.5-1-3.1-1.4-4.9-1.4c-1.8,0-3.5,0.5-4.9,1.4c-1.5,1-2.6,2.3-3.4,3.9 c-0.8,1.6-1.3,3.5-1.3,5.7c0,2.1,0.4,4,1.3,5.7s2,3,3.4,4C143.6,280.1,145.3,280.5,147.1,280.5z"/>
  <path class="st0" d="M169.6,299v-46.3h6.7l0.3,5.4c1.2-2,2.8-3.5,4.8-4.7c2-1.1,4.2-1.7,6.6-1.7c2.2,0,4.3,0.4,6.2,1.3 c1.9,0.9,3.6,2.1,5,3.7c1.4,1.6,2.5,3.4,3.3,5.6c0.8,2.1,1.2,4.5,1.2,6.9c0,2.5-0.4,4.9-1.2,7.1c-0.8,2.2-1.9,4.1-3.4,5.7 c-1.5,1.6-3.2,2.9-5.1,3.8c-1.9,0.9-4.1,1.3-6.3,1.3c-2.2,0-4.3-0.5-6.1-1.4c-1.8-0.9-3.4-2.3-4.6-4V299H169.6z M186.5,280.5 c1.8,0,3.5-0.5,4.9-1.4c1.5-1,2.6-2.3,3.4-4s1.3-3.6,1.3-5.7c0-2.1-0.4-4-1.3-5.7c-0.8-1.6-2-3-3.4-3.9c-1.5-1-3.1-1.4-4.9-1.4 c-1.8,0-3.5,0.5-4.9,1.4c-1.5,1-2.6,2.3-3.4,3.9c-0.8,1.6-1.3,3.5-1.3,5.7c0,2.1,0.4,4,1.3,5.7s2,3,3.4,4 C183,280.1,184.6,280.5,186.5,280.5z"/>
  <path class="st0" d="M227,287.2c-2.5,0-4.8-0.4-6.8-1.3c-2.1-0.9-3.9-2.1-5.4-3.7c-1.5-1.6-2.7-3.5-3.6-5.6 c-0.8-2.2-1.3-4.5-1.3-7.2c0-2.5,0.4-4.9,1.3-7c0.8-2.1,2-4,3.5-5.6c1.5-1.6,3.2-2.9,5.2-3.8c2-0.9,4.2-1.3,6.6-1.3 c2.4,0,4.5,0.4,6.5,1.3c1.9,0.8,3.6,2,5.1,3.6c1.4,1.5,2.5,3.4,3.3,5.5c0.8,2.1,1.2,4.5,1.2,7v2.2h-24.9c0.2,2,0.7,3.7,1.6,5.1 c0.8,1.4,1.9,2.5,3.2,3.3c1.3,0.8,2.9,1.2,4.6,1.2c3.5,0,6.3-1.6,8.2-4.7l6.5,2.5c-0.8,1.8-1.9,3.3-3.4,4.6c-1.5,1.3-3.2,2.3-5.1,3 C231.2,286.9,229.2,287.2,227,287.2z M226.4,257.7c-1.5,0-2.8,0.3-4,1c-1.2,0.7-2.2,1.6-3,2.9c-0.8,1.2-1.4,2.7-1.7,4.4h17 c-0.3-1.7-0.7-3.1-1.5-4.4c-0.7-1.2-1.7-2.2-2.9-2.9C229.2,258,227.9,257.7,226.4,257.7z"/>
  <path class="st0" d="M250.8,286.2v-33.6h6.7l0.3,4.6c1-1.7,2.4-3.1,4.1-4.1c1.8-1,3.8-1.5,6.1-1.5c2.5,0,4.7,0.6,6.6,1.8 c1.9,1.2,3.3,2.9,4.3,5.1c1,2.2,1.5,4.8,1.5,7.7v20h-7.4v-19.1c0-2.7-0.6-4.9-1.8-6.4c-1.2-1.5-2.9-2.3-5.1-2.3 c-1.5,0-2.9,0.4-4.1,1.1c-1.2,0.7-2.2,1.7-2.9,3c-0.7,1.2-1,2.7-1,4.3v19.5H250.8z"/>
  <path class="st0" d="M142.9,339.9c-2.2,0-4.2-0.4-6.1-1.1c-1.9-0.7-3.4-1.8-4.8-3.1c-1.3-1.3-2.2-2.9-2.8-4.8l6.7-1.7 c0.6,1.5,1.5,2.6,2.7,3.4c1.2,0.8,2.7,1.2,4.3,1.2c1.7,0,3-0.4,4.1-1.2c1.1-0.8,1.6-1.8,1.6-3.1c0-1.1-0.4-2-1.3-2.7 c-0.9-0.7-2.2-1.3-4.2-1.6l-2.1-0.4c-3.6-0.6-6.3-1.8-8.1-3.5c-1.8-1.7-2.7-3.8-2.7-6.4c0-2.1,0.5-3.9,1.6-5.5 c1.1-1.6,2.5-2.8,4.4-3.7c1.9-0.9,4-1.3,6.5-1.3c2.1,0,4,0.4,5.8,1.1c1.8,0.7,3.2,1.8,4.4,3.1c1.2,1.3,2.1,2.9,2.6,4.7l-6.6,1.6 c-0.5-1.4-1.3-2.5-2.4-3.2c-1.1-0.8-2.4-1.2-3.8-1.2c-1.5,0-2.7,0.4-3.7,1.1c-1,0.8-1.5,1.7-1.5,2.9c0,1,0.4,1.8,1.3,2.4 c0.9,0.6,2.4,1.2,4.5,1.5l2.1,0.4c3.4,0.6,6.1,1.8,7.9,3.5c1.8,1.8,2.8,3.9,2.8,6.6c0,1.6-0.3,3.1-1,4.4c-0.6,1.3-1.6,2.5-2.7,3.5 c-1.2,1-2.6,1.8-4.2,2.3C146.6,339.6,144.8,339.9,142.9,339.9z"/>
  <path class="st0" d="M177.8,339.9c-2.4,0-4.7-0.4-6.8-1.3c-2.1-0.9-3.9-2.1-5.4-3.7c-1.5-1.6-2.7-3.5-3.6-5.7 c-0.9-2.2-1.3-4.5-1.3-7.1c0-2.5,0.4-4.9,1.3-7c0.9-2.2,2.1-4,3.6-5.7c1.6-1.6,3.4-2.8,5.5-3.7c2.1-0.9,4.4-1.3,6.9-1.3 c2.4,0,4.7,0.4,6.8,1.3c2.1,0.9,3.9,2.1,5.4,3.7c1.5,1.6,2.7,3.5,3.6,5.6c0.9,2.1,1.3,4.5,1.3,7.1c0,2.6-0.4,4.9-1.3,7.1 c-0.9,2.2-2.1,4-3.6,5.7c-1.6,1.6-3.4,2.8-5.5,3.7C182.5,339.4,180.2,339.9,177.8,339.9z M177.9,333.2c1.8,0,3.5-0.5,4.9-1.4 c1.5-1,2.6-2.3,3.4-4s1.3-3.6,1.3-5.7c0-2.1-0.4-4-1.3-5.7c-0.8-1.6-2-3-3.4-3.9c-1.5-1-3.1-1.4-4.9-1.4c-1.8,0-3.5,0.5-4.9,1.4 c-1.5,1-2.6,2.3-3.4,3.9c-0.8,1.6-1.3,3.5-1.3,5.7c0,2.1,0.4,4,1.3,5.7s2,3,3.4,4C174.4,332.7,176,333.2,177.9,333.2z"/>
  <path class="st0" d="M217.1,339.9c-2.4,0-4.6-0.4-6.6-1.3c-2-0.9-3.8-2.1-5.3-3.7c-1.5-1.6-2.7-3.4-3.5-5.6c-0.8-2.1-1.3-4.5-1.3-7 c0-2.5,0.4-4.9,1.3-7.1c0.9-2.2,2-4.1,3.5-5.7c1.5-1.6,3.3-2.9,5.3-3.8c2-0.9,4.2-1.4,6.6-1.4c2.3,0,4.4,0.4,6.4,1.3 c1.9,0.8,3.6,2,5,3.5c1.4,1.5,2.4,3.3,3,5.4l-7,1.7c-0.7-1.6-1.7-2.9-3.1-3.8c-1.3-0.9-2.8-1.3-4.4-1.3c-1.7,0-3.3,0.5-4.6,1.5 c-1.4,1-2.5,2.3-3.2,4c-0.8,1.7-1.2,3.6-1.2,5.7c0,2.1,0.4,4,1.2,5.6c0.8,1.6,1.8,2.9,3.2,3.9c1.3,0.9,2.9,1.4,4.7,1.4 c1.7,0,3.3-0.4,4.7-1.3c1.4-0.9,2.5-2.1,3.1-3.8l6.9,1.6c-0.6,2.1-1.6,3.8-3.1,5.4c-1.5,1.5-3.2,2.7-5.2,3.5 C221.5,339.4,219.4,339.9,217.1,339.9z"/>
  <path class="st0" d="M237.9,338.9v-33.6h7.4v33.6H237.9z"/>
  <path class="st0" d="M263.6,339.9c-1.7,0-3.3-0.3-4.7-0.8c-1.4-0.5-2.7-1.2-3.8-2.2c-1.1-0.9-1.9-2.1-2.5-3.3 c-0.6-1.3-0.9-2.7-0.9-4.2c0-2.1,0.6-4,1.7-5.6c1.1-1.6,2.7-2.9,4.8-3.8c2.1-0.9,4.5-1.3,7.2-1.3c1.5,0,2.9,0.1,4.3,0.4 c1.4,0.3,2.7,0.7,3.9,1.2v-2.1c0-1.5-0.3-2.8-0.8-4c-0.6-1.1-1.3-2-2.4-2.7c-1-0.6-2.3-1-3.7-1c-1.5,0-2.9,0.4-4.2,1.2 c-1.2,0.8-2.2,1.9-2.8,3.4l-6.8-1.5c0.5-1.9,1.4-3.5,2.8-4.9c1.3-1.4,3-2.4,4.9-3.2c1.9-0.8,4-1.2,6.2-1.2c2.1,0,4,0.3,5.7,1 c1.7,0.7,3.2,1.6,4.5,2.9c1.2,1.2,2.2,2.7,2.9,4.4c0.7,1.7,1,3.6,1,5.7v20.5h-6.7l-0.3-4.4c-0.9,1.6-2.2,2.9-4,3.9 C268.1,339.4,266,339.9,263.6,339.9z M259.1,329c0,0.9,0.3,1.8,0.8,2.5c0.5,0.7,1.2,1.3,2.2,1.8c0.9,0.4,2,0.6,3.2,0.6 c1.6,0,3-0.3,4.2-1c1.2-0.7,2.2-1.6,3-2.8c0.7-1.2,1.1-2.5,1.1-4v-0.8c-1.1-0.5-2.3-0.8-3.4-1.1c-1.2-0.3-2.4-0.4-3.6-0.4 c-2.2,0-4,0.5-5.4,1.4C259.8,326.2,259.1,327.4,259.1,329z"/>
  <path class="st0" d="M288.9,338.9v-47.8h7.4v47.8H288.9z"/>
  <g>
    <path class="st0" d="M291.7,260.7c-0.7,0-1.3-0.1-1.8-0.3c-0.6-0.2-1-0.5-1.5-0.9s-0.7-0.9-1-1.4c-0.2-0.5-0.3-1.1-0.3-1.8 s0.1-1.2,0.3-1.8c0.2-0.5,0.5-1,1-1.4s0.9-0.7,1.5-1c0.6-0.2,1.2-0.3,1.8-0.3s1.3,0.1,1.8,0.3c0.6,0.2,1,0.5,1.5,1 c0.4,0.4,0.7,0.9,1,1.4s0.3,1.1,0.3,1.8s-0.1,1.2-0.3,1.8s-0.5,1-1,1.4c-0.4,0.4-0.9,0.7-1.5,0.9 C293,260.6,292.4,260.7,291.7,260.7z M291.7,259.6c0.5,0,0.9-0.1,1.3-0.3c0.4-0.2,0.8-0.4,1.1-0.7c0.3-0.3,0.6-0.7,0.7-1.1 c0.2-0.4,0.3-0.9,0.3-1.4c0-0.5-0.1-0.9-0.3-1.3c-0.2-0.4-0.4-0.8-0.7-1.1c-0.3-0.3-0.7-0.6-1.1-0.7c-0.4-0.2-0.9-0.3-1.3-0.3 c-0.5,0-0.9,0.1-1.4,0.3c-0.4,0.2-0.8,0.4-1.1,0.7c-0.3,0.3-0.6,0.7-0.7,1.1c-0.2,0.4-0.3,0.9-0.3,1.3c0,0.5,0.1,0.9,0.3,1.4 c0.2,0.4,0.4,0.8,0.7,1.1c0.3,0.3,0.7,0.6,1.1,0.7C290.8,259.6,291.2,259.6,291.7,259.6z M290,258.5v-4.7h1.7 c0.6,0,1.1,0.1,1.4,0.4s0.5,0.7,0.5,1.1c0,0.3-0.1,0.5-0.2,0.8s-0.3,0.4-0.6,0.6l1,1.8h-1.3l-0.7-1.5c-0.1,0-0.2,0-0.3,0 c-0.1,0-0.3,0-0.5,0v1.5H290z M291.2,254.8v1.2c0.1,0,0.3,0,0.5,0c0.3,0,0.5-0.1,0.6-0.2c0.1-0.1,0.2-0.3,0.2-0.5 c0-0.2-0.1-0.3-0.2-0.5c-0.1-0.1-0.3-0.2-0.6-0.2H291.2z"/>
  </g>
</svg>