<?xml version="1.0" encoding="UTF-8"?>
<svg width="16px" height="16px" viewBox="0 0 16 16" version="1.1" xmlns="http://www.w3.org/2000/svg" xmlns:xlink="http://www.w3.org/1999/xlink">
    <!-- Generator: Sketch 47.1 (45422) - http://www.bohemiancoding.com/sketch -->
    <title>os_logo_darker</title>
    <desc>Created with Sketch.</desc>
    <defs></defs>
    <g id="OS-community-v1" stroke="none" stroke-width="1" fill="none" fill-rule="evenodd">
        <g id="os_logo_darker" fill="#585858">
            <path d="M12.6346299,12.631497 C12.5323187,12.7337234 12.366728,12.7875836 12.1557056,12.7875836 L12.1555254,12.7875836 C11.6874182,12.7875836 10.904355,12.5052227 10.110655,11.7120003 C9.42855083,11.0304612 9.31857764,9.90308923 9.31190714,9.31161747 C9.94470369,9.31846258 11.0410102,9.43663084 11.7145509,10.1097035 C12.2050133,10.5999397 12.5592712,11.1518719 12.7120618,11.6643547 C12.8399733,12.0936153 12.8110377,12.4552354 12.6346299,12.631497 Z M9.26746715,8.38095238 C9.00317093,8.38095238 8.83217164,8.3982453 8.8140531,8.40004664 L8.4385217,8.4389557 L8.39967052,8.81381568 C8.39020561,8.9064949 8.17846215,11.0947693 9.45352016,12.3687708 C10.296708,13.21126 11.3102642,13.7142857 12.1647198,13.7142857 C12.6231818,13.7142857 13.0129557,13.5670257 13.291945,13.2882675 C14.1100734,12.4706369 13.7057868,10.7860187 12.3715956,9.45293302 C11.4381757,8.52019638 10.026192,8.38095238 9.26746715,8.38095238 L9.26746715,8.38095238 Z" id="Fill-1"></path>
            <path d="M3.36884087,3.36857477 C3.47097237,3.26635015 3.63668839,3.21240077 3.847526,3.21240077 C4.31522344,3.21240077 5.09760118,3.49484695 5.89060637,4.28787586 C6.57211349,4.96958351 6.68199042,6.09684641 6.68865508,6.68848831 C6.05641245,6.68173338 4.96106559,6.56329692 4.28829458,5.89041572 C3.79826151,5.40027792 3.44422365,4.84817488 3.29165683,4.33588091 C3.16367723,3.90626729 3.19258747,3.54483344 3.36884087,3.36857477 Z M3.6315548,6.54690495 C4.56424778,7.47962584 5.97544576,7.61904762 6.73350649,7.61904762 C6.98928556,7.61904762 7.15572208,7.60301592 7.18625345,7.59995368 L7.56127601,7.56113534 L7.60009319,7.1860115 C7.60991006,7.09351398 7.82173836,4.90572689 6.54734615,3.63129656 C5.70471623,2.78873149 4.69222738,2.28571429 3.83851969,2.28571429 C3.380459,2.28571429 2.99102636,2.43306185 2.71228121,2.71181534 C2.30564652,3.11855226 2.18451172,3.74558999 2.37139255,4.47755433 C2.55052797,5.17844598 2.99805128,5.91356261 3.6315548,6.54690495 L3.6315548,6.54690495 Z" id="Fill-2"></path>
            <path d="M6.68798212,9.31161747 C6.68131159,9.90308923 6.57133802,11.0304612 5.88923149,11.7120003 C5.09552882,12.5052227 4.31264323,12.7875836 3.84453443,12.7875836 L3.84435415,12.7875836 C3.63315082,12.7875836 3.46746933,12.7337234 3.365248,12.631497 C3.03758086,12.3041025 3.17676052,11.217531 4.28551041,10.1097035 C4.95887314,9.43663084 6.0551834,9.31846258 6.68798212,9.31161747 Z M7.60022187,8.81381568 L7.56119026,8.4389557 L7.18646886,8.40022678 C7.16789955,8.3982453 6.9965391,8.38095238 6.73242226,8.38095238 C5.97387508,8.38095238 4.56170631,8.52019638 3.62819299,9.45293302 C2.29408743,10.7860187 1.88997965,12.4706369 2.70811087,13.2882675 C2.98710119,13.5670257 3.37687635,13.7142857 3.83533992,13.7142857 C4.68979848,13.7142857 5.70335813,13.21126 6.5465489,12.3687708 C7.82161127,11.0944991 7.60986709,8.90613463 7.60022187,8.81381568 L7.60022187,8.81381568 Z" id="Fill-3"></path>
            <path d="M9.31121266,6.68848831 C9.31787734,6.09684641 9.42775457,4.96958351 10.1092636,4.28787586 C10.9022709,3.49484695 11.6846508,3.21240077 12.1523496,3.21240077 C12.3633679,3.21240077 12.5288142,3.26635015 12.631036,3.36857477 C12.8072899,3.54483344 12.8362002,3.90626729 12.7084004,4.33588091 C12.5557431,4.84817488 12.2017943,5.40027792 11.7117599,5.89041572 C11.0388069,6.56329692 9.94345703,6.68173338 9.31121266,6.68848831 Z M8.39977205,7.18592144 L8.43858933,7.56113534 L8.81361292,7.59977355 C8.84432451,7.60301592 9.01040123,7.61904762 9.26636114,7.61904762 C10.0244239,7.61904762 11.4356258,7.47962584 12.3682313,6.54690495 C13.0018266,5.91356261 13.4494412,5.17844598 13.6284871,4.47755433 C13.8155485,3.74558999 13.6944134,3.11855226 13.2877776,2.71181534 C13.0090317,2.43306185 12.619598,2.28571429 12.161536,2.28571429 C11.307826,2.28571429 10.2951542,2.78873149 9.45270211,3.63129656 C8.17848652,4.90563683 8.39013528,7.09351398 8.39977205,7.18592144 L8.39977205,7.18592144 Z" id="Fill-4"></path>
            <path d="M13.7456092,6.11672299 L13.637622,6.0952381 L13.5746144,6.18239544 C13.4517542,6.35218698 13.3140209,6.51893411 13.1653808,6.67793971 L12.952381,6.90601012 L13.2678695,6.94610945 C14.3963268,7.08954503 15.0705708,7.59448351 15.0705708,7.99991302 C15.0705708,8.40516855 14.3963268,8.91019402 13.2679596,9.0536296 L12.9525612,9.09398988 L13.1657413,9.32188632 C13.3137505,9.48045701 13.4513936,9.64720414 13.5746144,9.8174306 L13.637622,9.9047619 L13.7456092,9.88301606 C15.1150096,9.61058414 16,8.87139943 16,7.99991302 C16,7.12816565 15.1150096,6.38906793 13.7456092,6.11672299" id="Fill-5"></path>
            <path d="M2.36251775,9.9047619 L2.42561918,9.8174306 C2.54812611,9.64781302 2.6855971,9.48106589 2.83460663,9.32188632 L3.04761905,9.09398988 L2.73220201,9.0536296 C1.60376806,8.91019402 0.929484146,8.40516855 0.929484146,7.99991302 C0.929484146,7.59448351 1.60376806,7.08954503 2.73220201,6.94610945 L3.04761905,6.90601012 L2.83460663,6.67793971 C2.6855971,6.51876014 2.54812611,6.35201301 2.42561918,6.18239544 L2.36251775,6.0952381 L2.25452415,6.11672299 C0.885042706,6.38889396 0,7.12816565 0,7.99991302 C0,8.87139943 0.885042706,9.61058414 2.25452415,9.88301606 L2.36251775,9.9047619" id="Fill-6"></path>
            <path d="M9.32200706,13.1657476 L9.09391583,12.952381 L9.05389982,13.2679689 C8.91045114,14.3963695 8.40537954,15.0706335 7.99991301,15.0706335 C7.59453347,15.0706335 7.08963585,14.3963695 6.94618717,13.2679689 L6.90617116,12.9527415 L6.67816692,13.1657476 C6.51836387,13.3146626 6.35160151,13.4524901 6.18249039,13.574723 L6.0952381,13.6377324 L6.11672495,13.7455425 C6.38909477,15.1150736 7.12826,16 7.99991301,16 C8.87182699,16 9.61099222,15.1150736 9.88336204,13.7455425 L9.9047619,13.6377324 L9.8175966,13.574723 C9.64787654,13.4518591 9.48111418,13.3143021 9.32200706,13.1657476" id="Fill-7"></path>
            <path d="M6.67816692,2.83459403 L6.90617116,3.04725845 L6.94618717,2.7320932 C7.08963585,1.60386294 7.59453347,0.929448985 7.99991301,0.929448985 C8.40537954,0.929448985 8.91045114,1.60386294 9.05389982,2.7320932 L9.09391583,3.04761905 L9.32200706,2.83441373 C9.48041825,2.68638703 9.64718061,2.54872761 9.8175966,2.42549223 L9.9047619,2.36247722 L9.88336204,2.25447723 C9.61107921,0.884914766 8.87182699,0 7.99991301,0 C7.12826,0 6.38892079,0.884914766 6.11672495,2.25447723 L6.0952381,2.36247722 L6.18249039,2.42549223 C6.35142753,2.54773596 6.51818988,2.68539538 6.67816692,2.83459403" id="Fill-8"></path>
        </g>
    </g>
</svg>