<?xml version="1.0" encoding="utf-8"?>
<!-- Generator: Adobe Illustrator 16.0.4, SVG Export Plug-In . SVG Version: 6.00 Build 0)  -->
<!DOCTYPE svg PUBLIC "-//W3C//DTD SVG 1.1//EN" "http://www.w3.org/Graphics/SVG/1.1/DTD/svg11.dtd">
<svg version="1.1" id="Layer_1" xmlns="http://www.w3.org/2000/svg" xmlns:xlink="http://www.w3.org/1999/xlink" x="0px" y="0px"
	 width="16px" height="16px" viewBox="0 0 16 16" enable-background="new 0 0 16 16" xml:space="preserve">
<path fill="#787878" d="M11.638,7.496c1.961,0,3.552,1.59,3.552,3.55V16H8.086v-4.953C8.086,9.086,9.675,7.496,11.638,7.496z"/>
<g>
	<path fill="#787878" d="M7.624,10.865c0-1.889,1.388-3.448,3.194-3.743V5.349c0-2.517-2.116-4.557-4.727-4.557
		c-2.611,0-4.728,2.041-4.728,4.557V16h6.261V10.865z"/>
</g>
<path fill="#FFFFFF" d="M4.076,6.412c0,0,0.168,0.269,0.549,0.573C4.99,7.295,5.597,7.578,6.246,7.581
	c0.322-0.01,0.642-0.067,0.932-0.167c0.29-0.101,0.546-0.229,0.757-0.358C8.155,6.944,8.307,6.8,8.429,6.723
	C8.546,6.638,8.614,6.59,8.614,6.59l0.062,0.076c0,0-0.066,0.051-0.183,0.141C8.373,6.889,8.222,7.04,8,7.162
	C7.787,7.3,7.527,7.441,7.228,7.555C6.93,7.668,6.593,7.74,6.249,7.761C6.077,7.746,5.902,7.765,5.736,7.722
	C5.567,7.697,5.405,7.652,5.253,7.595C4.95,7.482,4.684,7.33,4.479,7.171C4.065,6.862,3.862,6.562,3.862,6.562L4.076,6.412z"/>
<ellipse fill="#FFFFFF" cx="4.966" cy="4.368" rx="0.94" ry="1.134"/>
<ellipse fill="#FFFFFF" cx="7.693" cy="4.221" rx="0.959" ry="1.134"/>
<ellipse fill="#787878" cx="5.023" cy="4.221" rx="0.487" ry="0.55"/>
<ellipse fill="#787878" cx="7.694" cy="4.074" rx="0.487" ry="0.551"/>
<path fill="#FFFFFF" d="M3.928,3.063c0,0,0.028-0.081,0.097-0.189c0.069-0.108,0.187-0.235,0.324-0.347
	c0.15-0.101,0.333-0.142,0.468-0.142c0.136,0.021,0.218,0.047,0.218,0.047C5.06,2.44,5.073,2.467,5.065,2.491
	C5.06,2.509,5.044,2.521,5.027,2.523L5.011,2.525c0,0-0.081,0.011-0.188,0.007C4.712,2.542,4.579,2.6,4.454,2.68
	C4.202,2.848,4.011,3.111,4.011,3.111c-0.016,0.021-0.046,0.026-0.067,0.01C3.926,3.109,3.92,3.083,3.928,3.063z"/>
<path fill="#FFFFFF" d="M8.667,3.111c0,0-0.195-0.258-0.442-0.433C8.103,2.591,7.964,2.54,7.854,2.53
	c-0.109,0-0.188-0.005-0.188-0.005L7.649,2.524C7.624,2.522,7.604,2.5,7.606,2.474c0.001-0.021,0.016-0.037,0.035-0.042
	c0,0,0.083-0.021,0.218-0.044c0.134,0,0.313,0.048,0.467,0.142c0.144,0.104,0.256,0.239,0.326,0.344
	C8.726,2.98,8.75,3.063,8.75,3.063l0.001,0.006c0.007,0.024-0.007,0.052-0.033,0.059C8.699,3.133,8.678,3.126,8.667,3.111z"/>
<ellipse fill="#FFFFFF" cx="12.244" cy="10.258" rx="0.842" ry="0.944"/>
<ellipse fill="#FFFFFF" cx="10.024" cy="10.135" rx="0.801" ry="0.944"/>
<ellipse fill="#787878" cx="12.252" cy="10.135" rx="0.407" ry="0.46"/>
<ellipse fill="#787878" cx="10.023" cy="10.011" rx="0.407" ry="0.459"/>
<path fill="#FFFFFF" d="M13.17,9.054c0,0-0.22-0.164-0.47-0.214c-0.121-0.037-0.244-0.04-0.336-0.019
	c-0.088,0.035-0.147,0.058-0.147,0.058l-0.012,0.005c-0.02,0.008-0.043-0.002-0.05-0.021c-0.008-0.019,0-0.04,0.018-0.049
	c0,0,0.063-0.036,0.159-0.09c0.104-0.041,0.257-0.057,0.404-0.03c0.284,0.094,0.485,0.299,0.485,0.299
	c0.017,0.015,0.017,0.041,0.001,0.057C13.21,9.063,13.186,9.064,13.17,9.054z"/>
<path fill="#FFFFFF" d="M9.494,8.832c0,0,0.239-0.165,0.533-0.186c0.147-0.001,0.294,0.04,0.388,0.096
	c0.086,0.068,0.144,0.113,0.144,0.113c0.018,0.014,0.02,0.039,0.007,0.056c-0.013,0.016-0.036,0.019-0.053,0.008L10.5,8.911
	c0,0-0.053-0.035-0.131-0.089c-0.085-0.042-0.208-0.066-0.336-0.056C9.776,8.784,9.533,8.901,9.533,8.901
	c-0.02,0.01-0.045,0.002-0.054-0.019C9.47,8.865,9.477,8.842,9.494,8.832z"/>
<ellipse fill="#FFFFFF" cx="10.95" cy="13.282" rx="0.407" ry="0.598"/>
<path fill="#FFFFFF" d="M4.284,6.218c0,0-0.006,0.013-0.019,0.034c-0.012,0.021-0.031,0.05-0.057,0.084
	C4.195,6.353,4.181,6.37,4.165,6.388C4.148,6.406,4.13,6.424,4.11,6.442C4.091,6.459,4.07,6.478,4.048,6.495
	C4.025,6.512,4,6.527,3.976,6.542C3.95,6.557,3.924,6.569,3.897,6.581C3.871,6.591,3.843,6.6,3.816,6.605
	c-0.027,0.007-0.054,0.01-0.08,0.011c-0.025,0.002-0.05,0.001-0.072-0.002c-0.022-0.001-0.042-0.008-0.06-0.011
	C3.588,6.598,3.573,6.593,3.561,6.589c-0.023-0.01-0.037-0.017-0.037-0.017C3.509,6.564,3.502,6.546,3.509,6.53
	c0.006-0.012,0.02-0.02,0.033-0.017l0.003,0c0,0,0.013,0.001,0.034,0.006c0.011,0,0.024,0.002,0.039,0.003
	c0.015,0,0.032,0.002,0.05,0c0.01,0,0.019,0,0.028-0.001c0.01-0.001,0.02-0.001,0.03-0.003c0.01-0.001,0.021-0.003,0.031-0.005
	C3.768,6.51,3.779,6.507,3.79,6.504c0.021-0.005,0.044-0.015,0.065-0.024C3.877,6.471,3.9,6.459,3.921,6.447
	c0.022-0.012,0.042-0.025,0.063-0.04c0.02-0.014,0.04-0.029,0.058-0.043c0.02-0.016,0.037-0.03,0.053-0.045S4.127,6.29,4.141,6.276
	c0.028-0.027,0.05-0.051,0.066-0.067C4.222,6.192,4.23,6.183,4.23,6.183l0.001-0.001C4.244,6.169,4.263,6.168,4.276,6.18
	C4.287,6.19,4.29,6.206,4.284,6.218z"/>
</svg>
