<?xml version="1.0" encoding="utf-8"?>
<!-- Generator: Adobe Illustrator 18.1.1, SVG Export Plug-In . SVG Version: 6.00 Build 0)  -->
<svg version="1.1" id="Laag_1" xmlns="http://www.w3.org/2000/svg" xmlns:xlink="http://www.w3.org/1999/xlink" x="0px" y="0px"
	 viewBox="-147 239 24 24" enable-background="new -147 239 24 24" xml:space="preserve">
<path fill="none" d="M-147,239h24v24h-24V239z"/>
<path fill="#FFFFFF" d="M-142.4,241c-2.5,0-4.6,2.1-4.6,4.7c0,2.6,2.1,4.7,4.6,4.7c4.6,0,1.5,9.1-4.6,9.1v2.2
	C-136,261.8-131.7,241-142.4,241z M-129.1,241c-2.5,0-4.6,2.1-4.6,4.7c0,2.6,2.1,4.7,4.6,4.7c4.6,0,1.5,9.1-4.6,9.1v2.2
	C-122.8,261.8-118.5,241-129.1,241L-129.1,241z"/>
</svg>
