<svg xmlns="http://www.w3.org/2000/svg" xmlns:xlink="http://www.w3.org/1999/xlink" width="30" height="24" viewBox="0 0 30 24"><defs><path id="a" d="M869.107 891h-10.905v-7.934c0-3.237.278-5.777.834-7.619.557-1.842 1.591-3.5 3.105-4.973 1.514-1.474 3.422-2.632 5.724-3.474l2.135 4.579c-2.173.737-3.732 1.763-4.677 3.079-.944 1.316-1.442 3.066-1.494 5.25h5.278zm-18.201 0H840v-7.934c0-3.21.278-5.744.834-7.599.557-1.855 1.585-3.52 3.086-4.993 1.5-1.474 3.415-2.632 5.744-3.474l2.134 4.579c-2.173.737-3.732 1.763-4.676 3.079-.945 1.316-1.443 3.066-1.495 5.25h5.279z"/></defs><use fill="#4a4a4a" xlink:href="#a" transform="translate(-840 -867)"/></svg>