<svg width="24" height="24" viewBox="0 0 24 24" xmlns="http://www.w3.org/2000/svg" xmlns:xlink="http://www.w3.org/1999/xlink"><title>liked copy</title><defs><path d="M1 21h4V9H1v12zm22-11c0-1.1-.9-2-2-2h-6.31l.95-4.57.03-.32c0-.41-.17-.79-.44-1.06L14.17 1 7.59 7.59C7.22 7.95 7 8.45 7 9v10c0 1.1.9 2 2 2h9c.83 0 1.54-.5 1.84-1.22l3.02-7.05c.09-.23.14-.47.14-.73v-2z" id="a"/></defs><g fill-rule="nonzero" fill="none"><use fill="#000" fill-rule="evenodd" xlink:href="#a"/><path stroke="#000" d="M1.5 9.5V9l-.5.5h.5zm3 0H5L4.5 9v.5zm0 11v.5l.5-.5h-.5zm-3 0H1l.5.5v-.5zm0 0v-11h3v11h-3zM14.172 1.706L7.939 7.948C7.659 8.221 7.5 8.595 7.5 9v10c0 .824.676 1.5 1.5 1.5h9c.611 0 1.15-.363 1.38-.917l3.014-7.035c.071-.18.106-.36.106-.548v-2c0-.824-.676-1.5-1.5-1.5h-6.925l.125-.602.942-4.515.028-.273c0-.265-.108-.521-.292-.705l-.706-.7z"/></g></svg>