<?xml version="1.0" encoding="UTF-8"?>
<svg width="15px" height="15px" viewBox="0 0 15 15" version="1.1" xmlns="http://www.w3.org/2000/svg" xmlns:xlink="http://www.w3.org/1999/xlink">
    <title>login-24px</title>
    <g id="Social-login" stroke="none" stroke-width="1" fill="none" fill-rule="evenodd">
        <g id="Single-sign-on-apple" transform="translate(-373.000000, -155.000000)">
            <g id="login-24px" transform="translate(373.000000, 155.000000)">
                <rect id="Rectangle" x="0" y="0" width="15" height="15"></rect>
                <path d="M6.875,4.375 L6,5.25 L7.625,6.875 L1.25,6.875 L1.25,8.125 L7.625,8.125 L6,9.75 L6.875,10.625 L10,7.5 L6.875,4.375 Z M12.5,11.875 L7.5,11.875 L7.5,13.125 L12.5,13.125 C13.1875,13.125 13.75,12.5625 13.75,11.875 L13.75,3.125 C13.75,2.4375 13.1875,1.875 12.5,1.875 L7.5,1.875 L7.5,3.125 L12.5,3.125 L12.5,11.875 Z" id="Shape" fill="#4D4D4D" fill-rule="nonzero"></path>
            </g>
        </g>
    </g>
</svg>