<svg width="14" height="14" viewBox="0 0 14 14" fill="none">
<path d="M6.99967 0.333008C3.31967 0.333008 0.333008 3.31967 0.333008 6.99967C0.333008 10.6797 3.31967 13.6663 6.99967 13.6663C10.6797 13.6663 13.6663 10.6797 13.6663 6.99967C13.6663 3.31967 10.6797 0.333008 6.99967 0.333008ZM7.66634 11.6663H6.33301V10.333H7.66634V11.6663ZM9.04634 6.49967L8.44634 7.11301C7.96634 7.59967 7.66634 7.99967 7.66634 8.99967H6.33301V8.66634C6.33301 7.93301 6.63301 7.26634 7.11301 6.77967L7.93967 5.93967C8.18634 5.69967 8.33301 5.36634 8.33301 4.99967C8.33301 4.26634 7.73301 3.66634 6.99967 3.66634C6.26634 3.66634 5.66634 4.26634 5.66634 4.99967H4.33301C4.33301 3.52634 5.52634 2.33301 6.99967 2.33301C8.47301 2.33301 9.66634 3.52634 9.66634 4.99967C9.66634 5.58634 9.42634 6.11967 9.04634 6.49967Z" fill="#4D4D4D"/>
</svg>
