<?xml version="1.0" encoding="UTF-8"?>
<svg width="24px" height="24px" viewBox="0 0 24 24" version="1.1" xmlns="http://www.w3.org/2000/svg" xmlns:xlink="http://www.w3.org/1999/xlink">
    <!-- Generator: Sketch 63.1 (92452) - https://sketch.com -->
    <title>challenge</title>
    <desc>Created with Sketch.</desc>
    <g id="challenge" stroke="none" stroke-width="1" fill="none" fill-rule="evenodd">
        <g>
            <polygon id="Path" points="0 0 24 0 24 24 0 24"></polygon>
            <path d="M12.7083333,10.3333333 C12.025,8.39166667 10.175,7 8,7 C5.24166667,7 3,9.24166667 3,12 C3,14.7583333 5.24166667,17 8,17 C10.175,17 12.025,15.6083333 12.7083333,13.6666667 L16.3333333,13.6666667 L16.3333333,17 L19.6666667,17 L19.6666667,13.6666667 L21.3333333,13.6666667 L21.3333333,10.3333333 L12.7083333,10.3333333 Z M8,13.6666667 C7.08333333,13.6666667 6.33333333,12.9166667 6.33333333,12 C6.33333333,11.0833333 7.08333333,10.3333333 8,10.3333333 C8.91666667,10.3333333 9.66666667,11.0833333 9.66666667,12 C9.66666667,12.9166667 8.91666667,13.6666667 8,13.6666667 Z" id="Shape" fill="#4A4A4A" fill-rule="nonzero"></path>
        </g>
    </g>
</svg>