<svg width="17" height="16" viewBox="0 0 17 16" fill="none" xmlns="http://www.w3.org/2000/svg">
<g id="All: Icon" clip-path="url(#clip0_3448_7379)">
<g id="Union">
<path fill-rule="evenodd" clip-rule="evenodd" d="M12.5001 4.25C12.5001 5.553 11.9137 6.71904 10.9905 7.49864C11.2856 7.61021 11.5721 7.73928 11.8488 7.88459C12.0181 7.97351 12.1838 8.0685 12.3454 8.16926C12.5328 8.28614 12.5767 8.53643 12.4503 8.71762L12.0499 9.29175C11.9235 9.47294 11.6748 9.51617 11.4859 9.40162C11.3765 9.3353 11.265 9.27225 11.1514 9.2126C10.2852 8.7577 9.29885 8.5 8.25011 8.5C4.93273 8.5 2.219 11.0846 2.01271 14.3499C1.99878 14.5704 1.82103 14.75 1.60011 14.75H0.900113C0.679199 14.75 0.499042 14.5705 0.510263 14.3499C0.670026 11.2084 2.70039 8.56071 5.50956 7.49849C4.58641 6.71889 4.00011 5.55291 4.00011 4.25C4.00011 1.90279 5.9029 0 8.25011 0C10.5973 0 12.5001 1.90279 12.5001 4.25ZM8.25011 1.5C6.73133 1.5 5.50011 2.73122 5.50011 4.25C5.50011 5.76878 6.73133 7 8.25011 7C9.7689 7 11.0001 5.76878 11.0001 4.25C11.0001 2.73122 9.7689 1.5 8.25011 1.5Z"/>
<path d="M15.1955 9.14362C15.3804 8.95239 15.6835 8.95209 15.8688 9.14294L16.3639 9.65285C16.5453 9.83965 16.5455 10.1398 16.3645 10.3269L11.1153 15.7521C10.7962 16.0819 10.2767 16.0828 9.95652 15.754L6.38683 12.089C6.20482 11.9021 6.2045 11.6012 6.3861 11.414L6.92089 10.8625C7.10562 10.672 7.40787 10.6716 7.59311 10.8615L10.5759 13.9206L15.1955 9.14362Z"/>
</g>
</g>
<defs>
<clipPath id="clip0_3448_7379">
<rect width="16" height="16" fill="white" transform="translate(0.5)"/>
</clipPath>
</defs>
</svg>
