<svg width="24px" height="24px" viewBox="0 0 24 24" version="1.1" xmlns="http://www.w3.org/2000/svg" xmlns:xlink="http://www.w3.org/1999/xlink">
    <path d="M8,14.7453107 C6.1865159,13.4803646 5,11.3787451 5,9 C5,5.13400675 8.13400675,2 12,2 C15.8659932,2 19,5.13400675 19,9 C19,11.3787451 17.8134841,13.4803646 16,14.7453107 L16,17 C16,17.5522847 15.5522847,18 15,18 L9,18 C8.44771525,18 8,17.5522847 8,17 L8,14.7453107 Z M10,13.5839563 L10,16 L14,16 L14,13.5839563 C15.7659048,12.8123997 17,11.050319 17,9 C17,6.23857625 14.7614237,4 12,4 C9.23857625,4 7,6.23857625 7,9 C7,11.050319 8.23409522,12.8123997 10,13.5839563 Z" id="Combined-Shape" fill="#4A4A4A" fill-rule="nonzero"></path>
    <path d="M9,20 L15,20 L15,21 C15,21.5522847 14.5522847,22 14,22 L10,22 C9.44771525,22 9,21.5522847 9,21 L9,20 Z" id="Rectangle" fill="#4A4A4A" fill-rule="nonzero"></path>
</svg>