<svg width="13" height="12" viewBox="0 0 13 12" fill="none" xmlns="http://www.w3.org/2000/svg">
<g id="All: Icon" clip-path="url(#clip0_3448_7377)">
<g id="Union">
<path d="M4.25 5.25C5.28553 5.25 6.125 4.41053 6.125 3.375C6.125 2.33947 5.28553 1.5 4.25 1.5C3.21447 1.5 2.375 2.33947 2.375 3.375C2.375 4.41053 3.21447 5.25 4.25 5.25Z"/>
<path d="M8.75 5.25C9.78553 5.25 10.625 4.41053 10.625 3.375C10.625 2.33947 9.78553 1.5 8.75 1.5C7.71447 1.5 6.875 2.33947 6.875 3.375C6.875 4.41053 7.71447 5.25 8.75 5.25Z"/>
<path d="M8.68779 10.5C8.72871 10.2561 8.75001 10.0055 8.75001 9.75C8.75001 8.38702 8.14405 7.16556 7.18683 6.34034C7.66267 6.12183 8.19211 6 8.75001 6C10.8211 6 12.5 7.67893 12.5 9.75V9.975C12.5 10.2649 12.265 10.5 11.975 10.5H8.68779Z"/>
<path d="M0.5 9.75C0.5 7.67893 2.17893 6 4.25 6C6.32107 6 8 7.67893 8 9.75V9.975C8 10.2649 7.76495 10.5 7.475 10.5H1.025C0.735051 10.5 0.5 10.2649 0.5 9.975V9.75Z"/>
</g>
</g>
<defs>
<clipPath id="clip0_3448_7377">
<rect width="12" height="12" fill="white" transform="translate(0.5)"/>
</clipPath>
</defs>
</svg>
