<svg width="21" height="21" viewBox="0 0 21 21" fill="none" xmlns="http://www.w3.org/2000/svg">
<path d="M1.75 10.9375C1.75 8.2775 3.9025 6.125 6.5625 6.125H15.75C17.6838 6.125 19.25 7.69125 19.25 9.625C19.25 11.5588 17.6838 13.125 15.75 13.125H8.3125C7.105 13.125 6.125 12.145 6.125 10.9375C6.125 9.73 7.105 8.75 8.3125 8.75H14.875V10.5H8.23375C7.7525 10.5 7.7525 11.375 8.23375 11.375H15.75C16.7125 11.375 17.5 10.5875 17.5 9.625C17.5 8.6625 16.7125 7.875 15.75 7.875H6.5625C4.87375 7.875 3.5 9.24875 3.5 10.9375C3.5 12.6262 4.87375 14 6.5625 14H14.875V15.75H6.5625C3.9025 15.75 1.75 13.5975 1.75 10.9375Z" fill="#4D4D4D"/>
</svg>
