<svg width="16" height="16" viewBox="0 0 16 16" xmlns="http://www.w3.org/2000/svg">
<g id="All: Icon">
<path id="Union" d="M11.6771 7.25L9.64295 5.22256C9.45235 5.03275 9.45235 4.72492 9.64295 4.53511L10.0374 4.14228C10.2279 3.95257 10.5367 3.95257 10.7272 4.14228L13.5729 6.97853C14.1424 7.54568 14.1424 8.45432 13.5729 9.02147L10.7272 11.8577C10.5367 12.0474 10.2279 12.0474 10.0374 11.8577L9.64295 11.4649C9.45235 11.2751 9.45235 10.9673 9.64295 10.7774L11.6771 8.75H2.5C2.22386 8.75 2 8.52614 2 8.25V7.75C2 7.47386 2.22386 7.25 2.5 7.25H11.6771Z"/>
</g>
</svg>
