<svg width="13" height="15" viewBox="0 0 13 15" fill="none" xmlns="http://www.w3.org/2000/svg">
<path d="M5.83301 5.75H4.08301V11H5.83301V5.75Z" fill="#A94442"/>
<path d="M7 5.75H8.75V11H7V5.75Z" fill="#A94442"/>
<path fill-rule="evenodd" clip-rule="evenodd" d="M12.8333 2.25H9.91668V1.95833C9.91668 1.57156 9.76303 1.20063 9.48954 0.927136C9.21605 0.653645 8.84512 0.5 8.45834 0.5H4.375C3.98823 0.5 3.6173 0.653645 3.34381 0.927136C3.07032 1.20063 2.91667 1.57156 2.91667 1.95833V2.25H0V4H1.16667V12.75C1.16667 13.2141 1.35104 13.6592 1.67923 13.9874C2.00742 14.3156 2.45254 14.5 2.91667 14.5H9.91668C10.3808 14.5 10.8259 14.3156 11.1541 13.9874C11.4823 13.6592 11.6667 13.2141 11.6667 12.75V4H12.8333V2.25ZM9.91668 12.75H2.91667V4H9.91668V12.75Z" fill="#A94442"/>
</svg>
