<svg xmlns="http://www.w3.org/2000/svg" width="14" height="11" viewBox="0 0 14 11">
  <path transform="translate(-1)" fill="#4C4C4C" fill-rule="nonzero" d="M4.25,0.541666667 L2.125,0.541666667 C1.73541667,0.541666667 1.41666667,0.860416667 1.41666667,1.25 L1.41666667,9.75 C1.41666667,10.1395833 1.73541667,10.4583333 2.125,10.4583333 L4.25,10.4583333 C4.63958333,10.4583333 4.95833333,10.1395833 4.95833333,9.75 L4.95833333,1.25 C4.95833333,0.860416667 4.63958333,0.541666667 4.25,0.541666667 Z M14.1666667,0.541666667 L12.0416667,0.541666667 C11.6520833,0.541666667 11.3333333,0.860416667 11.3333333,1.25 L11.3333333,9.75 C11.3333333,10.1395833 11.6520833,10.4583333 12.0416667,10.4583333 L14.1666667,10.4583333 C14.55625,10.4583333 14.875,10.1395833 14.875,9.75 L14.875,1.25 C14.875,0.860416667 14.55625,0.541666667 14.1666667,0.541666667 Z M9.20833333,0.541666667 L7.08333333,0.541666667 C6.69375,0.541666667 6.375,0.860416667 6.375,1.25 L6.375,9.75 C6.375,10.1395833 6.69375,10.4583333 7.08333333,10.4583333 L9.20833333,10.4583333 C9.59791667,10.4583333 9.91666667,10.1395833 9.91666667,9.75 L9.91666667,1.25 C9.91666667,0.860416667 9.59791667,0.541666667 9.20833333,0.541666667 Z"/>
</svg>
