<svg width="14" height="19" viewBox="0 0 14 19" xmlns="http://www.w3.org/2000/svg">
<path d="M12.1667 6.58333H11.3333V4.91667C11.3333 2.61667 9.46667 0.75 7.16667 0.75C4.86667 0.75 3 2.61667 3 4.91667V6.58333H2.16667C1.25 6.58333 0.5 7.33333 0.5 8.25V16.5833C0.5 17.5 1.25 18.25 2.16667 18.25H12.1667C13.0833 18.25 13.8333 17.5 13.8333 16.5833V8.25C13.8333 7.33333 13.0833 6.58333 12.1667 6.58333ZM7.16667 14.0833C6.25 14.0833 5.5 13.3333 5.5 12.4167C5.5 11.5 6.25 10.75 7.16667 10.75C8.08333 10.75 8.83333 11.5 8.83333 12.4167C8.83333 13.3333 8.08333 14.0833 7.16667 14.0833ZM9.75 6.58333H4.58333V4.91667C4.58333 3.49167 5.74167 2.33333 7.16667 2.33333C8.59167 2.33333 9.75 3.49167 9.75 4.91667V6.58333Z"/>
</svg>
