<svg width="14" height="15" viewBox="0 0 14 15" fill="none" xmlns="http://www.w3.org/2000/svg">
<path d="M7.80069 11.4352C7.55293 11.5377 7.28735 11.5902 7.01921 11.5898C6.75107 11.5903 6.48547 11.5378 6.23769 11.4352C5.98992 11.3327 5.76486 11.1822 5.57546 10.9924L3.28937 8.70634L4.52662 7.46909L6.13896 9.08026L6.12496 0.5H7.87496L7.88896 9.09193L9.5118 7.46909L10.7491 8.70634L8.46297 10.9924C8.27353 11.1822 8.04846 11.3326 7.80069 11.4352Z" fill="#36A9E1"/>
<path d="M12.25 12.75V9.83331H14V12.75C14 13.2141 13.8156 13.6592 13.4874 13.9874C13.1592 14.3156 12.7141 14.5 12.25 14.5H1.75C1.28587 14.5 0.840752 14.3156 0.512563 13.9874C0.184374 13.6592 0 13.2141 0 12.75V9.83331H1.75V12.75H12.25Z" fill="#36A9E1"/>
</svg>
