<svg width="24" height="24" viewBox="0 0 24 24" fill="none" xmlns="http://www.w3.org/2000/svg">
<path d="M10.2041 20C8.97729 20.0003 7.77795 19.6473 6.75774 18.9856C5.73754 18.3239 4.9423 17.3833 4.4726 16.2826C4.0029 15.1819 3.87984 13.9707 4.11899 12.8021C4.35814 11.6335 4.94875 10.56 5.81612 9.71745L10.4668 5.1987C11.3142 4.41609 12.4429 3.98605 13.6122 4.00035C14.7815 4.01464 15.8987 4.47214 16.7255 5.27523C17.5523 6.07831 18.0233 7.1634 18.0379 8.29899C18.0524 9.43458 17.6095 10.5307 16.8036 11.3536L12.1543 15.8697C11.634 16.3577 10.9373 16.6277 10.214 16.6216C9.49076 16.6155 8.79891 16.3338 8.28748 15.8371C7.77605 15.3404 7.48595 14.6684 7.47966 13.966C7.47338 13.2636 7.75141 12.5869 8.25388 12.0816L12.6605 7.80266L14.1224 9.22318L9.71653 13.5035C9.65067 13.5653 9.59813 13.6392 9.56199 13.7209C9.52585 13.8026 9.50682 13.8905 9.50603 13.9794C9.50523 14.0683 9.52268 14.1565 9.55735 14.2388C9.59203 14.3211 9.64323 14.3959 9.70798 14.4588C9.77273 14.5217 9.84973 14.5714 9.93448 14.6051C10.0192 14.6388 10.11 14.6557 10.2016 14.6549C10.2932 14.6542 10.3837 14.6357 10.4678 14.6006C10.5519 14.5655 10.628 14.5145 10.6916 14.4505L15.3451 9.93578C15.5756 9.71955 15.7595 9.46089 15.886 9.1749C16.0125 8.88891 16.0791 8.58132 16.0819 8.27007C16.0846 7.95883 16.0236 7.65016 15.9022 7.36208C15.7808 7.07399 15.6016 6.81227 15.375 6.59218C15.1484 6.37209 14.8789 6.19803 14.5823 6.08017C14.2857 5.9623 13.9678 5.90299 13.6473 5.9057C13.3269 5.9084 13.0102 5.97307 12.7157 6.09592C12.4212 6.21877 12.1549 6.39735 11.9322 6.62123L7.27671 11.1373C6.523 11.8952 6.10595 12.9103 6.11538 13.9639C6.12481 15.0175 6.55996 16.0254 7.32711 16.7704C8.09426 17.5155 9.13203 17.9381 10.2169 17.9473C11.3018 17.9564 12.347 17.5514 13.1273 16.8194L17.5332 12.5397L19 13.9603L14.5934 18.2399C14.0172 18.7995 13.3328 19.2431 12.5795 19.5452C11.8263 19.8472 11.019 20.0018 10.2041 20Z" fill="#777777"/>
</svg>
