<?xml version="1.0" encoding="UTF-8"?>
<svg width="24px" height="24px" viewBox="0 0 24 24" version="1.1" xmlns="http://www.w3.org/2000/svg" xmlns:xlink="http://www.w3.org/1999/xlink">
    <path d="M22.9735297,24 L17.1239873,18.1504576 L4.34350535,18.1504576 C2.50130352,18.1504576 1,16.6491541 1,14.8069522 L1,3.34350535 C1,1.50130352 2.50130352,0 4.34350535,0 L19.6281012,0 C21.4705689,0 22.9618097,1.50144491 22.9620537,3.34305344 L22.9735297,24 Z M20.0961922,3.34430142 C20.096192,3.08003955 19.8834912,2.86586173 19.6281012,2.86586173 L4.34350535,2.86586173 C4.08407524,2.86586173 3.86586173,3.08407524 3.86586173,3.34350535 L3.86586173,14.8069522 C3.86586173,15.0663824 4.08407524,15.2845959 4.34350535,15.2845959 L18.3110661,15.2845959 L20.1038217,17.0773514 L20.0961922,3.34430142 Z" id="a"></path>
</svg>