<?xml version="1.0" encoding="UTF-8"?>
<svg width="24px" height="24px" viewBox="0 0 24 24" version="1.1" xmlns="http://www.w3.org/2000/svg" xmlns:xlink="http://www.w3.org/1999/xlink">
    <!-- Generator: Sketch 63.1 (92452) - https://sketch.com -->
    <title>icon_in_progress</title>
    <desc>Created with Sketch.</desc>
    <g id="icon_in_progress" stroke="none" stroke-width="1" fill="none" fill-rule="evenodd">
        <g id="Group">
            <rect id="Rectangle-3" fill="#FF9300" x="0" y="0" width="24" height="24" rx="5"></rect>
            <g id="baseline-access_time-24px" transform="translate(2.000000, 2.000000)">
                <path d="M9.99166667,1.66666667 C5.39166667,1.66666667 1.66666667,5.4 1.66666667,10 C1.66666667,14.6 5.39166667,18.3333333 9.99166667,18.3333333 C14.6,18.3333333 18.3333333,14.6 18.3333333,10 C18.3333333,5.4 14.6,1.66666667 9.99166667,1.66666667 Z M10,16.6666667 C6.31666667,16.6666667 3.33333333,13.6833333 3.33333333,10 C3.33333333,6.31666667 6.31666667,3.33333333 10,3.33333333 C13.6833333,3.33333333 16.6666667,6.31666667 16.6666667,10 C16.6666667,13.6833333 13.6833333,16.6666667 10,16.6666667 Z" id="Shape" fill="#FFFFFF" fill-rule="nonzero"></path>
                <polygon id="Shape" points="0 0 20 0 20 20 0 20"></polygon>
                <polygon id="Shape" fill="#FFFFFF" fill-rule="nonzero" points="10.4166667 5.83333333 9.16666667 5.83333333 9.16666667 10.8333333 13.5416667 13.4583333 14.1666667 12.4333333 10.4166667 10.2083333"></polygon>
            </g>
        </g>
    </g>
</svg>