<?xml version="1.0" encoding="UTF-8"?>
<svg width="13px" height="15px" viewBox="0 0 13 15" version="1.1" xmlns="http://www.w3.org/2000/svg" xmlns:xlink="http://www.w3.org/1999/xlink">
    <title>Apple_logo_grey</title>
    <g id="Social-login" stroke="none" stroke-width="1" fill="none" fill-rule="evenodd">
        <g id="Desktop-HD" transform="translate(-273.000000, -154.000000)" fill="#F5F5F7" fill-rule="nonzero">
            <g id="Apple_logo_grey" transform="translate(273.000000, 154.000000)">
                <g id="g186" transform="translate(6.300000, 9.300000) scale(-1, 1) rotate(-180.000000) translate(-6.300000, -9.300000) translate(0.000000, 3.600000)">
                    <path d="M10.4665345,7.02776081 C10.4492172,8.92151756 12.0443276,9.8306717 12.1164828,9.87499768 C11.2188724,11.1623373 9.82194828,11.3386981 9.32359655,11.3594464 C8.13544138,11.4773347 7.00404828,10.6738084 6.4017931,10.6738084 C5.79953793,10.6738084 4.86825517,11.3424705 3.88309655,11.3236084 C2.58622759,11.3047463 1.3923,10.5851565 0.724624138,9.44777068 C-0.621310345,7.15885254 0.381165517,3.76650044 1.69150345,1.90858171 C2.33320345,1.00037068 3.09708621,-0.0228992743 4.10148621,0.0148249637 C5.06932759,0.0525492017 5.43491379,0.627843832 6.60286552,0.627843832 C7.77081724,0.627843832 8.09984483,0.0148249637 9.12252414,0.0327439768 C10.1625207,0.0525492017 10.8225,0.960760232 11.4593897,1.87180058 C12.1944103,2.92619303 12.4984241,3.94663367 12.5157414,4.00039071 C12.4926517,4.00982177 10.4877,4.76336343 10.4665345,7.02776081" id="path188"></path>
                </g>
                <path d="M8.81432879,2.4902781 C9.33122506,1.83084902 9.68017788,0.913925741 9.58406561,0 C8.83944512,0.0314821828 7.93818311,0.522836081 7.40353616,1.18226517 C6.9249004,1.7650645 6.50503669,2.69865428 6.61881459,3.59397309 C7.44924907,3.66178404 8.29734747,3.14873787 8.81432879,2.4902781" id="path190"></path>
            </g>
        </g>
    </g>
</svg>