<svg width="16" height="18" viewBox="0 0 16 18" fill="none" xmlns="http://www.w3.org/2000/svg">
<path d="M11.75 3.69643V0.388125L15.1625 4.3125H12.375C12.2092 4.3125 12.0503 4.24759 11.9331 4.13206C11.8158 4.01652 11.75 3.85982 11.75 3.69643ZM12.375 5.54464C11.8777 5.54464 11.4008 5.34992 11.0492 5.00331C10.6975 4.65671 10.5 4.18661 10.5 3.69643V0H2.375C1.87772 0 1.40081 0.194722 1.04917 0.54133C0.697544 0.887937 0.5 1.35804 0.5 1.84821V16.1518C0.5 16.642 0.697544 17.1121 1.04917 17.4587C1.40081 17.8053 1.87772 18 2.375 18H13.625C14.1223 18 14.5992 17.8053 14.9508 17.4587C15.3025 17.1121 15.5 16.642 15.5 16.1518V5.54464H12.375Z" fill="#ADADAD"/>
</svg>
