<svg width="24" height="24" viewBox="0 0 24 24" fill="none" xmlns="http://www.w3.org/2000/svg">
<g clip-path="url(#clip0_1119_7109)">
<path d="M21 15C20.849 15 20.702 15.017 20.56 15.049L19.17 12.602C18.96 12.231 18.959 11.769 19.17 11.398L20.56 8.95098C20.702 8.98298 20.849 8.99998 21 8.99998C22.103 8.99998 23 8.10298 23 6.99998C23 5.89698 22.103 4.99998 21 4.99998C20.261 4.99998 19.615 5.40298 19.269 5.99998H16.131C15.693 5.99998 15.287 5.76398 15.071 5.38298L13.724 3.01198C13.899 2.71498 14 2.36898 14 2.00098C14 0.897976 13.103 0.000976562 12 0.000976562C10.897 0.000976562 10 0.897976 10 2.00098C10 2.36998 10.101 2.71498 10.276 3.01198L8.929 5.38298C8.713 5.76398 8.307 5.99998 7.869 5.99998H4.731C4.385 5.40298 3.739 4.99998 3 4.99998C1.897 4.99998 1 5.89698 1 6.99998C1 8.10298 1.897 8.99998 3 8.99998C3.151 8.99998 3.298 8.98298 3.44 8.95098L4.83 11.398C5.041 11.769 5.041 12.231 4.83 12.602L3.44 15.049C3.298 15.017 3.151 15 3 15C1.897 15 1 15.897 1 17C1 18.103 1.897 19 3 19C3.739 19 4.385 18.597 4.731 18H7.869C8.307 18 8.713 18.236 8.929 18.617L10.276 20.989C10.101 21.286 10 21.631 10 22C10 23.103 10.897 24 12 24C13.103 24 14 23.103 14 22C14 21.631 13.899 21.286 13.724 20.989L15.071 18.617C15.287 18.237 15.693 18.001 16.131 18.001H19.269C19.615 18.598 20.261 19.001 21 19.001C22.103 19.001 23 18.104 23 17.001C23 15.898 22.103 15.001 21 15.001V15ZM17.431 13.59L18.8 16H16.131C14.975 16 13.902 16.624 13.332 17.629L12 19.975L10.668 17.63C10.098 16.624 9.025 16 7.869 16H5.2L6.569 13.589C7.126 12.609 7.126 11.391 6.569 10.411L5.2 7.99998H7.869C9.025 7.99998 10.098 7.37498 10.668 6.36998L12 4.02498L13.332 6.36998C13.902 7.37498 14.975 7.99998 16.131 7.99998H18.8L17.431 10.411C16.874 11.391 16.874 12.609 17.431 13.59ZM12 8.99998C10.346 8.99998 9 10.346 9 12C9 13.654 10.346 15 12 15C13.654 15 15 13.654 15 12C15 10.346 13.654 8.99998 12 8.99998ZM12 13C11.449 13 11 12.551 11 12C11 11.449 11.449 11 12 11C12.551 11 13 11.449 13 12C13 12.551 12.551 13 12 13Z"/>
</g>
<defs>
<clipPath id="clip0_1119_7109">
<rect width="24" height="24" fill="white"/>
</clipPath>
</defs>
</svg>
