<svg width="20" height="20" viewBox="0 0 20 20" fill="none" xmlns="http://www.w3.org/2000/svg">
<path d="M9.1879 8.95844C9.1879 8.61326 8.91507 8.33344 8.57852 8.33344H8.17227C7.83572 8.33344 7.5629 8.61326 7.5629 8.95844V14.3751C7.5629 14.7203 7.83572 15.0001 8.17227 15.0001H8.57852C8.91507 15.0001 9.1879 14.7203 9.1879 14.3751V8.95844Z" fill="#343434"/>
<path d="M10.8121 8.95844C10.8121 8.61326 11.0849 8.33344 11.4215 8.33344H11.8277C12.1643 8.33344 12.4371 8.61326 12.4371 8.95844V14.3751C12.4371 14.7203 12.1643 15.0001 11.8277 15.0001H11.4215C11.0849 15.0001 10.8121 14.7203 10.8121 14.3751V8.95844Z" fill="#343434"/>
<path fill-rule="evenodd" clip-rule="evenodd" d="M18.125 3.95833C18.125 3.61316 17.8522 3.33333 17.5156 3.33333H14.0625V1.66667C14.0625 1.22464 13.8913 0.800716 13.5865 0.488155C13.2818 0.175595 12.8685 0 12.4375 0H7.5625C7.13152 0 6.7182 0.175595 6.41345 0.488155C6.1087 0.800716 5.9375 1.22464 5.9375 1.66667V3.33333H2.48437C2.14783 3.33333 1.875 3.61316 1.875 3.95833V4.375C1.875 4.72018 2.14783 5 2.48438 5H3.5V17.5C3.5 18.163 3.75681 18.7989 4.21393 19.2678C4.67105 19.7366 5.29103 20 5.9375 20H14.0625C14.709 20 15.329 19.7366 15.7861 19.2678C16.2432 18.7989 16.5 18.163 16.5 17.5V5H17.5156C17.8522 5 18.125 4.72018 18.125 4.375V3.95833ZM7.5625 1.66667H12.4375V3.33333H7.5625V1.66667ZM14.875 17.5C14.875 17.721 14.7894 17.933 14.637 18.0893C14.4847 18.2455 14.278 18.3333 14.0625 18.3333H5.9375C5.72201 18.3333 5.51535 18.2455 5.36298 18.0893C5.2106 17.933 5.125 17.721 5.125 17.5V5H14.875V17.5Z" fill="#343434"/>
</svg>
