<svg width="12" height="12" viewBox="0 0 12 12" fill="none" xmlns="http://www.w3.org/2000/svg">
<g id="people">
<g id="Vector">
<path d="M5.9998 6.00002C6.85073 6.00002 7.61029 5.05306 7.76931 4.33684C7.79865 4.33832 7.82894 4.33338 7.8598 4.3201C8.03883 4.24306 8.074 4.04764 8.11144 3.83965C8.11858 3.80001 8.12579 3.75992 8.1341 3.7201C8.21661 3.32478 8.09607 3 7.8341 3.00002C7.8166 3.00002 7.79969 3.00053 7.78335 3.0015C7.7211 1.80052 7.1998 1.31988 6.5998 1.56009C4.7998 0.575903 4.27851 1.80052 4.21626 3.0015C4.19992 3.00053 4.18301 3.00002 4.16551 3.00002C3.90354 3 3.783 3.32478 3.8655 3.7201C3.87382 3.75992 3.88103 3.80001 3.88817 3.83965C3.92561 4.04764 3.96078 4.24306 4.1398 4.3201C4.17067 4.33338 4.20096 4.33832 4.23029 4.33684C4.38932 5.05306 5.14887 6.00002 5.9998 6.00002Z" fill="white"/>
<path d="M7.14635 6.35531C7.18796 6.22086 7.31548 6.1186 7.4532 6.14763C9.05652 6.48556 10.1998 7.3665 10.1998 8.40004C10.1998 9.72553 8.3194 10.8 5.9998 10.8C3.68021 10.8 1.7998 9.72553 1.7998 8.40004C1.7998 7.3665 2.94309 6.48556 4.54641 6.14763C4.68413 6.1186 4.81165 6.22086 4.85326 6.35531C5.00471 6.84461 5.46075 7.20004 5.9998 7.20004C6.53886 7.20004 6.9949 6.8446 7.14635 6.35531Z" fill="white"/>
</g>
</g>
</svg>
