<svg width="12" height="12" viewBox="0 0 12 12" fill="none" xmlns="http://www.w3.org/2000/svg">
<g id="sign" clip-path="url(#clip0_5194_34380)">
<g id="Vector">
<path d="M3.59961 3.35998C3.59961 3.16115 3.76079 2.99998 3.95961 2.99998H5.03961C5.23843 2.99998 5.39961 3.16115 5.39961 3.35998V3.83998C5.39961 4.0388 5.23843 4.19998 5.03961 4.19998H3.95961C3.76079 4.19998 3.59961 4.0388 3.59961 3.83998V3.35998Z" fill="white"/>
<path d="M3.95961 5.39998C3.76079 5.39998 3.59961 5.56115 3.59961 5.75998V6.23997C3.59961 6.4388 3.76079 6.59998 3.95961 6.59998H5.03961C5.23843 6.59998 5.39961 6.4388 5.39961 6.23997V5.75998C5.39961 5.56115 5.23843 5.39998 5.03961 5.39998H3.95961Z" fill="white"/>
<path fill-rule="evenodd" clip-rule="evenodd" d="M7.79961 3.59998V0.959976C7.79961 0.761153 7.63843 0.599976 7.43961 0.599976H1.55961C1.36079 0.599976 1.19961 0.761153 1.19961 0.959976V10.2H0.959609C0.760787 10.2 0.599609 10.3612 0.599609 10.56V11.04C0.599609 11.2388 0.760787 11.4 0.95961 11.4H11.0396C11.2384 11.4 11.3996 11.2388 11.3996 11.04V10.56C11.3996 10.3612 11.2384 10.2 11.0396 10.2H10.7996V3.95998C10.7996 3.76115 10.6384 3.59998 10.4396 3.59998H7.79961ZM2.39961 1.79998V10.2H6.59961V1.79998H2.39961ZM7.79961 4.79998V10.2H9.59961V4.79998H7.79961Z" fill="white"/>
</g>
</g>
<defs>
<clipPath id="clip0_5194_34380">
<rect width="12" height="12" fill="white"/>
</clipPath>
</defs>
</svg>
