<svg width="18" height="18" viewBox="0 0 18 18" fill="none" xmlns="http://www.w3.org/2000/svg">
<path fill-rule="evenodd" clip-rule="evenodd" d="M9.00101 10.71V7.362H17.425C17.551 7.929 17.65 8.46 17.65 9.207C17.65 14.346 14.203 18 9.01001 18C4.04201 18 0.0100098 13.968 0.0100098 9C0.0100098 4.032 4.04201 0 9.01001 0C11.44 0 13.474 0.891 15.031 2.349L12.475 4.833C11.827 4.221 10.693 3.501 9.01001 3.501C6.03101 3.501 3.60101 5.976 3.60101 9.009C3.60101 12.042 6.03101 14.517 9.01001 14.517C12.457 14.517 13.726 12.132 13.96 10.719H9.00101V10.71Z" fill="black" fill-opacity="0.4"/>
</svg>
