<?xml version="1.0" encoding="UTF-8"?>
<svg width="24px" height="24px" viewBox="0 0 24 24" version="1.1" xmlns="http://www.w3.org/2000/svg" xmlns:xlink="http://www.w3.org/1999/xlink">
    <!-- Generator: Sketch 47.1 (45422) - http://www.bohemiancoding.com/sketch -->
    <title>icon-quote_top</title>
    <desc>Created with Sketch.</desc>
    <defs></defs>
    <g id="Icons" stroke="none" stroke-width="1" fill="none" fill-rule="evenodd">
        <g id="icon-quote_top" fill-rule="nonzero" fill="#000000">
            <path d="M23.2856,21.2 L14.5616,21.2 L14.5616,14.8528 C14.5616,12.2632 14.784,10.2312 15.2288,8.7576 C15.6744,7.284 16.5016,5.9576 17.7128,4.7792 C18.924,3.6 20.4504,2.6736 22.292,2 L24,5.6632 C22.2616,6.2528 21.0144,7.0736 20.2584,8.1264 C19.5032,9.1792 19.1048,10.5792 19.0632,12.3264 L23.2856,12.3264 L23.2856,21.2 Z M8.7248,21.2 L0,21.2 L0,14.8528 C0,12.2848 0.2224,10.2576 0.6672,8.7736 C1.1128,7.2896 1.9352,5.9576 3.136,4.7792 C4.336,3.6 5.868,2.6736 7.7312,2 L9.4384,5.6632 C7.7,6.2528 6.4528,7.0736 5.6976,8.1264 C4.9416,9.1792 4.5432,10.5792 4.5016,12.3264 L8.7248,12.3264 L8.7248,21.2 Z" id="a"></path>
        </g>
    </g>
</svg>