<?xml version="1.0" encoding="UTF-8"?>
<svg width="24px" height="24px" viewBox="0 0 24 24" version="1.1" xmlns="http://www.w3.org/2000/svg" xmlns:xlink="http://www.w3.org/1999/xlink">
    <!-- Generator: Sketch 47.1 (45422) - http://www.bohemiancoding.com/sketch -->
    <title>icon-like_transparent</title>
    <desc>Created with Sketch.</desc>
    <defs></defs>
    <g id="Icons" stroke="none" stroke-width="1" fill="none" fill-rule="evenodd">
        <g id="icon-like_transparent" fill-rule="nonzero" fill="#000000">
            <path d="M12.5483498,18.5981055 C17.6135731,14.1725148 19.2068417,12.5940963 20.2756562,10.6802905 C20.7876357,9.76354651 21.0309278,8.91316376 21.0309278,8.04659794 C21.0309278,5.76497886 19.1635666,3.96907216 16.7317113,3.96907216 C15.3565902,3.96907216 13.9949992,4.58465418 13.1115231,5.58257028 L12,6.838073 L10.8884769,5.58257028 C10.0047376,4.58435692 8.64401169,3.96907216 7.26828866,3.96907216 C4.83643344,3.96907216 2.96907216,5.76497886 2.96907216,8.04659794 C2.96907216,8.91684153 3.21453668,9.77077967 3.73124511,10.6917544 C4.80327962,12.6025355 6.40282167,14.1843824 11.454066,18.5894563 L12.0039502,19.0711406 L12.5483498,18.5981055 Z M16.7317113,1 C20.7779812,1 24,4.0987282 24,8.04659794 C24,9.44657947 23.6162279,10.7879841 22.867872,12.1279807 C21.5586897,14.472186 19.8819683,16.1332795 14.4988202,20.8366404 L11.9960525,23.011336 L11.0218103,22.1579252 L9.50015666,20.8249913 C4.13815938,16.1489221 2.45418934,14.4835812 1.14186634,12.1445129 C0.387106053,10.7992374 0,9.45254737 0,8.04659794 C0,4.0987282 3.22201876,1 7.26828866,1 C8.98058755,1 10.6585647,1.57963503 12.0000638,2.58969805 C13.3416542,1.57974406 15.0199812,1 16.7317113,1 Z" id="a"></path>
        </g>
    </g>
</svg>