<svg width="22px" height="16px" viewBox="0 0 22 16" xmlns="http://www.w3.org/2000/svg">
  <g stroke="none" stroke-width="1" fill="none" fill-rule="evenodd">
    <g transform="translate(-1.000000, -4.000000)" fill="#666">
      <g transform="translate(1.000000, 4.000000)">
        <g>
          <path d="M17.7941176,7.33333333 C19.4052941,7.33333333 20.6961765,5.99333333 20.6961765,4.33333333 C20.6961765,2.67333333 19.4052941,1.33333333 17.7941176,1.33333333 C16.1829412,1.33333333 14.8823529,2.67333333 14.8823529,4.33333333 C14.8823529,5.99333333 16.1829412,7.33333333 17.7941176,7.33333333 L17.7941176,7.33333333 Z M7.08630515,4.34000015 C7.08630515,2.67631118 5.7925541,1.33333333 4.17779716,1.33333333 C2.56304021,1.33333333 1.25956172,2.67631118 1.25956172,4.34000015 C1.25956172,6.00368913 2.56304021,7.34666697 4.17779716,7.34666697 C5.7925541,7.34666697 7.08630515,6.00368913 7.08630515,4.34000015 Z M11.0054012,6.67779633 C12.7985859,6.67779633 14.2352941,5.18642181 14.2352941,3.33889816 C14.2352941,1.49137451 12.7985859,0 11.0054012,0 C9.21221644,0 7.76470588,1.49137451 7.76470588,3.33889816 C7.76470588,5.18642181 9.21221644,6.67779633 11.0054012,6.67779633 L11.0054012,6.67779633 Z M5.17647059,12.2777778 L5.17647059,15.3333333 L16.8235294,15.3333333 L16.8235294,12.2777778 C16.8235294,9.43 12.9384034,8 11,8 C9.06159664,8 5.17647059,9.43 5.17647059,12.2777778 Z M14.8490608,8.01634899 C16.8205973,9.33333333 17.5512786,10.4932203 17.5512786,12.3079577 L17.5512786,15.3733926 L21.9353659,15.3733926 L21.9353659,12.3079577 C21.9353659,9.45097248 18.5230846,8.01634899 16.8205973,8.01634899 C16.6086998,8.01634899 15.1047992,7.97956377 14.8490608,8.01634899 Z M7.08630515,8.01634899 C5.11476864,9.33333333 4.38408739,10.4932203 4.38408739,12.3079577 L4.38408739,15.3733926 L-8.8817842e-16,15.3733926 L-8.8817842e-16,12.3079577 C-8.8817842e-16,9.45097248 3.41228135,8.01634899 5.11476862,8.01634899 C5.32666617,8.01634899 6.83056672,7.97956377 7.08630515,8.01634899 Z"></path>
        </g>
      </g>
    </g>
  </g>
</svg>
