<svg id="CONTENT" xmlns="http://www.w3.org/2000/svg" viewBox="0 0 52.2 48"><title>social-logo</title><path d="M164.3,79.7h0a1.6,1.6,0,0,0,1.2-.3l3.7-3.6a1.7,1.7,0,0,0,.5-1.2,1.7,1.7,0,0,0-.5-1.2,1.8,1.8,0,0,0-1.3-.5,1.7,1.7,0,0,0-1.2.5l-3.7,3.7a1.7,1.7,0,0,0-.5,1.2,1.4,1.4,0,0,0,.5,1.1A1.7,1.7,0,0,0,164.3,79.7Z" transform="translate(-155.2 -47.8)" style="fill:#2aaae3"/><path d="M188.4,66l5.7,5.7,0.2,0.2,4.9,4.9a1.8,1.8,0,0,0,2.5,0,1.8,1.8,0,0,0,.5-1.3,1.6,1.6,0,0,0-.5-1.2L187,59.5l-5,5a9.7,9.7,0,0,1-6.9,2.9,9.5,9.5,0,0,1-6.7-2.8L167,63.2l11.8-11.8A14.5,14.5,0,0,0,159,52a13.7,13.7,0,0,0-3.8,10.6,16.6,16.6,0,0,0,4.7,10.7l0.6,0.6,3.4-3.4a5.7,5.7,0,0,1,9.6,3.7,5.7,5.7,0,0,1,3.6,1.7,5.6,5.6,0,0,1,1.6,3.6,5.7,5.7,0,0,1,3.6,1.7,5.7,5.7,0,0,1,1.6,3.6,5.7,5.7,0,0,1,3.6,1.7l0.6,0.7,0.4,0.3a1.8,1.8,0,0,0,2.5,0,1.8,1.8,0,0,0,.5-1.3,1.6,1.6,0,0,0-.5-1.2l-0.2-.2L180.4,74a2,2,0,0,1,0-2.8,2,2,0,0,1,1.4-.6h0a2,2,0,0,1,1.4.6l10.9,10.9a1.8,1.8,0,0,0,2.5-2.5L185.7,68.8A2,2,0,0,1,188.4,66Z" transform="translate(-155.2 -47.8)" style="fill:#2aaae3"/><path d="M169.6,85.2a1.7,1.7,0,0,0,1.2-.5l3.7-3.7a1.7,1.7,0,0,0,.5-1.2,2.2,2.2,0,0,0-.5-1.4,2,2,0,0,0-1.3-.7h0a1.9,1.9,0,0,0-1.2.7l-3.7,3.8a1.8,1.8,0,0,0-.5,1.3,1.8,1.8,0,0,0,.5,1.3A1.9,1.9,0,0,0,169.6,85.2Z" transform="translate(-155.2 -47.8)" style="fill:#2aaae3"/><path d="M176.1,90l3.7-3.7a1.7,1.7,0,0,0,0-2.5,1.8,1.8,0,0,0-1.3-.5,1.6,1.6,0,0,0-1.2.5l-3.7,3.7A1.8,1.8,0,0,0,176.1,90Z" transform="translate(-155.2 -47.8)" style="fill:#2aaae3"/><path d="M180.1,95.8a1.8,1.8,0,0,0,1.2-.5l3.7-3.7a1.7,1.7,0,0,0,.5-1.2,1.7,1.7,0,0,0-.5-1.2,1.8,1.8,0,0,0-1.3-.5h0a1.6,1.6,0,0,0-1.2.5l-3.7,3.7a1.7,1.7,0,0,0,0,2.5A1.8,1.8,0,0,0,180.1,95.8Z" transform="translate(-155.2 -47.8)" style="fill:#2aaae3"/><path d="M188,55.1l0.4,0.3,16.2,16.2h0.1A14.5,14.5,0,0,0,203.2,53a13.7,13.7,0,0,0-10.6-3.8,16.5,16.5,0,0,0-10.8,4.7L172.8,63a5.6,5.6,0,0,0,2.3.5,5.8,5.8,0,0,0,4.2-1.8l6.3-6.3A2,2,0,0,1,188,55.1Z" transform="translate(-155.2 -47.8)" style="fill:#2aaae3"/></svg>
