<?xml version="1.0" encoding="UTF-8"?>
<svg width="46px" height="46px" viewBox="0 0 46 46" version="1.1" xmlns="http://www.w3.org/2000/svg" xmlns:xlink="http://www.w3.org/1999/xlink">
    <!-- Generator: Sketch 47.1 (45422) - http://www.bohemiancoding.com/sketch -->
    <title>Group 6</title>
    <desc>Created with Sketch.</desc>
    <defs></defs>
    <g id="Event-organiser" stroke="none" stroke-width="1" fill="none" fill-rule="evenodd">
        <g id="Group-6">
            <circle id="Oval-2" fill="#FFFFFF" cx="23" cy="23" r="22"></circle>
            <path d="M23,46 C10.2974508,46 0,35.7025492 0,23 C0,10.2974508 10.2974508,0 23,0 C35.7025492,0 46,10.2974508 46,23 C46,35.7025492 35.7025492,46 23,46 Z M23,44 C34.5979797,44 44,34.5979797 44,23 C44,11.4020203 34.5979797,2 23,2 C11.4020203,2 2,11.4020203 2,23 C2,34.5979797 11.4020203,44 23,44 Z" id="Oval" fill="#979797" fill-rule="nonzero"></path>
            <path d="M14.3,22.61 L15.47,22.61 L15.47,25.27 C15.1033315,25.5433347 14.6700025,25.7649991 14.17,25.935 C13.6699975,26.1050009 13.1800024,26.19 12.7,26.19 C12.0133299,26.19 11.3883361,26.0300016 10.825,25.71 C10.2616638,25.3899984 9.8166683,24.9550028 9.49,24.405 C9.1633317,23.8549972 9,23.24667 9,22.58 C9,21.91333 9.166665,21.308336 9.5,20.765 C9.833335,20.2216639 10.2883304,19.7916683 10.865,19.475 C11.4416696,19.1583318 12.0799965,19 12.78,19 C13.2800025,19 13.7733309,19.0899991 14.26,19.27 C14.7466691,19.4500009 15.1666649,19.6966651 15.52,20.01 L14.76,21 C14.493332,20.7466654 14.1850017,20.5500007 13.835,20.41 C13.4849982,20.2699993 13.1333351,20.2 12.78,20.2 C12.3399978,20.2 11.9350018,20.304999 11.565,20.515 C11.1949981,20.7250011 10.9033344,21.0133315 10.69,21.38 C10.4766656,21.7466685 10.37,22.1466645 10.37,22.58 C10.37,23.0200022 10.4783322,23.4233315 10.695,23.79 C10.9116677,24.1566685 11.2033315,24.4466656 11.57,24.66 C11.9366685,24.8733344 12.3433311,24.98 12.79,24.98 C13.0300012,24.98 13.2816654,24.941667 13.545,24.865 C13.8083347,24.788333 14.0599988,24.6800007 14.3,24.54 L14.3,22.61 Z M21.91,20.74 L21.91,26.09 L20.6,26.09 L20.6,25.1 C20.2399982,25.7933368 19.6200044,26.14 18.74,26.14 C18.139997,26.14 17.6666684,25.9566685 17.32,25.59 C16.9733316,25.2233315 16.8,24.7233365 16.8,24.09 L16.8,20.74 L18.11,20.74 L18.11,23.71 C18.11,24.0833352 18.2116656,24.3766656 18.415,24.59 C18.6183343,24.8033344 18.8999982,24.91 19.26,24.91 C19.6733354,24.9033333 19.9999988,24.7566681 20.24,24.47 C20.4800012,24.1833319 20.6,23.8200022 20.6,23.38 L20.6,20.74 L21.91,20.74 Z M25.76,20.7 C26.6133376,20.7 27.2549978,20.9433309 27.685,21.43 C28.1150022,21.9166691 28.33,22.5999956 28.33,23.48 C28.33,23.6533342 28.3266667,23.7833329 28.32,23.87 L24.37,23.87 C24.4566671,24.2500019 24.6349986,24.5483323 24.905,24.765 C25.1750014,24.9816678 25.5066647,25.09 25.9,25.09 C26.1733347,25.09 26.4349987,25.0383339 26.685,24.935 C26.9350013,24.8316662 27.1533324,24.6833343 27.34,24.49 L28.04,25.22 C27.773332,25.5133348 27.4483353,25.7399992 27.065,25.9 C26.6816647,26.0600008 26.256669,26.14 25.79,26.14 C25.2433306,26.14 24.7616688,26.0266678 24.345,25.8 C23.9283312,25.5733322 23.6066678,25.2550021 23.38,24.845 C23.1533322,24.434998 23.04,23.963336 23.04,23.43 C23.04,22.896664 23.1549988,22.4233354 23.385,22.01 C23.6150012,21.5966646 23.9366646,21.2750011 24.35,21.045 C24.7633354,20.8149989 25.2333307,20.7 25.76,20.7 Z M27.14,23 C27.1266666,22.6066647 26.9966679,22.2933345 26.75,22.06 C26.5033321,21.8266655 26.1766687,21.71 25.77,21.71 C25.3899981,21.71 25.071668,21.8249989 24.815,22.055 C24.558332,22.2850012 24.4000003,22.599998 24.34,23 L27.14,23 Z M32.62,22.19 C32.3599987,22.0366659 32.091668,21.9166671 31.815,21.83 C31.5383319,21.7433329 31.2833345,21.7 31.05,21.7 C30.8299989,21.7 30.6550007,21.738333 30.525,21.815 C30.3949993,21.8916671 30.33,22.0099992 30.33,22.17 C30.33,22.3366675 30.4116658,22.4649996 30.575,22.555 C30.7383342,22.6450004 30.9966649,22.7399995 31.35,22.84 C31.7233352,22.9533339 32.0299988,23.0649995 32.27,23.175 C32.5100012,23.2850006 32.7183324,23.4483323 32.895,23.665 C33.0716676,23.8816678 33.16,24.1666649 33.16,24.52 C33.16,25.0400026 32.960002,25.4399986 32.56,25.72 C32.159998,26.0000014 31.6566697,26.14 31.05,26.14 C30.6366646,26.14 30.2333353,26.0750006 29.84,25.945 C29.4466647,25.8149993 29.1133347,25.6300012 28.84,25.39 L29.29,24.48 C29.5300012,24.6866677 29.816665,24.8483328 30.15,24.965 C30.483335,25.0816673 30.7999985,25.14 31.1,25.14 C31.3400012,25.14 31.5316659,25.0983338 31.675,25.015 C31.818334,24.9316663 31.89,24.8066675 31.89,24.64 C31.89,24.4533324 31.8066675,24.3133338 31.64,24.22 C31.4733325,24.1266662 31.2033352,24.0233339 30.83,23.91 C30.4699982,23.8033328 30.1766678,23.6983339 29.95,23.595 C29.7233322,23.4916662 29.5266675,23.3350011 29.36,23.125 C29.1933325,22.914999 29.11,22.6400017 29.11,22.3 C29.11,21.7733307 29.3016647,21.3716681 29.685,21.095 C30.0683353,20.818332 30.5499971,20.68 31.13,20.68 C31.4833351,20.68 31.831665,20.7299995 32.175,20.83 C32.5183351,20.9300005 32.823332,21.0699991 33.09,21.25 L32.62,22.19 Z M37.4,25.76 C36.9733312,26.0200013 36.526669,26.15 36.06,26.15 C35.5999977,26.15 35.2233348,26.0150014 34.93,25.745 C34.6366652,25.4749986 34.49,25.0766693 34.49,24.55 L34.49,21.91 L33.74,21.91 L33.73,20.96 L34.49,20.96 L34.49,19.49 L35.78,19.49 L35.78,20.96 L37.31,20.96 L37.31,21.91 L35.78,21.91 L35.78,24.32 C35.78,24.5666679 35.8266662,24.7416662 35.92,24.845 C36.0133338,24.9483339 36.1533324,25 36.34,25 C36.540001,25 36.7933318,24.9266674 37.1,24.78 L37.4,25.76 Z" id="Guest" fill="#747474"></path>
        </g>
    </g>
</svg>