<svg width="13" height="15" viewBox="0 0 13 15" xmlns="http://www.w3.org/2000/svg"><title>Apple_logo_grey</title><g fill="#F5F5F7" fill-rule="nonzero"><path d="M10.467 7.972c-.018-1.894 1.577-2.803 1.65-2.847-.898-1.287-2.295-1.464-2.793-1.484-1.189-.118-2.32.685-2.922.685-.602 0-1.534-.668-2.519-.65-1.297.02-2.49.739-3.158 1.876-1.346 2.29-.344 5.681.967 7.54.641.908 1.405 1.93 2.41 1.893.967-.038 1.333-.613 2.5-.613 1.169 0 1.498.613 2.52.595 1.04-.02 1.7-.928 2.337-1.839.735-1.054 1.04-2.075 1.057-2.128-.023-.01-2.028-.763-2.05-3.028"/><path d="M8.814 2.49c.517-.66.866-1.576.77-2.49-.745.031-1.646.523-2.18 1.182-.48.583-.899 1.517-.785 2.412.83.068 1.678-.445 2.195-1.104"/></g></svg>