<svg width="17" height="16" viewBox="0 0 17 16" fill="none" xmlns="http://www.w3.org/2000/svg"><g clip-path="url(#a)"><path clip-rule="evenodd" d="M12.5 4.25a4.241 4.241 0 0 1-1.51 3.249 7.711 7.711 0 0 1 1.355.67.384.384 0 0 1 .105.549l-.4.574a.42.42 0 0 1-.564.11A6.22 6.22 0 0 0 8.25 8.5a6.25 6.25 0 0 0-6.237 5.85.42.42 0 0 1-.413.4H.9a.385.385 0 0 1-.39-.4 7.754 7.754 0 0 1 5-6.852A4.25 4.25 0 1 1 12.5 4.25zM8.25 1.5a2.75 2.75 0 1 0 0 5.5 2.75 2.75 0 0 0 0-5.5z"/><path d="M15.195 9.144a.467.467 0 0 1 .674-.001l.495.51a.486.486 0 0 1 0 .674l-5.249 5.425a.803.803 0 0 1-1.158.002l-3.57-3.665a.486.486 0 0 1 0-.675l.534-.551a.467.467 0 0 1 .672-.002l2.983 3.06 4.62-4.777z"/></g><defs><clipPath id="a"><path fill="#fff" transform="translate(.5)" d="M0 0h16v16H0z"/></clipPath></defs></svg>