<svg xmlns="http://www.w3.org/2000/svg" width="14" height="11" viewBox="0 0 14 11"><g fill="none" fill-rule="evenodd"><path d="M-1 1h17v17H-1z"/><path fill="#4C4C4C" fill-rule="nonzero" d="M3.25.542H1.125a.71.71 0 0 0-.708.708v8.5c0 .39.318.708.708.708H3.25a.71.71 0 0 0 .708-.708v-8.5A.71.71 0 0 0 3.25.542zm9.917 0h-2.125a.71.71 0 0 0-.709.708v8.5c0 .39.32.708.709.708h2.125a.71.71 0 0 0 .708-.708v-8.5a.71.71 0 0 0-.708-.708zm-4.959 0H6.083a.71.71 0 0 0-.708.708v8.5c0 .39.319.708.708.708h2.125a.71.71 0 0 0 .709-.708v-8.5a.71.71 0 0 0-.709-.708z"/></g></svg>