<svg width="14" height="19" viewBox="0 0 14 19" xmlns="http://www.w3.org/2000/svg"><path d="M12.167 6.583h-.834V4.917c0-2.3-1.866-4.167-4.166-4.167A4.168 4.168 0 0 0 3 4.917v1.666h-.833C1.25 6.583.5 7.333.5 8.25v8.333c0 .917.75 1.667 1.667 1.667h10c.916 0 1.666-.75 1.666-1.667V8.25c0-.917-.75-1.667-1.666-1.667zm-5 7.5c-.917 0-1.667-.75-1.667-1.666 0-.917.75-1.667 1.667-1.667.916 0 1.666.75 1.666 1.667 0 .916-.75 1.666-1.666 1.666zm2.583-7.5H4.583V4.917a2.586 2.586 0 0 1 2.584-2.584A2.586 2.586 0 0 1 9.75 4.917v1.666z"/></svg>