<svg width="13" height="12" viewBox="0 0 13 12" fill="none" xmlns="http://www.w3.org/2000/svg"><g clip-path="url(#a)"><path d="M4.25 5.25a1.875 1.875 0 1 0 0-3.75 1.875 1.875 0 0 0 0 3.75zM8.75 5.25a1.875 1.875 0 1 0 0-3.75 1.875 1.875 0 0 0 0 3.75zM8.688 10.5a4.49 4.49 0 0 0-1.501-4.16A3.75 3.75 0 0 1 12.5 9.75v.225c0 .29-.235.525-.525.525H8.688zM.5 9.75a3.75 3.75 0 1 1 7.5 0v.225c0 .29-.235.525-.525.525h-6.45A.525.525 0 0 1 .5 9.975V9.75z"/></g><defs><clipPath id="a"><path fill="#fff" transform="translate(.5)" d="M0 0h12v12H0z"/></clipPath></defs></svg>