<svg width="24" height="24" viewBox="0 0 24 24" fill="none" xmlns="http://www.w3.org/2000/svg"><path d="M10.204 20a6.334 6.334 0 0 1-3.446-1.014 6.065 6.065 0 0 1-2.285-2.703 5.863 5.863 0 0 1-.354-3.48 5.972 5.972 0 0 1 1.697-3.086l4.65-4.518A4.556 4.556 0 0 1 13.613 4a4.55 4.55 0 0 1 3.114 1.275A4.292 4.292 0 0 1 18.038 8.3a4.286 4.286 0 0 1-1.234 3.055l-4.65 4.516a2.803 2.803 0 0 1-1.94.752 2.8 2.8 0 0 1-1.927-.785 2.641 2.641 0 0 1-.807-1.871 2.638 2.638 0 0 1 .774-1.884l4.407-4.28 1.461 1.421-4.405 4.28a.67.67 0 0 0-.211.476.653.653 0 0 0 .202.48.692.692 0 0 0 .494.196.705.705 0 0 0 .49-.204l4.653-4.515c.23-.216.414-.475.541-.761a2.287 2.287 0 0 0-.511-2.583 2.42 2.42 0 0 0-.793-.512 2.476 2.476 0 0 0-1.866.016c-.295.123-.561.301-.784.525l-4.655 4.516a3.958 3.958 0 0 0-1.162 2.827 3.961 3.961 0 0 0 1.212 2.806 4.2 4.2 0 0 0 2.89 1.177 4.204 4.204 0 0 0 2.91-1.128l4.406-4.28L19 13.96l-4.407 4.28a6.204 6.204 0 0 1-2.014 1.305 6.348 6.348 0 0 1-2.375.455z" fill="#777"/></svg>