<?xml version="1.0" encoding="utf-8"?>
<!-- Generator: Adobe Illustrator 20.0.0, SVG Export Plug-In . SVG Version: 6.00 Build 0)  -->
<svg version="1.1" id="Laag_1" xmlns="http://www.w3.org/2000/svg" xmlns:xlink="http://www.w3.org/1999/xlink" x="0px" y="0px"
	 viewBox="0 0 24 24" style="enable-background:new 0 0 24 24;" xml:space="preserve">
<path d="M18.8,11.3c1.6,0,2.9-1.3,2.9-3s-1.3-3-2.9-3c-1.6,0-2.9,1.3-2.9,3S17.2,11.3,18.8,11.3L18.8,11.3z M8.1,8.3
	c0-1.7-1.3-3-2.9-3s-2.9,1.3-2.9,3s1.3,3,2.9,3S8.1,10,8.1,8.3z M12,10.7c1.8,0,3.2-1.5,3.2-3.3S13.8,4,12,4S8.8,5.5,8.8,7.3
	S10.2,10.7,12,10.7L12,10.7z M6.2,16.3v3.1h11.6v-3.1c0-2.8-3.9-4.3-5.8-4.3S6.2,13.4,6.2,16.3z M15.8,12c2,1.3,2.7,2.5,2.7,4.3v3.1
	h4.4v-3.1c0-2.9-3.4-4.3-5.1-4.3C17.6,12,16.1,12,15.8,12z M8.1,12c-2,1.3-2.7,2.5-2.7,4.3v3.1H1v-3.1C1,13.5,4.4,12,6.1,12
	C6.3,12,7.8,12,8.1,12z"/>
</svg>
