<svg xmlns="http://www.w3.org/2000/svg" class="hidden"><symbol id="icon-add_round" viewBox="0 0 24 24"><title>icon-add_round</title><path d="M12 24C5.373 24 0 18.627 0 12S5.373 0 12 0s12 5.373 12 12-5.373 12-12 12zm6-10.8v-2.4h-4.8V6h-2.4v4.8H6v2.4h4.8V18h2.4v-4.8H18z" fill="#000" fill-rule="evenodd"/></symbol><symbol id="icon-comment_thicker" viewBox="0 0 24 24"><title>icon-comment_thicker</title><path d="M22.974 24l-5.85-5.85H4.344A3.35 3.35 0 0 1 1 14.807V3.344A3.35 3.35 0 0 1 4.344 0h15.284a3.34 3.34 0 0 1 3.334 3.343L22.974 24zM20.096 3.344a.475.475 0 0 0-.468-.478H4.344a.483.483 0 0 0-.478.478v11.463c0 .26.218.478.478.478H18.31l1.793 1.792-.008-13.733z" fill-rule="nonzero" fill="#000"/></symbol><symbol id="icon-comment_thicker_link" viewBox="0 0 24 24"><title>icon-comment_thicker_link</title><path d="M22.974 24l-5.85-5.85H4.344A3.35 3.35 0 0 1 1 14.807V3.344A3.35 3.35 0 0 1 4.344 0h15.284a3.34 3.34 0 0 1 3.334 3.343L22.974 24zM20.096 3.344a.475.475 0 0 0-.468-.478H4.344a.483.483 0 0 0-.478.478v11.463c0 .26.218.478.478.478H18.31l1.793 1.792-.008-13.733z" fill-rule="nonzero" fill="#000"/></symbol><symbol id="icon-comment_transparent" viewBox="0 0 24 24"><title>icon-comment_transparent</title><path d="M23.218 24l-5.205-5.205H2.764A2.77 2.77 0 0 1 0 16.031V2.764A2.77 2.77 0 0 1 2.764 0h17.69a2.761 2.761 0 0 1 2.752 2.764L23.218 24zM22.101 2.764c0-.914-.74-1.658-1.648-1.658H2.764c-.91 0-1.658.747-1.658 1.658v13.267c0 .911.747 1.659 1.658 1.659h15.707l3.64 3.64-.01-18.566z" fill-rule="nonzero" fill="#000"/></symbol><symbol id="icon-information" viewBox="0 0 24 24"><title>icon-information</title><path d="M10.8 18h2.4v-7.2h-2.4V18zM12 0C5.4 0 0 5.4 0 12s5.4 12 12 12 12-5.4 12-12S18.6 0 12 0zm0 21.6c-5.28 0-9.6-4.32-9.6-9.6 0-5.28 4.32-9.6 9.6-9.6 5.28 0 9.6 4.32 9.6 9.6 0 5.28-4.32 9.6-9.6 9.6zM10.8 8.4h2.4V6h-2.4v2.4z" fill-rule="nonzero"/></symbol><symbol id="icon-like_transparent" viewBox="0 0 24 24"><title>icon-like_transparent</title><path d="M12.548 18.598c5.066-4.425 6.659-6.004 7.728-7.918.512-.916.755-1.767.755-2.633 0-2.282-1.867-4.078-4.3-4.078-1.374 0-2.736.616-3.62 1.614L12 6.838l-1.112-1.255c-.883-.999-2.244-1.614-3.62-1.614-2.432 0-4.299 1.796-4.299 4.078 0 .87.246 1.724.762 2.645 1.072 1.91 2.672 3.492 7.723 7.897l.55.482.544-.473zM16.732 1C20.778 1 24 4.099 24 8.047c0 1.4-.384 2.741-1.132 4.081-1.31 2.344-2.986 4.005-8.37 8.709l-2.502 2.174-.974-.853L9.5 20.825c-5.362-4.676-7.046-6.341-8.358-8.68C.387 10.799 0 9.453 0 8.047 0 4.099 3.222 1 7.268 1c1.713 0 3.39.58 4.732 1.59A7.925 7.925 0 0 1 16.732 1z" fill-rule="nonzero" fill="#000"/></symbol><symbol id="icon-liked" viewBox="0 0 24 24"><path d="M1 21h4V9H1v12zm22-11c0-1.1-.9-2-2-2h-6.31l.95-4.57.03-.32c0-.41-.17-.79-.44-1.06L14.17 1 7.59 7.59C7.22 7.95 7 8.45 7 9v10c0 1.1.9 2 2 2h9c.83 0 1.54-.5 1.84-1.22l3.02-7.05c.09-.23.14-.47.14-.73v-2z"/></symbol><symbol id="icon-quote_top" viewBox="0 0 24 24"><title>icon-quote_top</title><path d="M23.286 21.2h-8.724v-6.347c0-2.59.222-4.622.667-6.095.445-1.474 1.273-2.8 2.484-3.979C18.924 3.6 20.45 2.674 22.292 2L24 5.663c-1.738.59-2.986 1.41-3.742 2.463-.755 1.053-1.153 2.453-1.195 4.2h4.223V21.2zm-14.561 0H0v-6.347c0-2.568.222-4.595.667-6.08.446-1.483 1.268-2.815 2.469-3.994C4.336 3.6 5.868 2.674 7.731 2l1.707 3.663c-1.738.59-2.985 1.41-3.74 2.463-.756 1.053-1.155 2.453-1.196 4.2h4.223V21.2z" fill-rule="nonzero" fill="#000"/></symbol><symbol id="icon-sta_thicker" viewBox="0 0 24 24"><title>icon-sta_thicker</title><path d="M4.582 23.799L6.54 15.36 0 9.686l8.626-.744L11.998 1l3.37 7.942L24 9.686l-6.551 5.675 1.97 8.44-7.421-4.478L4.582 23.8zm7.416-7.44l3.583 2.163-.951-4.076 3.172-2.748-4.172-.36-1.632-3.845-1.633 3.845-4.175.36 3.166 2.748-.946 4.08 3.588-2.166z" fill-rule="nonzero" fill="#000"/></symbol><symbol id="icon-star" viewBox="0 0 24 24"><title>icon-star</title><path d="M12 18.84l6.14 3.229-1.173-6.837 4.968-4.842-6.865-.998L12 3.172l-3.07 6.22-6.865.998 4.968 4.842-1.173 6.837L12 18.84zm0 1.086l-7.416 3.9L6 15.566 0 9.72l8.292-1.205L12 1l3.708 7.514L24 9.719l-6 5.848 1.416 8.258L12 19.926z" fill-rule="nonzero" fill="#000"/></symbol><symbol id="icon-to_like" viewBox="0 0 24 24"><title>icon-liked copy</title><g fill-rule="evenodd"><path fill-rule="nonzero" d="M1 21h4V10H1z"/><path d="M23 10.55c0-1.045-.844-1.9-1.875-1.9h-5.916l.891-4.341.028-.304c0-.39-.16-.751-.412-1.007L14.722 2 8.553 8.26A1.87 1.87 0 0 0 8 9.6v9.5c0 1.045.844 1.9 1.875 1.9h8.438c.778 0 1.443-.475 1.725-1.159l2.83-6.698c.085-.218.132-.446.132-.693v-1.9z"/></g></symbol><symbol id="icon-upload" viewBox="0 0 24 24"><title>icon-upload</title><path d="M13.333 12.893l3.454-3.44 1.88 1.88L12 18l-6.667-6.667 1.88-1.88 3.454 3.44V0h2.666v12.893zm8-.893v9.333H2.667V12H0v9.333C0 22.8 1.2 24 2.667 24h18.666C22.8 24 24 22.8 24 21.333V12h-2.667z" fill-rule="nonzero" fill="#000"/></symbol><symbol id="icon-user" viewBox="0 0 24 24"><title>icon-user</title><g fill-rule="nonzero" fill="#000"><circle cx="12" cy="6" r="6"/><path d="M12 15c-9.15 0-12 6-12 6v3h24v-3s-2.85-6-12-6z"/></g></symbol></svg>