<?xml version="1.0" encoding="utf-8"?>
<!-- Generator: Adobe Illustrator 18.0.0, SVG Export Plug-In . SVG Version: 6.00 Build 0)  -->
<!DOCTYPE svg PUBLIC "-//W3C//DTD SVG 1.1//EN" "http://www.w3.org/Graphics/SVG/1.1/DTD/svg11.dtd">
<svg version="1.1" id="Layer_1" xmlns="http://www.w3.org/2000/svg" xmlns:xlink="http://www.w3.org/1999/xlink" x="0px" y="0px"
	 viewBox="0 0 50 50" enable-background="new 0 0 50 50" xml:space="preserve">
<g>
	<path fill="#29AAE2" d="M29.1,26.5c-0.8,0-1.2,0-1.3,0.1l-1.1,0.1l-0.1,1.1c0,0.3-0.6,6.5,3,10.2c2.4,2.4,5.3,3.8,7.7,3.8
		c1.3,0,2.4-0.4,3.2-1.2c2.3-2.3,1.2-7.2-2.6-11C35.3,26.9,31.3,26.5,29.1,26.5z M38.7,38.6c-0.3,0.3-0.8,0.4-1.4,0.4h0
		c-1.3,0-3.6-0.8-5.8-3.1c-1.9-1.9-2.3-5.2-2.3-6.9c1.8,0,4.9,0.4,6.9,2.3c1.4,1.4,2.4,3,2.8,4.4C39.3,37.1,39.2,38.1,38.7,38.6z"/>
	<path fill="#29AAE2" d="M12.4,20.7c2.7,2.7,6.7,3.1,8.9,3.1c0.7,0,1.2,0,1.3-0.1l1.1-0.1l0.1-1.1c0-0.3,0.6-6.5-3-10.2
		c-2.4-2.4-5.3-3.8-7.7-3.8c-1.3,0-2.4,0.4-3.2,1.2c-1.2,1.2-1.5,3-1,5C9.4,16.8,10.6,18.9,12.4,20.7z M11.7,11.6
		c0.3-0.3,0.8-0.4,1.4-0.4c1.3,0,3.6,0.8,5.8,3.1c1.9,1.9,2.3,5.2,2.3,6.9c-1.8,0-4.9-0.4-6.9-2.3c-1.4-1.4-2.4-3-2.8-4.4
		C11.1,13.1,11.2,12.1,11.7,11.6z"/>
	<path fill="#29AAE2" d="M23.8,27.7l-0.1-1.1l-1.1-0.1c-0.1,0-0.5-0.1-1.3-0.1c-2.2,0-6.2,0.4-8.9,3.1c-3.8,3.8-5,8.6-2.6,11
		c0.8,0.8,1.9,1.2,3.2,1.2c2.4,0,5.3-1.4,7.7-3.8C24.4,34.2,23.8,28,23.8,27.7z M21.2,29.1c0,1.7-0.3,4.9-2.3,6.9
		c-2.3,2.3-4.5,3.1-5.8,3.1h0c-0.6,0-1.1-0.2-1.4-0.4c-0.9-0.9-0.5-4,2.6-7.2C16.2,29.5,19.4,29.2,21.2,29.1z"/>
	<path fill="#29AAE2" d="M26.6,22.5l0.1,1.1l1.1,0.1c0.1,0,0.6,0.1,1.3,0.1c2.2,0,6.2-0.4,8.9-3.1c1.8-1.8,3.1-3.9,3.6-5.9
		c0.5-2.1,0.2-3.9-1-5c-0.8-0.8-1.9-1.2-3.2-1.2c-2.4,0-5.3,1.4-7.7,3.8C26,16,26.6,22.2,26.6,22.5z M29.2,21.1
		c0-1.7,0.3-4.9,2.3-6.9c2.3-2.3,4.5-3.1,5.8-3.1c0.6,0,1.1,0.2,1.4,0.4c0.5,0.5,0.6,1.5,0.2,2.8c-0.4,1.5-1.4,3-2.8,4.4
		C34.2,20.7,31,21.1,29.2,21.1z"/>
	<path fill="#29AAE2" d="M42.6,19.5l-0.3-0.1l-0.2,0.3c-0.4,0.5-0.7,1-1.2,1.5l-0.6,0.7l0.9,0.1c3.2,0.4,5.1,1.9,5.1,3.1
		c0,1.2-1.9,2.7-5.1,3.1l-0.9,0.1l0.6,0.7c0.4,0.5,0.8,1,1.2,1.5l0.2,0.3l0.3-0.1c3.9-0.8,6.4-3,6.4-5.6
		C49,22.5,46.5,20.3,42.6,19.5z"/>
	<path fill="#29AAE2" d="M8.2,30.8l0.2-0.3c0.3-0.5,0.7-1,1.2-1.5l0.6-0.7l-0.9-0.1c-3.2-0.4-5.1-1.9-5.1-3.1c0-1.2,1.9-2.7,5.1-3.1
		l0.9-0.1l-0.6-0.7c-0.4-0.5-0.8-1-1.2-1.5l-0.2-0.3l-0.3,0.1c-3.9,0.8-6.4,3-6.4,5.6c0,2.6,2.5,4.8,6.4,5.6L8.2,30.8z"/>
	<path fill="#29AAE2" d="M29.1,40.8l-0.7-0.6l-0.1,0.9c-0.4,3.2-1.9,5.1-3.1,5.1s-2.7-1.9-3.1-5.1L22,40.2l-0.7,0.6
		c-0.5,0.4-1,0.8-1.5,1.2l-0.3,0.2l0.1,0.3c0.8,3.9,3,6.4,5.6,6.4c2.6,0,4.8-2.5,5.6-6.4l0.1-0.3l-0.3-0.2
		C30.1,41.6,29.6,41.2,29.1,40.8z"/>
	<path fill="#29AAE2" d="M21.3,9.5l0.7,0.6l0.1-0.9C22.5,5.9,24,4,25.2,4s2.7,1.9,3.1,5.1l0.1,0.9l0.7-0.6c0.5-0.4,1-0.8,1.5-1.2
		l0.3-0.2l-0.1-0.3c-0.8-3.9-3-6.4-5.6-6.4c-2.6,0-4.8,2.5-5.6,6.4l-0.1,0.3l0.3,0.2C20.3,8.6,20.8,9,21.3,9.5z"/>
</g>
</svg>
