<svg xmlns="http://www.w3.org/2000/svg" xmlns:xlink="http://www.w3.org/1999/xlink"><symbol id="checkmark" viewBox="0 0 24 24"><path fill="none" stroke="currentColor" stroke-width="3" stroke-linecap="round" stroke-linejoin="round" d="M20 6 9 17l-5-5"/></symbol><use xlink:href="#checkmark" width="24" height="24"/><view id="checkmark-view" viewBox="0 0 24 24"/><symbol id="hide" viewBox="0 0 24 24"><path fill="none" stroke="currentColor" stroke-width="3" stroke-linecap="round" stroke-linejoin="round" d="M17.94 17.94A10.07 10.07 0 0 1 12 20c-7 0-11-8-11-8a18.45 18.45 0 0 1 5.06-5.94M9.9 4.24A9.12 9.12 0 0 1 12 4c7 0 11 8 11 8a18.5 18.5 0 0 1-2.16 3.19m-6.72-1.07a3 3 0 1 1-4.24-4.24M1 1l22 22"/></symbol><use xlink:href="#hide" y="24" width="24" height="24"/><view id="hide-view" viewBox="0 24 24 24"/><symbol id="remove" viewBox="0 0 24 24"><path fill="none" d="M20 4 4 20M4 4l16 16" stroke="#000" stroke-width="3" stroke-linecap="round" stroke-linejoin="round"/></symbol><use xlink:href="#remove" y="48" width="24" height="24"/><view id="remove-view" viewBox="0 48 24 24"/><symbol id="show" viewBox="0 0 24 24"><path fill="none" stroke="currentColor" stroke-width="3" stroke-linecap="round" stroke-linejoin="round" d="M1 12s4-8 11-8 11 8 11 8-4 8-11 8-11-8-11-8z"/><circle fill="none" stroke="currentColor" stroke-width="3" stroke-linecap="round" stroke-linejoin="round" cx="12" cy="12" r="3"/></symbol><use xlink:href="#show" y="72" width="24" height="24"/><view id="show-view" viewBox="0 72 24 24"/><symbol id="trash" viewBox="0 0 24 24"><path fill="none" stroke="currentColor" stroke-width="3" stroke-linecap="round" stroke-linejoin="round" d="M3 6h18m-2 0v14a2 2 0 0 1-2 2H7a2 2 0 0 1-2-2V6m3 0V4a2 2 0 0 1 2-2h4a2 2 0 0 1 2 2v2m-6 5v6m4-6v6"/></symbol><use xlink:href="#trash" y="96" width="24" height="24"/><view id="trash-view" viewBox="0 96 24 24"/><symbol id="asterisk" viewBox="0 0 24 24"><path d="M2.04 11.869a1.973 1.973 0 0 1-1.39-2.53l.388-1.2a1.976 1.976 0 0 1 2.564-1.254c2.867 1.067 5.02 2.008 6.454 2.826-.31-2.963-.521-5.3-.633-7.013C9.35 1.584 10.245.671 11.36.671h1.172c1.129 0 2.036.933 1.96 2.06-.135 1.991-.378 4.307-.734 6.944 1.993-1.004 4.214-1.947 6.668-2.83 1.044-.376 2.182.202 2.524 1.258l.437 1.35c.338 1.045-.23 2.173-1.287 2.477a43.855 43.855 0 0 1-7.143 1.447c1.215 1.057 2.841 2.795 4.88 5.213a1.978 1.978 0 0 1-.38 2.888l-1.005.713c-.89.63-2.124.432-2.736-.472-1.14-1.684-2.421-3.75-3.843-6.2-1.316 2.507-2.515 4.58-3.596 6.212-.6.906-1.828 1.09-2.71.454l-.98-.707a1.986 1.986 0 0 1-.376-2.877c2.115-2.555 3.676-4.296 4.683-5.224-2.375-.459-4.66-.963-6.854-1.508Z"/></symbol><use xlink:href="#asterisk" y="120" width="24" height="24"/><view id="asterisk-view" viewBox="0 120 24 24"/><symbol id="checked" viewBox="0 0 24 24"><path fill="#1b1b1d" d="m5.692 10.644 3.58 3.758 9.036-9.489 2.226 2.34L9.272 19.088l-5.806-6.103 2.226-2.34Z"/></symbol><use xlink:href="#checked" y="144" width="24" height="24"/><view id="checked-view" viewBox="0 144 24 24"/><symbol id="add" viewBox="0 0 24 24"><path fill="none" d="M12 4v16m-8-8h16" stroke="#000" stroke-width="3" stroke-linecap="round" stroke-linejoin="round"/></symbol><use xlink:href="#add" y="168" width="24" height="24"/><view id="add-view" viewBox="0 168 24 24"/><symbol id="calendar" viewBox="0 0 24 24"><g fill="none" stroke="currentColor" stroke-width="2.25" stroke-linecap="round" stroke-linejoin="round"><rect x="3" y="4" width="18" height="18" rx="2" ry="2"/><path d="M16 2v4M8 2v4m-5 4h18"/></g></symbol><use xlink:href="#calendar" y="192" width="24" height="24"/><view id="calendar-view" viewBox="0 192 24 24"/><symbol id="circle" viewBox="0 0 24 24"><circle cx="12" cy="12" r="10" fill="none" stroke="currentColor" stroke-width="2.25" stroke-linecap="round"/></symbol><use xlink:href="#circle" y="216" width="24" height="24"/><view id="circle-view" viewBox="0 216 24 24"/><symbol id="close" viewBox="0 0 24 24"><path fill="none" d="M20 4 4 20M4 4l16 16" stroke="#000" stroke-width="2.5" stroke-linecap="round" stroke-linejoin="round"/></symbol><use xlink:href="#close" y="240" width="24" height="24"/><view id="close-view" viewBox="0 240 24 24"/><symbol id="drop" viewBox="0 0 24 24"><path fill="none" d="m4 8 8 8 8-8" stroke="#000" stroke-width="3" stroke-linecap="round" stroke-linejoin="round"/></symbol><use xlink:href="#drop" y="264" width="24" height="24"/><view id="drop-view" viewBox="0 264 24 24"/><symbol id="drupal" viewBox="0 0 24 24"><path d="M15.792 5.064C14.088 3.408 12.504 1.824 12.024 0c-.48 1.824-2.064 3.408-3.768 5.064-2.496 2.496-5.352 5.352-5.352 9.648-.144 5.016 3.888 9.192 8.904 9.288 5.016.096 9.216-3.888 9.288-8.904v-.384c.048-4.296-2.808-7.152-5.304-9.648ZM7.56 15.528a5.498 5.498 0 0 0-.696 1.128c-.048.048-.096.12-.168.12h-.048c-.216 0-.432-.384-.432-.384-.048-.096-.12-.216-.168-.312L6 15.984c-.552-1.2-.096-2.904-.096-2.904.216-.816.6-1.632 1.08-2.328.312-.432.648-.864.984-1.296l.432.432 2.04 2.064c.096.096.096.216 0 .312L8.328 14.64l-.768.888Zm4.56 5.952c-1.728 0-3.168-1.416-3.12-3.168 0-.768.312-1.512.768-2.064.648-.768 1.464-1.56 2.376-2.592 1.032 1.128 1.728 1.848 2.376 2.736.048.048.096.12.12.216.336.528.552 1.128.552 1.776.072 1.728-1.344 3.096-3.072 3.096Zm5.904-5.016a.497.497 0 0 1-.312.264h-.048a.913.913 0 0 1-.312-.216c-.552-.816-1.176-1.608-1.848-2.28l-.816-.864-2.76-2.856a35.757 35.757 0 0 1-1.632-1.68c0-.048-.048-.048-.048-.048a1.218 1.218 0 0 1-.216-.432v-.096c-.096-.48.096-.96.432-1.296.528-.528 1.08-1.08 1.608-1.632.552.6 1.176 1.2 1.776 1.824 1.2 1.128 2.28 2.376 3.288 3.72.816 1.176 1.248 2.496 1.248 3.936-.096.504-.168 1.104-.36 1.656Z"/></symbol><use xlink:href="#drupal" y="288" width="24" height="24"/><view id="drupal-view" viewBox="0 288 24 24"/><symbol id="gin" viewBox="0 0 24 24"><path d="M12 4.92c.6.696 1.272 1.344 1.92 1.992 2.4 2.4 4.56 4.56 4.56 7.776v.408c-.096 3.528-3 6.384-6.528 6.384h-.12c-1.728-.048-3.384-.744-4.56-1.992-1.176-1.296-1.824-2.952-1.776-4.728v-.048c0-3.216 2.256-5.4 4.56-7.776A49.835 49.835 0 0 0 12 4.92ZM12 0c-.48 1.824-2.088 3.432-3.792 5.04-2.472 2.52-5.328 5.4-5.328 9.648-.12 5.04 3.912 9.216 8.904 9.312H12c4.92 0 9-3.96 9.12-8.904v-.384c0-4.296-2.88-7.128-5.352-9.648C14.088 3.432 12.48 1.824 12 0Z"/></symbol><use xlink:href="#gin" y="312" width="24" height="24"/><view id="gin-view" viewBox="0 312 24 24"/><symbol id="handle" viewBox="0 0 24 24"><path fill="none" d="m8 20 8-8-8-8" stroke="#000" stroke-width="3" stroke-linecap="round" stroke-linejoin="round"/></symbol><use xlink:href="#handle" y="336" width="24" height="24"/><view id="handle-view" viewBox="0 336 24 24"/><symbol id="more" viewBox="0 0 24 24"><path d="M12 13a1 1 0 1 0 0-2 1 1 0 0 0 0 2Zm0-9a1 1 0 1 0 0-2 1 1 0 0 0 0 2Zm0 18a1 1 0 1 0 0-2 1 1 0 0 0 0 2Z" fill="none" stroke="#000" stroke-width="2" stroke-linecap="round" stroke-linejoin="round"/></symbol><use xlink:href="#more" y="360" width="24" height="24"/><view id="more-view" viewBox="0 360 24 24"/><symbol id="tool" viewBox="0 0 24 24"><path fill="none" stroke="currentColor" stroke-width="2" stroke-linecap="round" stroke-linejoin="round" d="M14.7 6.3a1 1 0 0 0 0 1.4l1.6 1.6a1 1 0 0 0 1.4 0l3.77-3.77a6 6 0 0 1-7.94 7.94l-6.91 6.91a2.12 2.12 0 0 1-3-3l6.91-6.91a6 6 0 0 1 7.94-7.94l-3.76 3.76z"/></symbol><use xlink:href="#tool" y="384" width="24" height="24"/><view id="tool-view" viewBox="0 384 24 24"/><symbol id="grid" viewBox="0 0 24 24"><path fill="none" stroke="currentColor" stroke-width="3" stroke-linecap="round" stroke-linejoin="round" d="M3 3h7v7H3zm11 0h7v7h-7zm0 11h7v7h-7zM3 14h7v7H3z"/></symbol><use xlink:href="#grid" y="408" width="24" height="24"/><view id="grid-view" viewBox="0 408 24 24"/><symbol id="list" viewBox="0 0 24 24"><path fill="none" stroke="currentColor" stroke-width="3" stroke-linecap="round" stroke-linejoin="round" d="M8 6h13M8 12h13M8 18h13M3 6h.01M3 12h.01M3 18h.01"/></symbol><use xlink:href="#list" y="432" width="24" height="24"/><view id="list-view" viewBox="0 432 24 24"/><symbol id="media-edit" viewBox="0 0 24 24"><path fill="none" stroke="currentColor" stroke-width="4" stroke-linecap="round" stroke-linejoin="round" d="M17 3a2.828 2.828 0 1 1 4 4L7.5 20.5 2 22l1.5-5.5L17 3z"/></symbol><use xlink:href="#media-edit" y="456" width="24" height="24"/><view id="media-edit-view" viewBox="0 456 24 24"/><symbol id="media-remove" viewBox="0 0 24 24"><path fill="none" d="M20 4 4 20M4 4l16 16" stroke="#000" stroke-width="4" stroke-linecap="round" stroke-linejoin="round"/></symbol><use xlink:href="#media-remove" y="480" width="24" height="24"/><view id="media-remove-view" viewBox="0 480 24 24"/><symbol id="error" viewBox="0 0 24 24"><circle fill="none" stroke="currentColor" stroke-width="2" stroke-linecap="round" stroke-linejoin="round" cx="12" cy="12" r="10"/><path fill="none" stroke="currentColor" stroke-width="2" stroke-linecap="round" stroke-linejoin="round" d="m4.93 4.93 14.14 14.14"/></symbol><use xlink:href="#error" y="504" width="24" height="24"/><view id="error-view" viewBox="0 504 24 24"/><symbol id="info" viewBox="0 0 24 24"><path fill="none" stroke="currentColor" stroke-width="2" stroke-linecap="round" stroke-linejoin="round" d="M21 15a2 2 0 0 1-2 2H7l-4 4V5a2 2 0 0 1 2-2h14a2 2 0 0 1 2 2z"/></symbol><use xlink:href="#info" y="528" width="24" height="24"/><view id="info-view" viewBox="0 528 24 24"/><symbol id="question" viewBox="0 0 24 24"><circle fill="none" stroke="currentColor" stroke-width="2" stroke-linecap="round" stroke-linejoin="round" cx="12" cy="12" r="10"/><path fill="none" stroke="currentColor" stroke-width="2" stroke-linecap="round" stroke-linejoin="round" d="M9.09 9a3 3 0 0 1 5.83 1c0 2-3 3-3 3"/><path fill="none" stroke="currentColor" stroke-width="3" stroke-linecap="round" stroke-linejoin="round" d="M12 17h.01"/></symbol><use xlink:href="#question" y="552" width="24" height="24"/><view id="question-view" viewBox="0 552 24 24"/><symbol id="status" viewBox="0 0 24 24"><path fill="none" stroke="currentColor" stroke-width="2" stroke-linecap="round" stroke-linejoin="round" d="M22 11.08V12a10 10 0 1 1-5.93-9.14"/><path fill="none" stroke="currentColor" stroke-width="2" stroke-linecap="round" stroke-linejoin="round" d="M22 4 12 14.01l-3-3"/></symbol><use xlink:href="#status" y="576" width="24" height="24"/><view id="status-view" viewBox="0 576 24 24"/><symbol id="warning" viewBox="0 0 24 24"><path fill="none" stroke="currentColor" stroke-width="2" stroke-linecap="round" stroke-linejoin="round" d="M7.86 2h8.28L22 7.86v8.28L16.14 22H7.86L2 16.14V7.86L7.86 2zM12 8v4"/><path fill="none" stroke="currentColor" stroke-width="3" stroke-linecap="round" stroke-linejoin="round" d="M12 16h.01"/></symbol><use xlink:href="#warning" y="600" width="24" height="24"/><view id="warning-view" viewBox="0 600 24 24"/><symbol id="first" viewBox="0 0 24 24"><path fill="none" stroke="currentColor" stroke-width="3" stroke-linecap="round" stroke-linejoin="round" d="m11 17-5-5 5-5m7 10-5-5 5-5"/></symbol><use xlink:href="#first" y="624" width="24" height="24"/><view id="first-view" viewBox="0 624 24 24"/><symbol id="last" viewBox="0 0 24 24"><path fill="none" stroke="currentColor" stroke-width="3" stroke-linecap="round" stroke-linejoin="round" d="m13 17 5-5-5-5M6 17l5-5-5-5"/></symbol><use xlink:href="#last" y="648" width="24" height="24"/><view id="last-view" viewBox="0 648 24 24"/><symbol id="next" viewBox="0 0 24 24"><path fill="none" stroke="currentColor" stroke-width="3" stroke-linecap="round" stroke-linejoin="round" d="m9 18 6-6-6-6"/></symbol><use xlink:href="#next" y="672" width="24" height="24"/><view id="next-view" viewBox="0 672 24 24"/><symbol id="prev" viewBox="0 0 24 24"><path fill="none" stroke="currentColor" stroke-width="3" stroke-linecap="round" stroke-linejoin="round" d="m15 18-6-6 6-6"/></symbol><use xlink:href="#prev" y="696" width="24" height="24"/><view id="prev-view" viewBox="0 696 24 24"/><symbol id="clock" viewBox="0 0 24 24"><circle fill="none" stroke="currentColor" stroke-width="2" stroke-linecap="round" stroke-linejoin="round" cx="12" cy="12" r="10"/><path fill="none" stroke="currentColor" stroke-width="2" stroke-linecap="round" stroke-linejoin="round" d="M12 6v6l4 2"/></symbol><use xlink:href="#clock" y="720" width="24" height="24"/><view id="clock-view" viewBox="0 720 24 24"/><symbol id="database" viewBox="0 0 24 24"><ellipse fill="none" stroke="currentColor" stroke-width="2" stroke-linecap="round" stroke-linejoin="round" cx="12" cy="5" rx="9" ry="3"/><path fill="none" stroke="currentColor" stroke-width="2" stroke-linecap="round" stroke-linejoin="round" d="M21 12c0 1.66-4 3-9 3s-9-1.34-9-3"/><path fill="none" stroke="currentColor" stroke-width="2" stroke-linecap="round" stroke-linejoin="round" d="M3 5v14c0 1.66 4 3 9 3s9-1.34 9-3V5"/></symbol><use xlink:href="#database" y="744" width="24" height="24"/><view id="database-view" viewBox="0 744 24 24"/><symbol id="php" viewBox="0 0 24 24"><path fill="none" stroke="currentColor" stroke-width="2" stroke-linecap="round" stroke-linejoin="round" d="M13 2H6a2 2 0 0 0-2 2v16a2 2 0 0 0 2 2h12a2 2 0 0 0 2-2V9z"/><path fill="none" stroke="currentColor" stroke-width="2" stroke-linecap="round" stroke-linejoin="round" d="M13 2v7h7"/></symbol><use xlink:href="#php" y="768" width="24" height="24"/><view id="php-view" viewBox="0 768 24 24"/><symbol id="server" viewBox="0 0 24 24"><rect fill="none" stroke="currentColor" stroke-width="2" stroke-linecap="round" stroke-linejoin="round" x="2" y="2" width="20" height="8" rx="2" ry="2"/><rect fill="none" stroke="currentColor" stroke-width="2" stroke-linecap="round" stroke-linejoin="round" x="2" y="14" width="20" height="8" rx="2" ry="2"/><path fill="none" stroke="currentColor" stroke-width="2" stroke-linecap="round" stroke-linejoin="round" d="M6 6h.01M6 18h.01"/></symbol><use xlink:href="#server" y="792" width="24" height="24"/><view id="server-view" viewBox="0 792 24 24"/><symbol id="drag-dots" viewBox="0 0 24 24"><path d="M7 13a1 1 0 1 0 0-2 1 1 0 0 0 0 2Zm0-9a1 1 0 1 0 0-2 1 1 0 0 0 0 2Zm0 18a1 1 0 1 0 0-2 1 1 0 0 0 0 2Zm9-9a1 1 0 1 0 0-2 1 1 0 0 0 0 2Zm0-9a1 1 0 1 0 0-2 1 1 0 0 0 0 2Zm0 18a1 1 0 1 0 0-2 1 1 0 0 0 0 2Z" fill="none" stroke="currentColor" stroke-width="2" stroke-linecap="round" stroke-linejoin="round"/></symbol><use xlink:href="#drag-dots" y="816" width="24" height="24"/><view id="drag-dots-view" viewBox="0 816 24 24"/><symbol id="drag" viewBox="0 0 24 24"><path fill="none" stroke="currentColor" stroke-width="2" stroke-linecap="round" stroke-linejoin="round" d="m5 9-3 3 3 3M9 5l3-3 3 3m0 14-3 3-3-3M19 9l3 3-3 3M2 12h20M12 2v20"/></symbol><use xlink:href="#drag" y="840" width="24" height="24"/><view id="drag-view" viewBox="0 840 24 24"/><symbol id="sort-asc" viewBox="0 0 24 24"><path fill="none" d="M12 21V3m-7 7 7-7 7 7" stroke="#000" stroke-width="3" stroke-linecap="round" stroke-linejoin="round"/></symbol><use xlink:href="#sort-asc" y="864" width="24" height="24"/><view id="sort-asc-view" viewBox="0 864 24 24"/><symbol id="sort-desc" viewBox="0 0 24 24"><path fill="none" d="M12 3v18m7-7-7 7-7-7" stroke="#000" stroke-width="3" stroke-linecap="round" stroke-linejoin="round"/></symbol><use xlink:href="#sort-desc" y="888" width="24" height="24"/><view id="sort-desc-view" viewBox="0 888 24 24"/><symbol id="sort" viewBox="0 0 24 24"><path fill="none" d="M3 12h14M3 6h18M3 18h10" stroke="#000" stroke-width="3" stroke-linecap="round" stroke-linejoin="round"/></symbol><use xlink:href="#sort" y="912" width="24" height="24"/><view id="sort-view" viewBox="0 912 24 24"/><symbol id="backtosite" viewBox="0 0 24 24"><path fill="none" stroke="#000" stroke-width="2" stroke-linecap="round" stroke-linejoin="round" d="M9 14 4 9l5-5"/><path fill="none" stroke="#000" stroke-width="2" stroke-linecap="round" stroke-linejoin="round" d="M20 18v-5a4 4 0 0 0-4-4H4"/></symbol><use xlink:href="#backtosite" y="936" width="24" height="24"/><view id="backtosite-view" viewBox="0 936 24 24"/><symbol id="devel" viewBox="0 0 24 24"><path fill="none" stroke="currentColor" stroke-width="2" stroke-linecap="round" stroke-linejoin="round" d="m4 17 6-6-6-6m8 14h8"/></symbol><use xlink:href="#devel" y="960" width="24" height="24"/><view id="devel-view" viewBox="0 960 24 24"/><symbol id="rebuild-cache" viewBox="0 0 24 24"><path fill="none" stroke="currentColor" stroke-width="2.25" stroke-linecap="round" stroke-linejoin="round" d="M23 4v6h-6"/><path fill="none" stroke="currentColor" stroke-width="2.25" stroke-linecap="round" stroke-linejoin="round" d="M20.49 15a9 9 0 1 1-2.12-9.36L23 10"/></symbol><use xlink:href="#rebuild-cache" y="984" width="24" height="24"/><view id="rebuild-cache-view" viewBox="0 984 24 24"/><symbol id="responsive-preview" viewBox="0 0 24 24"><rect fill="none" stroke="currentColor" stroke-width="2.25" stroke-linecap="round" stroke-linejoin="round" x="5" y="2" width="14" height="20" rx="2" ry="2"/><path fill="none" stroke="currentColor" stroke-width="2.25" stroke-linecap="round" stroke-linejoin="round" d="M12 18h.01"/></symbol><use xlink:href="#responsive-preview" y="1008" width="24" height="24"/><view id="responsive-preview-view" viewBox="0 1008 24 24"/><symbol id="search" viewBox="0 0 24 24"><path fill="none" d="M10 17a7 7 0 1 0 0-14 7 7 0 0 0 0 14Z" stroke="#000" stroke-width="2.25" stroke-linecap="round" stroke-linejoin="round"/><path fill="none" d="m21 21-4.35-4.35" stroke="#000" stroke-width="2.5" stroke-linecap="round" stroke-linejoin="round"/></symbol><use xlink:href="#search" y="1032" width="24" height="24"/><view id="search-view" viewBox="0 1032 24 24"/><symbol id="shortcut-filled" viewBox="0 0 24 24"><path fill="currentColor" stroke="currentColor" stroke-width="2" stroke-linecap="round" stroke-linejoin="round" d="m12 2 3.09 6.26L22 9.27l-5 4.87 1.18 6.88L12 17.77l-6.18 3.25L7 14.14 2 9.27l6.91-1.01L12 2z"/></symbol><use xlink:href="#shortcut-filled" y="1056" width="24" height="24"/><view id="shortcut-filled-view" viewBox="0 1056 24 24"/><symbol id="shortcut" viewBox="0 0 24 24"><path fill="none" stroke="currentColor" stroke-width="2" stroke-linecap="round" stroke-linejoin="round" d="m12 2 3.09 6.26L22 9.27l-5 4.87 1.18 6.88L12 17.77l-6.18 3.25L7 14.14 2 9.27l6.91-1.01L12 2z"/></symbol><use xlink:href="#shortcut" y="1080" width="24" height="24"/><view id="shortcut-view" viewBox="0 1080 24 24"/><symbol id="user" viewBox="0 0 24 24"><path fill="none" clip-rule="evenodd" d="M12 13a4 4 0 1 0 0-8 4 4 0 0 0 0 8Z" stroke="#000" stroke-width="2" stroke-linecap="round" stroke-linejoin="round"/><path fill="none" d="M5.25 20v-.667C5.25 17 9.314 16 12.25 16s7 1 7 3.333V20" stroke="#000" stroke-width="2" stroke-linecap="round" stroke-linejoin="round"/><path fill="none" d="M23 12c0 6.075-4.925 11-11 11S1 18.075 1 12 5.925 1 12 1s11 4.925 11 11Z" stroke="#000" stroke-width="2" stroke-linecap="round" stroke-linejoin="round"/></symbol><use xlink:href="#user" y="1104" width="24" height="24"/><view id="user-view" viewBox="0 1104 24 24"/><symbol id="appearance" viewBox="0 0 24 24"><path fill="none" d="M9 7.75h10m0-3.673v-2.02c0-.445-.448-.807-1-.807H6c-.552 0-1 .362-1 .808v8.077c.004 2.175 1.562 4.153 4 5.077v4.615c0 1.338 1.343 2.423 3 2.423s3-1.085 3-2.423v-4.615c2.438-.924 3.997-2.902 4-5.077V7.75" stroke="currentColor" stroke-width="2.25" stroke-linecap="round" stroke-linejoin="round"/></symbol><use xlink:href="#appearance" y="1128" width="24" height="24"/><view id="appearance-view" viewBox="0 1128 24 24"/><symbol id="bat" viewBox="0 0 24 24"><g fill="none" stroke="currentColor" stroke-width="2.25" stroke-linecap="round" stroke-linejoin="round"><rect x="3" y="4" width="18" height="18" rx="2" ry="2"/><path d="M16 2v4M8 2v4m-5 4h18"/></g></symbol><use xlink:href="#bat" y="1152" width="24" height="24"/><view id="bat-view" viewBox="0 1152 24 24"/><symbol id="commerce" viewBox="0 0 24 24"><circle fill="none" stroke="currentColor" stroke-width="2.25" stroke-linecap="round" stroke-linejoin="round" cx="9" cy="21" r="1"/><circle fill="none" stroke="currentColor" stroke-width="2.25" stroke-linecap="round" stroke-linejoin="round" cx="20" cy="21" r="1"/><path fill="none" stroke="currentColor" stroke-width="2.25" stroke-linecap="round" stroke-linejoin="round" d="M1 1h4l2.68 13.39a2 2 0 0 0 2 1.61h9.72a2 2 0 0 0 2-1.61L23 6H6"/></symbol><use xlink:href="#commerce" y="1176" width="24" height="24"/><view id="commerce-view" viewBox="0 1176 24 24"/><symbol id="config" viewBox="0 0 24 24"><circle fill="none" stroke="currentColor" stroke-width="2.25" stroke-linecap="round" stroke-linejoin="round" cx="12" cy="12" r="3"/><path fill="none" stroke="currentColor" stroke-width="2.25" stroke-linecap="round" stroke-linejoin="round" d="M19.4 15a1.65 1.65 0 0 0 .33 1.82l.06.06a2 2 0 0 1 0 2.83 2 2 0 0 1-2.83 0l-.06-.06a1.65 1.65 0 0 0-1.82-.33 1.65 1.65 0 0 0-1 1.51V21a2 2 0 0 1-2 2 2 2 0 0 1-2-2v-.09A1.65 1.65 0 0 0 9 19.4a1.65 1.65 0 0 0-1.82.33l-.06.06a2 2 0 0 1-2.83 0 2 2 0 0 1 0-2.83l.06-.06a1.65 1.65 0 0 0 .33-1.82 1.65 1.65 0 0 0-1.51-1H3a2 2 0 0 1-2-2 2 2 0 0 1 2-2h.09A1.65 1.65 0 0 0 4.6 9a1.65 1.65 0 0 0-.33-1.82l-.06-.06a2 2 0 0 1 0-2.83 2 2 0 0 1 2.83 0l.06.06a1.65 1.65 0 0 0 1.82.33H9a1.65 1.65 0 0 0 1-1.51V3a2 2 0 0 1 2-2 2 2 0 0 1 2 2v.09a1.65 1.65 0 0 0 1 1.51 1.65 1.65 0 0 0 1.82-.33l.06-.06a2 2 0 0 1 2.83 0 2 2 0 0 1 0 2.83l-.06.06a1.65 1.65 0 0 0-.33 1.82V9a1.65 1.65 0 0 0 1.51 1H21a2 2 0 0 1 2 2 2 2 0 0 1-2 2h-.09a1.65 1.65 0 0 0-1.51 1z"/></symbol><use xlink:href="#config" y="1200" width="24" height="24"/><view id="config-view" viewBox="0 1200 24 24"/><symbol id="content" viewBox="0 0 24 24"><path d="M3.667 23h16.666C21.444 23 22 22.436 22 21.308V2.692C22 1.758 21.254 1 20.333 1H3.667C2.747 1 2 1.758 2 2.692v18.616C2 22.242 2.746 23 3.667 23ZM7 17h5m-5-5h10M7 7h10" fill="none" stroke="currentColor" stroke-width="2.25" stroke-linecap="round" stroke-linejoin="round"/></symbol><use xlink:href="#content" y="1224" width="24" height="24"/><view id="content-view" viewBox="0 1224 24 24"/><symbol id="edit" viewBox="0 0 24 24"><path fill="none" stroke="currentColor" stroke-width="2.25" stroke-linecap="round" stroke-linejoin="round" d="M17 3a2.828 2.828 0 1 1 4 4L7.5 20.5 2 22l1.5-5.5L17 3z"/></symbol><use xlink:href="#edit" y="1248" width="24" height="24"/><view id="edit-view" viewBox="0 1248 24 24"/><symbol id="extend" viewBox="0 0 24 24"><path fill="none" d="m19.765 22.719-8.151-.002H3.462a1.46 1.46 0 0 1-1.46-1.46v-3.913c1.526.621 3.278 1.157 4.278-.152 1-1.308 1-3.124 0-4.432-1-1.309-2.752-.772-4.277-.151L2 9.693c0-.807.654-2.46 1.46-2.46h5.654C7.688 5.806 6.606 4.495 8.032 3.069c1.426-1.425 5.737-1.425 7.163 0 1.425 1.426.412 2.737-1.014 4.163h5.585c.806 0 1.46 1.653 1.46 2.459l-.004 2.916c-1.525-.62-3.277-1.157-4.277.152a3.65 3.65 0 0 0 0 4.433c1 1.308 2.751.772 4.276.15l.004 3.917a1.46 1.46 0 0 1-1.46 1.46Z" stroke="#000" stroke-width="2.25" stroke-linecap="round" stroke-linejoin="round"/></symbol><use xlink:href="#extend" y="1272" width="24" height="24"/><view id="extend-view" viewBox="0 1272 24 24"/><symbol id="fallback" viewBox="0 0 24 24"><rect fill="none" stroke="currentColor" stroke-width="2.25" stroke-linecap="round" x="3" y="3" width="18" height="18" rx="2" ry="2"/></symbol><use xlink:href="#fallback" y="1296" width="24" height="24"/><view id="fallback-view" viewBox="0 1296 24 24"/><symbol id="group" viewBox="0 0 24 24"><path fill="none" d="M4 19.5A2.5 2.5 0 0 1 6.5 17H20M4 14.5A2.5 2.5 0 0 1 6.5 12H20" stroke="#000" stroke-width="2.25" stroke-linecap="round" stroke-linejoin="round"/><path fill="none" d="M6.5 2H20v20H6.5A2.5 2.5 0 0 1 4 19.5v-15A2.5 2.5 0 0 1 6.5 2v0Z" stroke="#000" stroke-width="2.25" stroke-linecap="round" stroke-linejoin="round"/></symbol><use xlink:href="#group" y="1320" width="24" height="24"/><view id="group-view" viewBox="0 1320 24 24"/><symbol id="hamburger" viewBox="0 0 24 24"><path fill="none" stroke="currentColor" stroke-width="2.25" stroke-linecap="round" stroke-linejoin="round" d="M3 12h18M3 6h18M3 18h18"/></symbol><use xlink:href="#hamburger" y="1344" width="24" height="24"/><view id="hamburger-view" viewBox="0 1344 24 24"/><symbol id="help" viewBox="0 0 24 24"><path fill="none" d="M23 12c0 6.075-4.925 11-11 11S1 18.075 1 12 5.925 1 12 1s11 4.925 11 11Z" stroke="#000" stroke-width="2.25" stroke-linecap="round" stroke-linejoin="round"/><path fill="none" d="M9.09 8a3 3 0 0 1 5.83 1c0 2-3 3-3 3" stroke="#000" stroke-width="2.25" stroke-linecap="round" stroke-linejoin="round"/><path fill="none" d="M12 17h.01" stroke="#000" stroke-width="3" stroke-linecap="round" stroke-linejoin="round"/></symbol><use xlink:href="#help" y="1368" width="24" height="24"/><view id="help-view" viewBox="0 1368 24 24"/><symbol id="nav-toggle-toleft" viewBox="0 0 24 24"><path fill="none" stroke="currentColor" stroke-width="2.25" stroke-linecap="round" stroke-linejoin="round" d="M19 12H5m7 7-7-7 7-7"/></symbol><use xlink:href="#nav-toggle-toleft" y="1392" width="24" height="24"/><view id="nav-toggle-toleft-view" viewBox="0 1392 24 24"/><symbol id="nav-toggle-totop" viewBox="0 0 24 24"><path fill="none" stroke="currentColor" stroke-width="2.25" stroke-linecap="round" stroke-linejoin="round" d="M12 19V5m-7 7 7-7 7 7"/></symbol><use xlink:href="#nav-toggle-totop" y="1416" width="24" height="24"/><view id="nav-toggle-totop-view" viewBox="0 1416 24 24"/><symbol id="people" viewBox="0 0 24 24"><path fill="none" clip-rule="evenodd" d="M12 12.5a5.5 5.5 0 1 0 0-11 5.5 5.5 0 0 0 0 11Z" stroke="#000" stroke-width="2.25" stroke-linecap="round" stroke-linejoin="round"/><path fill="none" d="M1.5 22v-1c0-3.5 6.096-5 10.5-5s10.5 1.5 10.5 5v1m0 0s-6.395.5-10.5.5S1.5 22 1.5 22" stroke="#000" stroke-width="2.25" stroke-linecap="round" stroke-linejoin="round"/></symbol><use xlink:href="#people" y="1440" width="24" height="24"/><view id="people-view" viewBox="0 1440 24 24"/><symbol id="reports" viewBox="0 0 24 24"><path fill="none" d="M5.75 14.5v6.991c.001.268-.199.518-.532.667-1.04.462-2.395.462-3.436 0-.333-.149-.533-.4-.532-.667V14.5m4.5 0c0-.828-1.007-1.5-2.25-1.5s-2.25.672-2.25 1.5m13-11.5v17.985a1.2 1.2 0 0 1-.532 1 3.1 3.1 0 0 1-3.436 0 1.2 1.2 0 0 1-.532-1V3m4.5 0c0-.828-1.007-1.5-2.25-1.5S9.75 2.172 9.75 3m13 4.5V9m-4.5-1.5v13.557c-.001.383.199.74.532.953a3.23 3.23 0 0 0 3.436 0 1.13 1.13 0 0 0 .532-.953V12.5m0-5c0-.828-1.007-1.5-2.25-1.5s-2.25.672-2.25 1.5" stroke="#000" stroke-width="2.25" stroke-linecap="round" stroke-linejoin="round"/></symbol><use xlink:href="#reports" y="1464" width="24" height="24"/><view id="reports-view" viewBox="0 1464 24 24"/><symbol id="structure" viewBox="0 0 24 24"><path fill="none" d="M12.928 1.486a2 2 0 0 0-1.856 0L1.5 6.5l9.572 5.014a2 2 0 0 0 1.856 0L22.5 6.5l-9.572-5.014ZM1.5 12l9.572 5.014a2 2 0 0 0 1.856 0L22.5 12m-21 5.5 9.572 5.014a2 2 0 0 0 1.856 0L22.5 17.5" stroke="#000" stroke-width="2.25" stroke-linecap="round" stroke-linejoin="round"/></symbol><use xlink:href="#structure" y="1488" width="24" height="24"/><view id="structure-view" viewBox="0 1488 24 24"/><symbol id="tmgmt" viewBox="0 0 24 24"><circle fill="none" stroke="currentColor" stroke-width="2.25" stroke-linecap="round" stroke-linejoin="round" cx="12" cy="12" r="10"/><path fill="none" stroke="currentColor" stroke-width="2.25" stroke-linecap="round" stroke-linejoin="round" d="M2 12h20M12 2a15.3 15.3 0 0 1 4 10 15.3 15.3 0 0 1-4 10 15.3 15.3 0 0 1-4-10 15.3 15.3 0 0 1 4-10z"/></symbol><use xlink:href="#tmgmt" y="1512" width="24" height="24"/><view id="tmgmt-view" viewBox="0 1512 24 24"/><symbol id="webform" viewBox="0 0 24 24"><path d="M12 16a4 4 0 1 0 0-8 4 4 0 0 0 0 8Z" stroke="currentColor" stroke-width="2.25" stroke-linecap="round" stroke-linejoin="round" fill="none"/><path d="M16 8v5a3 3 0 0 0 6 0v-1a10 10 0 1 0-3.92 7.94" stroke="currentColor" stroke-width="2.25" stroke-linecap="round" stroke-linejoin="round" fill="none"/></symbol><use xlink:href="#webform" y="1536" width="24" height="24"/><view id="webform-view" viewBox="0 1536 24 24"/></svg>