<?xml version="1.0" standalone="no"?>
<!DOCTYPE svg PUBLIC "-//W3C//DTD SVG 20010904//EN"
 "http://www.w3.org/TR/2001/REC-SVG-20010904/DTD/svg10.dtd">
<svg version="1.0" xmlns="http://www.w3.org/2000/svg"
 width="700.000000pt" height="700.000000pt" viewBox="0 0 700.000000 700.000000"
 preserveAspectRatio="xMidYMid meet">
<metadata>
Created by potrace 1.11, written by Peter Selinger 2001-2013
</metadata>
<g transform="translate(0.000000,700.000000) scale(0.100000,-0.100000)"
fill="#000000" stroke="none">
<path d="M3412 6805 c-304 -66 -549 -379 -661 -847 l-18 -77 81 -65 c45 -36
102 -84 127 -108 78 -73 132 -119 136 -115 2 2 6 24 9 48 53 419 178 689 359
775 110 53 192 17 322 -139 69 -82 159 -317 179 -466 3 -25 8 -48 9 -51 5 -8
18 -122 17 -143 -1 -15 2 -15 27 5 16 13 85 69 155 125 69 57 137 110 150 118
22 15 23 17 10 55 -7 21 -16 52 -18 67 -6 29 -45 161 -67 223 -42 120 -162
312 -252 404 -158 162 -369 232 -565 191z"/>
<path d="M1706 5799 c-257 -42 -440 -230 -483 -494 -8 -47 -8 -184 -1 -230 4
-27 10 -63 12 -80 10 -59 58 -211 93 -295 126 -297 384 -618 616 -764 32 -21
97 -57 145 -80 79 -39 121 -55 262 -101 57 -18 210 -52 275 -60 28 -4 77 -10
110 -15 66 -9 409 -7 465 3 19 3 54 7 77 8 l41 3 8 90 c10 117 11 343 3 426
-17 162 -19 187 -24 210 -3 14 -8 41 -11 60 -23 133 -85 328 -142 445 -31 64
-95 176 -114 200 -5 6 -22 28 -39 50 -88 115 -256 265 -418 375 -156 105 -396
209 -556 240 -76 15 -255 20 -319 9z m341 -407 c210 -71 392 -189 578 -376 39
-39 88 -96 109 -126 66 -92 156 -302 182 -421 26 -125 42 -235 49 -356 l5 -82
-92 4 c-51 3 -102 7 -113 9 -11 2 -45 7 -75 10 -162 20 -408 104 -525 178
-153 97 -276 227 -404 423 -187 286 -239 609 -117 725 65 60 243 65 403 12z"/>
<path d="M5140 5789 c-411 -40 -947 -393 -1177 -774 -60 -100 -158 -341 -177
-435 -3 -14 -12 -56 -20 -95 -32 -151 -41 -264 -41 -480 1 -218 6 -293 20
-305 27 -21 449 -34 596 -18 319 36 607 137 819 286 128 90 320 296 431 462
166 249 256 496 263 726 6 206 -51 357 -182 481 -46 44 -93 72 -203 124 -56
26 -212 39 -329 28z m188 -359 c105 -28 146 -90 146 -220 1 -99 -4 -130 -38
-245 -73 -248 -347 -599 -571 -731 -81 -48 -272 -124 -351 -139 -137 -26 -213
-36 -294 -41 -52 -3 -104 -7 -114 -9 -18 -4 -19 2 -13 113 4 64 8 126 11 137
2 11 7 43 10 70 25 184 113 411 211 544 110 149 322 323 518 425 184 96 359
131 485 96z"/>
<path d="M1020 4250 c-394 -106 -666 -301 -767 -551 -31 -76 -38 -118 -38
-224 -1 -340 312 -628 820 -756 44 -11 87 -22 96 -25 12 -3 31 16 65 63 43 61
118 153 196 238 31 33 34 45 16 46 -142 10 -328 50 -454 99 -158 60 -303 172
-345 263 -70 154 72 324 366 438 17 7 35 13 41 14 6 2 38 11 70 20 66 19 75
21 159 35 87 14 117 18 148 19 34 1 34 8 -4 51 -17 19 -79 95 -137 168 -58 72
-110 132 -116 131 -6 0 -58 -13 -116 -29z"/>
<path d="M5852 4188 c-37 -51 -75 -100 -83 -108 -43 -45 -122 -141 -118 -144
2 -3 29 -7 59 -10 30 -3 64 -8 75 -10 11 -2 40 -7 65 -11 337 -52 630 -247
630 -417 0 -111 -111 -230 -295 -318 -77 -37 -220 -84 -289 -95 -17 -3 -56
-10 -86 -15 -70 -13 -109 -18 -137 -19 -30 -1 -29 -10 5 -46 16 -16 74 -88
131 -160 57 -71 106 -133 110 -138 13 -13 237 50 368 104 103 43 157 72 243
133 200 142 311 316 326 509 28 356 -272 660 -791 802 -71 19 -132 35 -136 35
-5 0 -39 -42 -77 -92z"/>
<path d="M2835 3299 c-144 -11 -196 -18 -280 -34 -44 -9 -91 -18 -105 -21 -14
-2 -63 -16 -110 -30 -262 -79 -441 -184 -621 -366 -374 -375 -575 -858 -505
-1209 47 -230 203 -397 426 -456 77 -20 267 -22 350 -5 30 7 64 14 75 16 59
11 214 69 295 110 99 50 246 141 309 191 251 202 371 341 475 551 66 133 129
327 151 464 3 19 8 42 10 50 5 17 13 94 24 220 12 148 1 475 -17 491 -6 6 -35
10 -204 24 -108 10 -180 11 -273 4z m130 -468 c-14 -244 -59 -436 -141 -608
-62 -130 -95 -176 -204 -283 -189 -187 -397 -320 -593 -380 -82 -25 -111 -30
-182 -31 -69 -1 -101 6 -167 33 -61 26 -89 80 -96 183 -14 230 147 558 405
826 93 97 157 143 273 200 106 52 281 105 405 123 23 4 50 8 60 10 11 2 63 7
115 10 52 4 96 9 98 11 2 2 10 1 18 -2 12 -4 14 -23 9 -92z"/>
<path d="M3930 3287 c-3 -3 -35 -9 -70 -12 -79 -8 -111 -13 -116 -18 -11 -11
-21 -150 -21 -310 -1 -189 19 -396 52 -532 9 -38 18 -77 20 -85 1 -8 18 -60
36 -115 110 -332 307 -579 643 -805 160 -107 409 -218 531 -235 22 -4 54 -10
70 -14 53 -14 249 -11 316 5 259 61 433 278 443 553 11 312 -116 641 -369 956
-96 120 -235 259 -320 320 -182 130 -481 240 -730 270 -27 4 -61 9 -75 11 -39
8 -404 17 -410 11z m390 -362 c14 -3 45 -8 70 -11 25 -3 63 -10 85 -16 22 -5
49 -12 60 -14 131 -25 350 -127 455 -213 166 -134 364 -408 432 -598 43 -124
53 -175 53 -288 0 -120 -27 -177 -100 -215 -87 -44 -253 -35 -408 24 -179 67
-340 173 -508 334 -148 142 -242 303 -302 522 -26 92 -31 117 -43 190 -3 19
-7 46 -10 60 -2 14 -7 74 -10 133 l-7 109 104 -6 c57 -3 115 -8 129 -11z"/>
<path d="M3040 1338 c-19 -16 -96 -79 -172 -140 l-136 -109 29 -111 c116 -443
331 -721 620 -803 247 -70 499 39 694 300 89 118 183 341 231 544 16 72 16 75
-2 88 -51 37 -234 183 -272 218 -43 39 -59 47 -59 32 0 -15 -13 -119 -17 -143
-2 -11 -7 -39 -11 -64 -52 -325 -237 -603 -410 -616 -127 -10 -287 168 -370
410 -34 102 -34 98 -57 246 -11 69 -23 137 -26 152 l-7 26 -35 -30z"/>
</g>
</svg>
