<svg xmlns="http://www.w3.org/2000/svg" xmlns:xlink="http://www.w3.org/1999/xlink" class="hide"><defs><clipPath id="a"><path fill="#fff" d="M0 0h24v24H0z"/></clipPath><clipPath id="a"><path fill="#fff" transform="translate(.5)" d="M0 0h16v16H0z"/></clipPath><clipPath id="a"><path fill="#fff" transform="translate(.5)" d="M0 0h12v12H0z"/></clipPath><clipPath id="a"><path fill="#fff" d="M0 0h24v24H0z"/></clipPath><path d="M0 0h24v24H0z" id="a"/></defs><symbol id="arrow-back" viewBox="0 0 24 24"><path d="M20 11H7.83l5.59-5.59L12 4l-8 8 8 8 1.41-1.41L7.83 13H20v-2z"/></symbol><symbol id="arrow-forward" viewBox="0 0 24 24"><path d="M12 4l-1.41 1.41L16.17 11H4v2h12.17l-5.58 5.59L12 20l8-8z"/></symbol><symbol id="icon-account_circle" viewBox="0 0 24 24"><path d="M12 2C6.48 2 2 6.48 2 12s4.48 10 10 10 10-4.48 10-10S17.52 2 12 2zm0 3c1.66 0 3 1.34 3 3s-1.34 3-3 3-3-1.34-3-3 1.34-3 3-3zm0 14.2a7.2 7.2 0 0 1-6-3.22c.03-1.99 4-3.08 6-3.08 1.99 0 5.97 1.09 6 3.08a7.2 7.2 0 0 1-6 3.22z"/></symbol><symbol id="icon-action" viewBox="0 0 18 4"><path d="M4 2a2 2 0 1 1-4 0 2 2 0 0 1 4 0zM11 2a2 2 0 1 1-4 0 2 2 0 0 1 4 0zM16 4a2 2 0 1 0 0-4 2 2 0 0 0 0 4z" fill="#777"/></symbol><symbol id="icon-add_box" viewBox="0 0 24 24"><path d="M19 3H5a2 2 0 0 0-2 2v14a2 2 0 0 0 2 2h14c1.1 0 2-.9 2-2V5c0-1.1-.9-2-2-2zm-2 10h-4v4h-2v-4H7v-2h4V7h2v4h4v2z"/></symbol><symbol id="icon-album" viewBox="0 0 96 96"><path d="M88 64V16c0-4.4-3.6-8-8-8H32c-4.4 0-8 3.6-8 8v48c0 4.4 3.6 8 8 8h48c4.4 0 8-3.6 8-8zM44 48l8.12 10.84L64 44l16 20H32l12-16zM8 24v56c0 4.4 3.6 8 8 8h56v-8H16V24H8z"/></symbol><symbol id="icon-arrow_drop_down" viewBox="0 0 24 24"><path d="M7 10l5 5 5-5z"/></symbol><symbol id="icon-arrow_drop_up" viewBox="0 0 24 24"><path d="M7 14l5-5 5 5z"/></symbol><symbol id="icon-arrow_right" viewBox="0 0 16 16"><path d="M11.677 7.25L9.643 5.223a.485.485 0 0 1 0-.688l.394-.393c.19-.19.5-.19.69 0l2.846 2.837c.57.567.57 1.475 0 2.042l-2.846 2.837a.49.49 0 0 1-.69 0l-.394-.393a.485.485 0 0 1 0-.688l2.034-2.027H2.5a.5.5 0 0 1-.5-.5v-.5a.5.5 0 0 1 .5-.5h9.177z"/></symbol><symbol id="icon-attachment" viewBox="0 0 21 21"><path d="M1.75 10.938a4.81 4.81 0 0 1 4.813-4.813h9.187c1.934 0 3.5 1.566 3.5 3.5s-1.566 3.5-3.5 3.5H8.312a2.188 2.188 0 0 1 0-4.375h6.563v1.75H8.234c-.481 0-.481.875 0 .875h7.516c.962 0 1.75-.787 1.75-1.75s-.788-1.75-1.75-1.75H6.562A3.066 3.066 0 0 0 3.5 10.938 3.066 3.066 0 0 0 6.563 14h8.312v1.75H6.562a4.81 4.81 0 0 1-4.812-4.813z" fill="#4D4D4D"/></symbol><symbol id="icon-autorenew" viewBox="0 0 24 24"><path d="M12 6v3l4-4-4-4v3c-4.42 0-8 3.58-8 8 0 1.57.46 3.03 1.24 4.26L6.7 14.8A5.87 5.87 0 0 1 6 12c0-3.31 2.69-6 6-6zm6.76 1.74L17.3 9.2c.44.84.7 1.79.7 2.8 0 3.31-2.69 6-6 6v-3l-4 4 4 4v-3c4.42 0 8-3.58 8-8 0-1.57-.46-3.03-1.24-4.26z"/></symbol><symbol id="icon-bar_chart" viewBox="0 0 24 24"><path d="M3 8.4h3.857V21H3V8.4zM10.2 3h3.6v18h-3.6V3zm7.2 10.286H21V21h-3.6v-7.714z" fill="#4D4D4D"/></symbol><symbol id="icon-blog" viewBox="0 0 24 24"><path d="M20 2H4c-1.1 0-2 .9-2 2v12c0 1.1.9 2 2 2h14l4 4V4c0-1.1-.9-2-2-2zm-2 12H6v-2h12v2zm0-3H6V9h12v2zm0-3H6V6h12v2z"/></symbol><symbol id="icon-book" viewBox="0 0 24 24"><path d="M18 2H6c-1.1 0-2 .9-2 2v16c0 1.1.9 2 2 2h12c1.1 0 2-.9 2-2V4c0-1.1-.9-2-2-2zM6 4h5v8l-2.5-1.5L6 12V4z"/></symbol><symbol id="icon-business_center" viewBox="0 0 24 24"><path d="M10 16v-1H3.01L3 19c0 1.11.89 2 2 2h14c1.11 0 2-.89 2-2v-4h-7v1h-4zm10-9h-4.01V5l-2-2h-4l-2 2v2H4c-1.1 0-2 .9-2 2v3c0 1.11.89 2 2 2h6v-2h4v2h6c1.1 0 2-.9 2-2V9c0-1.1-.9-2-2-2zm-6 0h-4V5h4v2z"/></symbol><symbol id="icon-challenge" viewBox="0 0 24 24"><path d="M12.708 10.333A4.992 4.992 0 0 0 8 7c-2.758 0-5 2.242-5 5s2.242 5 5 5a4.992 4.992 0 0 0 4.708-3.333h3.625V17h3.334v-3.333h1.666v-3.334h-8.625zM8 13.667c-.917 0-1.667-.75-1.667-1.667s.75-1.667 1.667-1.667 1.667.75 1.667 1.667-.75 1.667-1.667 1.667z" fill="#4A4A4A"/></symbol><symbol id="icon-close" viewBox="0 0 24 24"><path d="M19 6.41L17.59 5 12 10.59 6.41 5 5 6.41 10.59 12 5 17.59 6.41 19 12 13.41 17.59 19 19 17.59 13.41 12z"/></symbol><symbol id="icon-close_white" viewBox="0 0 24 24"><path d="M19 6.41L17.59 5 12 10.59 6.41 5 5 6.41 10.59 12 5 17.59 6.41 19 12 13.41 17.59 19 19 17.59 13.41 12z"/></symbol><symbol id="icon-cog" viewBox="0 0 16 16"><path d="M15.426 9.249a7.29 7.29 0 0 0 .076-.998c0-.36-.035-.71-.086-1.056l-2.275-.293a5.039 5.039 0 0 0-.498-1.201l1.396-1.808a7.3 7.3 0 0 0-1.459-1.452l-1.807 1.391a5.058 5.058 0 0 0-1.2-.499l-.292-2.252C8.943 1.033 8.604 1 8.252 1s-.694.033-1.032.082l-.291 2.251a5.076 5.076 0 0 0-1.2.499L3.924 2.441a7.3 7.3 0 0 0-1.459 1.452L3.86 5.701a5.076 5.076 0 0 0-.499 1.2l-2.276.294A7.35 7.35 0 0 0 1 8.251c0 .34.031.671.077.998l2.285.295c.115.426.284.826.499 1.2L2.444 12.58c.411.55.896 1.038 1.443 1.452l1.842-1.42c.374.215.774.383 1.2.498l.298 2.311c.337.047.677.08 1.025.08s.688-.033 1.021-.08l.299-2.311a5.056 5.056 0 0 0 1.201-.498l1.842 1.42a7.326 7.326 0 0 0 1.443-1.452l-1.416-1.837c.215-.373.383-.773.498-1.199zm-7.174 1.514a2.54 2.54 0 1 1 0-5.082 2.542 2.542 0 0 1 0 5.082z"/></symbol><symbol id="icon-coin" viewBox="0 0 24 24"><g clip-path="url(#a)"><path d="M9 4c0-2.209 3.358-4 7.5-4C20.642 0 24 1.791 24 4s-3.358 4-7.5 4C12.358 8 9 6.209 9 4zm7.5 6c-1.027 0-2.001-.115-2.891-.315C12.25 8.666 10.023 8 7.5 8 3.358 8 0 9.791 0 12s3.358 4 7.5 4c4.142 0 7.5-1.791 7.5-4 0-.029-.007-.057-.008-.086H15V14c0 2.209-3.358 4-7.5 4C3.358 18 0 16.209 0 14v2c0 2.209 3.358 4 7.5 4 4.142 0 7.5-1.791 7.5-4v2c0 2.209-3.358 4-7.5 4C3.358 22 0 20.209 0 18v2c0 2.209 3.358 4 7.5 4 4.142 0 7.5-1.791 7.5-4v-.08c.485.052.986.08 1.5.08 4.142 0 7.5-1.791 7.5-4v-2c0 2.119-3.092 3.849-7 3.987v-2c3.908-.138 7-1.867 7-3.987v-2c0 2.119-3.092 3.849-7 3.987v-2c3.908-.138 7-1.867 7-3.987V6c0 2.209-3.358 4-7.5 4z"/></g></symbol><symbol id="icon-comment" viewBox="0 0 24 24"><path d="M21.99 4c0-1.1-.89-2-1.99-2H4c-1.1 0-2 .9-2 2v12c0 1.1.9 2 2 2h14l4 4-.01-18z"/></symbol><symbol id="icon-comment_thicker" viewBox="0 0 24 24"><path d="M22.974 24l-5.85-5.85H4.344A3.35 3.35 0 0 1 1 14.807V3.344A3.35 3.35 0 0 1 4.344 0h15.284a3.34 3.34 0 0 1 3.334 3.343L22.974 24zM20.096 3.344a.475.475 0 0 0-.468-.478H4.344a.483.483 0 0 0-.478.478v11.463c0 .26.218.478.478.478H18.31l1.793 1.792-.008-13.733z"/></symbol><symbol id="icon-community" viewBox="0 0 24 24"><path d="M16 11c1.66 0 2.99-1.34 2.99-3S17.66 5 16 5c-1.66 0-3 1.34-3 3s1.34 3 3 3zm-8 0c1.66 0 2.99-1.34 2.99-3S9.66 5 8 5C6.34 5 5 6.34 5 8s1.34 3 3 3zm0 2c-2.33 0-7 1.17-7 3.5V19h14v-2.5c0-2.33-4.67-3.5-7-3.5zm8 0c-.29 0-.62.02-.97.05 1.16.84 1.97 1.97 1.97 3.45V19h6v-2.5c0-2.33-4.67-3.5-7-3.5z"/></symbol><symbol id="icon-course" viewBox="0 0 24 24"><path d="M5 13.18v4L12 21l7-3.82v-4L12 17l-7-3.82zM12 3L1 9l11 6 9-4.91V17h2V9L12 3z" fill="343434"/></symbol><symbol id="icon-dashboard" viewBox="0 0 24 24"><path d="M3 13h8V3H3v10zm0 8h8v-6H3v6zm10 0h8V11h-8v10zm0-18v6h8V3h-8z"/></symbol><symbol id="icon-delete" viewBox="0 0 24 24"><path d="M6 19c0 1.1.9 2 2 2h8c1.1 0 2-.9 2-2V7H6v12zM19 4h-3.5l-1-1h-5l-1 1H5v2h14V4z"/></symbol><symbol id="icon-desktop" viewBox="0 0 24 24"><path d="M20 18c1.1 0 1.99-.9 1.99-2L22 5c0-1.1-.9-2-2-2H4c-1.1 0-2 .9-2 2v11c0 1.1.9 2 2 2H0c0 1.1.9 2 2 2h20c1.1 0 2-.9 2-2h-4zM4 5h16v11H4V5zm8 14c-.55 0-1-.45-1-1s.45-1 1-1 1 .45 1 1-.45 1-1 1z"/></symbol><symbol id="icon-discussion" viewBox="0 0 24 24"><path d="M21 6h-2v9H6v2c0 .55.45 1 1 1h11l4 4V7c0-.55-.45-1-1-1zm-4 6V3c0-.55-.45-1-1-1H3c-.55 0-1 .45-1 1v14l4-4h10c.55 0 1-.45 1-1z"/></symbol><symbol id="icon-download" viewBox="0 0 14 15"><path d="M7.8 11.435a2.036 2.036 0 0 1-1.562 0 2.034 2.034 0 0 1-.663-.443L3.29 8.706 4.527 7.47 6.139 9.08 6.125.5h1.75l.014 8.592 1.623-1.623 1.237 1.237-2.286 2.286c-.19.19-.415.34-.662.443z"/><path d="M12.25 12.75V9.833H14v2.917a1.75 1.75 0 0 1-1.75 1.75H1.75A1.75 1.75 0 0 1 0 12.75V9.833h1.75v2.917h10.5z"/></symbol><symbol id="icon-duplicate" viewBox="0 0 24 24"><path d="M16 1H4c-1.1 0-2 .9-2 2v14h2V3h12V1zm3 4H8c-1.1 0-2 .9-2 2v14c0 1.1.9 2 2 2h11c1.1 0 2-.9 2-2V7c0-1.1-.9-2-2-2zm0 16H8V7h11v14z"/></symbol><symbol id="icon-edit" viewBox="0 0 24 24"><path d="M3 17.25V21h3.75L17.81 9.94l-3.75-3.75L3 17.25zM20.71 7.04a.996.996 0 0 0 0-1.41l-2.34-2.34a.996.996 0 0 0-1.41 0l-1.83 1.83 3.75 3.75 1.83-1.83z"/></symbol><symbol id="icon-email" viewBox="0 0 24 24"><path d="M12 2C6.48 2 2 6.48 2 12s4.48 10 10 10h5v-2h-5c-4.34 0-8-3.66-8-8s3.66-8 8-8 8 3.66 8 8v1.43c0 .79-.71 1.57-1.5 1.57s-1.5-.78-1.5-1.57V12c0-2.76-2.24-5-5-5s-5 2.24-5 5 2.24 5 5 5c1.38 0 2.64-.56 3.54-1.47.65.89 1.77 1.47 2.96 1.47 1.97 0 3.5-1.6 3.5-3.57V12c0-5.52-4.48-10-10-10zm0 13c-1.66 0-3-1.34-3-3s1.34-3 3-3 3 1.34 3 3-1.34 3-3 3z"/></symbol><symbol id="icon-event" viewBox="0 0 24 24"><path d="M17 12h-5v5h5v-5zM16 1v2H8V1H6v2H5c-1.11 0-1.99.9-1.99 2L3 19a2 2 0 0 0 2 2h14c1.1 0 2-.9 2-2V5c0-1.1-.9-2-2-2h-1V1h-2zm3 18H5V8h14v11z"/></symbol><symbol id="icon-expand-less" viewBox="0 0 24 24"><path d="M12 8l-6 6 1.41 1.41L12 10.83l4.59 4.58L18 14z"/></symbol><symbol id="icon-expand_more" viewBox="0 0 24 24"><path d="M16.59 8.59L12 13.17 7.41 8.59 6 10l6 6 6-6z"/></symbol><symbol id="icon-faq" viewBox="0 0 14 14"><path d="M7 .333A6.67 6.67 0 0 0 .333 7 6.669 6.669 0 0 0 7 13.666 6.669 6.669 0 0 0 13.666 7 6.669 6.669 0 0 0 7 .333zm.666 11.333H6.333v-1.333h1.333v1.333zM9.046 6.5l-.6.613C7.966 7.6 7.666 8 7.666 9H6.333v-.334c0-.733.3-1.4.78-1.886l.827-.84c.246-.24.393-.574.393-.94 0-.734-.6-1.334-1.333-1.334-.734 0-1.334.6-1.334 1.334H4.333a2.666 2.666 0 1 1 5.333 0c0 .586-.24 1.12-.62 1.5z" fill="#4D4D4D"/></symbol><symbol id="icon-favorite" viewBox="0 0 20 20"><path d="M15 16l-5-5.317L5 16V5.49c0-.396.15-.775.418-1.054A1.4 1.4 0 0 1 6.428 4h7.143a1.4 1.4 0 0 1 1.01.436c.269.28.419.658.419 1.053V16zm-5-7.444l3.571 3.797V5.49H6.43v6.864L10 8.556z" fill="#4D4D4D"/></symbol><symbol id="icon-favorite_fill" viewBox="0 0 20 20"><path d="M15 16l-5-5.317L5 16V5.49c0-.396.15-.775.418-1.054A1.4 1.4 0 0 1 6.428 4h7.143a1.4 1.4 0 0 1 1.01.436c.269.28.419.658.419 1.053V16z" fill="#4D4D4D"/></symbol><symbol id="icon-file" viewBox="0 0 16 18"><path d="M11.75 3.696V.388l3.412 3.925h-2.787a.63.63 0 0 1-.442-.18.611.611 0 0 1-.183-.437zm.625 1.849c-.497 0-.974-.195-1.326-.542a1.835 1.835 0 0 1-.549-1.307V0H2.375c-.497 0-.974.195-1.326.541C.698.888.5 1.358.5 1.848v14.304c0 .49.198.96.55 1.307.35.346.828.541 1.325.541h11.25c.497 0 .974-.195 1.326-.541.351-.347.549-.817.549-1.307V5.545h-3.125z" fill="#ADADAD"/></symbol><symbol id="icon-filter_list" viewBox="0 0 24 24"><path d="M10 18h4v-2h-4v2zM3 6v2h18V6H3zm3 7h12v-2H6v2z"/></symbol><symbol id="icon-finished" viewBox="0 0 24 24"><rect fill="#5CB85C" width="24" height="24" rx="5"/><path fill="#FFF" d="M9.714 17.909L4 12.194l1.611-1.611 4.103 4.091L18.39 6 20 7.623z"/></symbol><symbol id="icon-folder" viewBox="0 0 18 16"><path d="M16.478 2.14H8.723L7.328.572A.217.217 0 0 0 7.158.5H1.523C.678.508 0 1.157 0 1.955v12.092c0 .797.679 1.445 1.522 1.453h14.956c.843-.008 1.522-.656 1.522-1.453V3.593c0-.796-.679-1.445-1.522-1.453z" fill="#FFC142"/></symbol><symbol id="icon-forum" viewBox="0 0 24 24"><path d="M21 6h-2v9H6v2c0 .55.45 1 1 1h11l4 4V7c0-.55-.45-1-1-1zm-4 6V3c0-.55-.45-1-1-1H3c-.55 0-1 .45-1 1v14l4-4h10c.55 0 1-.45 1-1z"/></symbol><symbol id="icon-group-white" viewBox="0 0 24 24"><path d="M18.8 11.3c1.6 0 2.9-1.3 2.9-3s-1.3-3-2.9-3c-1.6 0-2.9 1.3-2.9 3s1.3 3 2.9 3zm-10.7-3c0-1.7-1.3-3-2.9-3s-2.9 1.3-2.9 3 1.3 3 2.9 3 2.9-1.3 2.9-3zm3.9 2.4c1.8 0 3.2-1.5 3.2-3.3S13.8 4 12 4 8.8 5.5 8.8 7.3s1.4 3.4 3.2 3.4zm-5.8 5.6v3.1h11.6v-3.1c0-2.8-3.9-4.3-5.8-4.3s-5.8 1.4-5.8 4.3zm9.6-4.3c2 1.3 2.7 2.5 2.7 4.3v3.1h4.4v-3.1c0-2.9-3.4-4.3-5.1-4.3h-2zm-7.7 0c-2 1.3-2.7 2.5-2.7 4.3v3.1H1v-3.1C1 13.5 4.4 12 6.1 12h2z"/></symbol><symbol id="icon-group" viewBox="0 0 24 24"><path d="M18.8 11.3c1.6 0 2.9-1.3 2.9-3s-1.3-3-2.9-3c-1.6 0-2.9 1.3-2.9 3s1.3 3 2.9 3zm-10.7-3c0-1.7-1.3-3-2.9-3s-2.9 1.3-2.9 3 1.3 3 2.9 3 2.9-1.3 2.9-3zm3.9 2.4c1.8 0 3.2-1.5 3.2-3.3S13.8 4 12 4 8.8 5.5 8.8 7.3s1.4 3.4 3.2 3.4zm-5.8 5.6v3.1h11.6v-3.1c0-2.8-3.9-4.3-5.8-4.3s-5.8 1.4-5.8 4.3zm9.6-4.3c2 1.3 2.7 2.5 2.7 4.3v3.1h4.4v-3.1c0-2.9-3.4-4.3-5.1-4.3h-2zm-7.7 0c-2 1.3-2.7 2.5-2.7 4.3v3.1H1v-3.1C1 13.5 4.4 12 6.1 12h2z"/></symbol><symbol id="icon-help" viewBox="0 0 24 24"><path d="M12 2C6.48 2 2 6.48 2 12s4.48 10 10 10 10-4.48 10-10S17.52 2 12 2zm1 17h-2v-2h2v2zm2.07-7.75l-.9.92C13.45 12.9 13 13.5 13 15h-2v-.5c0-1.1.45-2.1 1.17-2.83l1.24-1.26c.37-.36.59-.86.59-1.41 0-1.1-.9-2-2-2s-2 .9-2 2H8c0-2.21 1.79-4 4-4s4 1.79 4 4c0 .88-.36 1.68-.93 2.25z"/></symbol><symbol id="icon-idea" viewBox="0 0 24 24"><path d="M8 14.745a7 7 0 1 1 8 0V17a1 1 0 0 1-1 1H9a1 1 0 0 1-1-1v-2.255zm2-1.161V16h4v-2.416a5.001 5.001 0 1 0-4 0zM9 20h6v1a1 1 0 0 1-1 1h-4a1 1 0 0 1-1-1v-1z" fill="#4A4A4A"/></symbol><symbol id="icon-image" viewBox="0 0 18 18"><path d="M15.75 14.25V3.75c0-.825-.675-1.5-1.5-1.5H3.75c-.825 0-1.5.675-1.5 1.5v10.5c0 .825.675 1.5 1.5 1.5h10.5c.825 0 1.5-.675 1.5-1.5zm-9.375-4.125l1.875 2.258L10.875 9l3.375 4.5H3.75l2.625-3.375z"/></symbol><symbol id="icon-in_progress" viewBox="0 0 24 24"><rect fill="#FF9300" width="24" height="24" rx="5"/><path d="M11.992 3.667c-4.6 0-8.325 3.733-8.325 8.333s3.725 8.333 8.325 8.333c4.608 0 8.341-3.733 8.341-8.333S16.6 3.667 11.992 3.667zm.008 15A6.665 6.665 0 0 1 5.333 12 6.665 6.665 0 0 1 12 5.333 6.665 6.665 0 0 1 18.667 12 6.665 6.665 0 0 1 12 18.667z" fill="#FFF"/><path fill="#FFF" d="M12.417 7.833h-1.25v5l4.375 2.625.625-1.025-3.75-2.225z"/></symbol><symbol id="icon-insert_drive_file" viewBox="0 0 24 24"><path d="M6 2c-1.1 0-1.99.9-1.99 2L4 20c0 1.1.89 2 1.99 2H18c1.1 0 2-.9 2-2V8l-6-6H6zm7 7V3.5L18.5 9H13z"/></symbol><symbol id="icon-invite" viewBox="0 0 20 18"><path d="M16.5.5h-14C1.538.5.75 1.288.75 2.25v10.5c0 .963.788 1.75 1.75 1.75h7.875v-1.75H2.5V4l7 4.375L16.5 4v4.375h1.75V2.25c0-.962-.788-1.75-1.75-1.75zm-7 6.125l-7-4.375h14l-7 4.375zm6.125 3.5l3.5 3.5-3.5 3.5V14.5h-3.5v-1.75h3.5v-2.625z"/></symbol><symbol id="icon-join_close" viewBox="0 0 14 19"><path d="M12.167 6.583h-.834V4.917c0-2.3-1.866-4.167-4.166-4.167A4.168 4.168 0 0 0 3 4.917v1.666h-.833C1.25 6.583.5 7.333.5 8.25v8.333c0 .917.75 1.667 1.667 1.667h10c.916 0 1.666-.75 1.666-1.667V8.25c0-.917-.75-1.667-1.666-1.667zm-5 7.5c-.917 0-1.667-.75-1.667-1.666 0-.917.75-1.667 1.667-1.667.916 0 1.666.75 1.666 1.667 0 .916-.75 1.666-1.666 1.666zm2.583-7.5H4.583V4.917a2.586 2.586 0 0 1 2.584-2.584A2.586 2.586 0 0 1 9.75 4.917v1.666z"/></symbol><symbol id="icon-join_open" viewBox="0 0 18 15"><path d="M5.875 11.875L8.5 9.303a8.173 8.173 0 0 0-.875-.053c-2.336 0-7 1.172-7 3.5v1.75H8.5l-2.625-2.625zM7.625 7.5c1.934 0 3.5-1.566 3.5-3.5S9.559.5 7.625.5a3.499 3.499 0 0 0-3.5 3.5c0 1.934 1.566 3.5 3.5 3.5zM11.536 14.938L8.5 11.874l1.225-1.234 1.811 1.82 4.489-4.524 1.225 1.234-5.714 5.767z"/></symbol><symbol id="icon-label" viewBox="0 0 24 24"><path d="M17.63 5.84C17.27 5.33 16.67 5 16 5L5 5.01C3.9 5.01 3 5.9 3 7v10c0 1.1.9 1.99 2 1.99L16 19c.67 0 1.27-.33 1.63-.84L22 12l-4.37-6.16z"/></symbol><symbol id="icon-landing-page" viewBox="0 0 24 24"><path d="M20 4H4c-1.1 0-1.99.9-1.99 2L2 18c0 1.1.9 2 2 2h16c1.1 0 2-.9 2-2V6c0-1.1-.9-2-2-2zm-5 14H4v-4h11v4zm0-5H4V9h11v4zm5 5h-4V9h4v9z"/></symbol><symbol id="icon-language" viewBox="0 0 24 24"><path d="M11.99 2C6.47 2 2 6.48 2 12s4.47 10 9.99 10C17.52 22 22 17.52 22 12S17.52 2 11.99 2zm6.93 6h-2.95a15.65 15.65 0 0 0-1.38-3.56A8.03 8.03 0 0 1 18.92 8zM12 4.04c.83 1.2 1.48 2.53 1.91 3.96h-3.82c.43-1.43 1.08-2.76 1.91-3.96zM4.26 14C4.1 13.36 4 12.69 4 12s.1-1.36.26-2h3.38c-.08.66-.14 1.32-.14 2 0 .68.06 1.34.14 2H4.26zm.82 2h2.95c.32 1.25.78 2.45 1.38 3.56A7.987 7.987 0 0 1 5.08 16zm2.95-8H5.08a7.987 7.987 0 0 1 4.33-3.56A15.65 15.65 0 0 0 8.03 8zM12 19.96c-.83-1.2-1.48-2.53-1.91-3.96h3.82c-.43 1.43-1.08 2.76-1.91 3.96zM14.34 14H9.66c-.09-.66-.16-1.32-.16-2 0-.68.07-1.35.16-2h4.68c.09.65.16 1.32.16 2 0 .68-.07 1.34-.16 2zm.25 5.56c.6-1.11 1.06-2.31 1.38-3.56h2.95a8.03 8.03 0 0 1-4.33 3.56zM16.36 14c.08-.66.14-1.32.14-2 0-.68-.06-1.34-.14-2h3.38c.16.64.26 1.31.26 2s-.1 1.36-.26 2h-3.38z"/></symbol><symbol id="icon-like" viewBox="-10 0 120 100"><path d="M87.2 16.66a26.33 26.33 0 0 0-37.14-.1A26.34 26.34 0 0 0 12.8 53.81L50 91.16l.1-.1 37.2-37.25a26.33 26.33 0 0 0-.1-37.15z"/></symbol><symbol id="icon-link" viewBox="0 0 24 24"><path d="M10.204 20a6.334 6.334 0 0 1-3.446-1.014 6.065 6.065 0 0 1-2.285-2.703 5.863 5.863 0 0 1-.354-3.48 5.972 5.972 0 0 1 1.697-3.086l4.65-4.518A4.556 4.556 0 0 1 13.613 4a4.55 4.55 0 0 1 3.114 1.275A4.292 4.292 0 0 1 18.038 8.3a4.286 4.286 0 0 1-1.234 3.055l-4.65 4.516a2.803 2.803 0 0 1-1.94.752 2.8 2.8 0 0 1-1.927-.785 2.641 2.641 0 0 1-.807-1.871 2.638 2.638 0 0 1 .774-1.884l4.407-4.28 1.461 1.421-4.405 4.28a.67.67 0 0 0-.211.476.653.653 0 0 0 .202.48.692.692 0 0 0 .494.196.705.705 0 0 0 .49-.204l4.653-4.515c.23-.216.414-.475.541-.761a2.287 2.287 0 0 0-.511-2.583 2.42 2.42 0 0 0-.793-.512 2.476 2.476 0 0 0-1.866.016c-.295.123-.561.301-.784.525l-4.655 4.516a3.958 3.958 0 0 0-1.162 2.827 3.961 3.961 0 0 0 1.212 2.806 4.2 4.2 0 0 0 2.89 1.177 4.204 4.204 0 0 0 2.91-1.128l4.406-4.28L19 13.96l-4.407 4.28a6.204 6.204 0 0 1-2.014 1.305 6.348 6.348 0 0 1-2.375.455z" fill="#777"/></symbol><symbol id="icon-location" viewBox="0 0 24 24"><path d="M12 2C8.13 2 5 5.13 5 9c0 5.25 7 13 7 13s7-7.75 7-13c0-3.87-3.13-7-7-7zm0 9.5a2.5 2.5 0 0 1 0-5 2.5 2.5 0 0 1 0 5z"/></symbol><symbol id="icon-lock" viewBox="0 0 24 24"><path d="M18 8h-1V6c0-2.76-2.24-5-5-5S7 3.24 7 6v2H6c-1.1 0-2 .9-2 2v10c0 1.1.9 2 2 2h12c1.1 0 2-.9 2-2V10c0-1.1-.9-2-2-2zm-6 9c-1.1 0-2-.9-2-2s.9-2 2-2 2 .9 2 2-.9 2-2 2zm3.1-9H8.9V6c0-1.71 1.39-3.1 3.1-3.1 1.71 0 3.1 1.39 3.1 3.1v2z"/></symbol><symbol id="icon-mail" viewBox="0 0 24 24"><path d="M20 4H4c-1.1 0-1.99.9-1.99 2L2 18c0 1.1.9 2 2 2h16c1.1 0 2-.9 2-2V6c0-1.1-.9-2-2-2zm0 4l-8 5-8-5V6l8 5 8-5v2z"/></symbol><symbol id="icon-mail_outline" viewBox="0 0 24 24"><path d="M20 4H4c-1.1 0-1.99.9-1.99 2L2 18c0 1.1.9 2 2 2h16c1.1 0 2-.9 2-2V6c0-1.1-.9-2-2-2zm0 14H4V8l8 5 8-5v10zm-8-7L4 6h16l-8 5z"/></symbol><symbol id="icon-member_check" viewBox="0 0 17 16"><g clip-path="url(#a)"><path clip-rule="evenodd" d="M12.5 4.25a4.241 4.241 0 0 1-1.51 3.249 7.711 7.711 0 0 1 1.355.67.384.384 0 0 1 .105.549l-.4.574a.42.42 0 0 1-.564.11A6.22 6.22 0 0 0 8.25 8.5a6.25 6.25 0 0 0-6.237 5.85.42.42 0 0 1-.413.4H.9a.385.385 0 0 1-.39-.4 7.754 7.754 0 0 1 5-6.852A4.25 4.25 0 1 1 12.5 4.25zM8.25 1.5a2.75 2.75 0 1 0 0 5.5 2.75 2.75 0 0 0 0-5.5z"/><path d="M15.195 9.144a.467.467 0 0 1 .674-.001l.495.51a.486.486 0 0 1 0 .674l-5.249 5.425a.803.803 0 0 1-1.158.002l-3.57-3.665a.486.486 0 0 1 0-.675l.534-.551a.467.467 0 0 1 .672-.002l2.983 3.06 4.62-4.777z"/></g></symbol><symbol id="icon-members" viewBox="0 0 13 12"><g clip-path="url(#a)"><path d="M4.25 5.25a1.875 1.875 0 1 0 0-3.75 1.875 1.875 0 0 0 0 3.75zM8.75 5.25a1.875 1.875 0 1 0 0-3.75 1.875 1.875 0 0 0 0 3.75zM8.688 10.5a4.49 4.49 0 0 0-1.501-4.16A3.75 3.75 0 0 1 12.5 9.75v.225c0 .29-.235.525-.525.525H8.688zM.5 9.75a3.75 3.75 0 1 1 7.5 0v.225c0 .29-.235.525-.525.525h-6.45A.525.525 0 0 1 .5 9.975V9.75z"/></g></symbol><symbol id="icon-menu" viewBox="0 0 24 24"><path d="M3 18h18v-2H3v2zm0-5h18v-2H3v2zm0-7v2h18V6H3z"/></symbol><symbol id="icon-navigate_before" viewBox="0 0 24 24"><path d="M15.41 7.41L14 6l-6 6 6 6 1.41-1.41L10.83 12z"/></symbol><symbol id="icon-navigate_next" viewBox="0 0 24 24"><path d="M10 6L8.59 7.41 13.17 12l-4.58 4.59L10 18l6-6z"/></symbol><symbol id="icon-news" viewBox="0 0 24 24"><path d="M19 5v14H5V5h14m1.1-2H3.9c-.5 0-.9.4-.9.9v16.2c0 .4.4.9.9.9h16.2c.4 0 .9-.5.9-.9V3.9c0-.5-.5-.9-.9-.9zM11 7h6v2h-6V7zm0 4h6v2h-6v-2zm0 4h6v2h-6zM7 7h2v2H7zm0 4h2v2H7zm0 4h2v2H7z"/></symbol><symbol id="icon-notifications" viewBox="0 0 24 24"><path d="M12 22c1.1 0 2-.9 2-2h-4a2 2 0 0 0 2 2zm6-6v-5c0-3.07-1.64-5.64-4.5-6.32V4c0-.83-.67-1.5-1.5-1.5s-1.5.67-1.5 1.5v.68C7.63 5.36 6 7.92 6 11v5l-2 2v1h16v-1l-2-2z"/></symbol><symbol id="icon-notifications_none" viewBox="0 0 24 24"><path d="M12 22c1.1 0 2-.9 2-2h-4c0 1.1.9 2 2 2zm6-6v-5c0-3.07-1.63-5.64-4.5-6.32V4c0-.83-.67-1.5-1.5-1.5s-1.5.67-1.5 1.5v.68C7.64 5.36 6 7.92 6 11v5l-2 2v1h16v-1l-2-2zm-2 1H8v-6c0-2.48 1.51-4.5 4-4.5s4 2.02 4 4.5v6z"/></symbol><symbol id="icon-open_in_new" viewBox="0 0 24 24"><path d="M19 19H5V5h7V3H5a2 2 0 0 0-2 2v14a2 2 0 0 0 2 2h14c1.1 0 2-.9 2-2v-7h-2v7zM14 3v2h3.59l-9.83 9.83 1.41 1.41L19 6.41V10h2V3h-7z"/></symbol><symbol id="icon-open_with" viewBox="0 0 24 24"><path d="M10 9h4V6h3l-5-5-5 5h3v3zm-1 1H6V7l-5 5 5 5v-3h3v-4zm14 2l-5-5v3h-3v4h3v3l5-5zm-9 3h-4v3H7l5 5 5-5h-3v-3z"/></symbol><symbol id="icon-organisation" viewBox="0 0 24 24"><path d="M12 7V3H2v18h20V7H12zM6 19H4v-2h2v2zm0-4H4v-2h2v2zm0-4H4V9h2v2zm0-4H4V5h2v2zm4 12H8v-2h2v2zm0-4H8v-2h2v2zm0-4H8V9h2v2zm0-4H8V5h2v2zm10 12h-8v-2h2v-2h-2v-2h2v-2h-2V9h8v10zm-2-8h-2v2h2v-2zm0 4h-2v2h2v-2z"/></symbol><symbol id="icon-page" viewBox="0 0 24 24"><path d="M14 2H6c-1.1 0-1.99.9-1.99 2L4 20c0 1.1.89 2 1.99 2H18c1.1 0 2-.9 2-2V8l-6-6zm2 16H8v-2h8v2zm0-4H8v-2h8v2zm-3-5V3.5L18.5 9H13z"/></symbol><symbol id="icon-person" viewBox="0 0 24 24"><path d="M12 12c2.21 0 4-1.79 4-4s-1.79-4-4-4-4 1.79-4 4 1.79 4 4 4zm0 2c-2.67 0-8 1.34-8 4v2h16v-2c0-2.66-5.33-4-8-4z"/></symbol><symbol id="icon-phase" viewBox="0 0 14 11"><path fill="#4C4C4C" d="M3.25.542H1.125a.71.71 0 0 0-.708.708v8.5c0 .39.318.708.708.708H3.25a.71.71 0 0 0 .708-.708v-8.5A.71.71 0 0 0 3.25.542zm9.917 0h-2.125a.71.71 0 0 0-.709.708v8.5c0 .39.32.708.709.708h2.125a.71.71 0 0 0 .708-.708v-8.5a.71.71 0 0 0-.708-.708zm-4.959 0H6.083a.71.71 0 0 0-.708.708v8.5c0 .39.319.708.708.708h2.125a.71.71 0 0 0 .709-.708v-8.5a.71.71 0 0 0-.709-.708z"/></symbol><symbol id="icon-phone" viewBox="0 0 24 24"><path d="M16 1H8C6.34 1 5 2.34 5 4v16c0 1.66 1.34 3 3 3h8c1.66 0 3-1.34 3-3V4c0-1.66-1.34-3-3-3zm-2 20h-4v-1h4v1zm3.25-3H6.75V4h10.5v14z"/></symbol><symbol id="icon-photo" viewBox="0 0 24 24"><path d="M21 19V5c0-1.1-.9-2-2-2H5c-1.1 0-2 .9-2 2v14c0 1.1.9 2 2 2h14c1.1 0 2-.9 2-2zM8.5 13.5l2.5 3.01L14.5 12l4.5 6H5l3.5-4.5z"/></symbol><symbol id="icon-plus" viewBox="0 0 24 24"><path d="M19 13h-6v6h-2v-6H5v-2h6V5h2v6h6v2z" fill="#4A4A4A"/></symbol><symbol id="icon-public" viewBox="0 0 24 24"><path d="M12 2C6.48 2 2 6.48 2 12s4.48 10 10 10 10-4.48 10-10S17.52 2 12 2zm-1 17.93c-3.95-.49-7-3.85-7-7.93 0-.62.08-1.21.21-1.79L9 15v1c0 1.1.9 2 2 2v1.93zm6.9-2.54c-.26-.81-1-1.39-1.9-1.39h-1v-3c0-.55-.45-1-1-1H8v-2h2c.55 0 1-.45 1-1V7h2c1.1 0 2-.9 2-2v-.41c2.93 1.19 5 4.06 5 7.41 0 2.08-.8 3.97-2.1 5.39z"/></symbol><symbol id="icon-resource" viewBox="0 0 24 24"><path d="M12 11.55C9.64 9.35 6.48 8 3 8v11c3.48 0 6.64 1.35 9 3.55 2.36-2.19 5.52-3.55 9-3.55V8c-3.48 0-6.64 1.35-9 3.55zM12 8c1.66 0 3-1.34 3-3s-1.34-3-3-3-3 1.34-3 3 1.34 3 3 3z"/></symbol><symbol id="icon-schedule" viewBox="0 0 24 24"><path d="M11.99 2C6.47 2 2 6.48 2 12s4.47 10 9.99 10C17.52 22 22 17.52 22 12S17.52 2 11.99 2zM12 20c-4.42 0-8-3.58-8-8s3.58-8 8-8 8 3.58 8 8-3.58 8-8 8z"/><path d="M12.5 7H11v6l5.25 3.15.75-1.23-4.5-2.67z"/></symbol><symbol id="icon-search" viewBox="0 0 24 24"><path d="M15.5 14h-.79l-.28-.27A6.471 6.471 0 0 0 16 9.5 6.5 6.5 0 1 0 9.5 16c1.61 0 3.09-.59 4.23-1.57l.27.28v.79l5 4.99L20.49 19l-4.99-5zm-6 0C7.01 14 5 11.99 5 9.5S7.01 5 9.5 5 14 7.01 14 9.5 11.99 14 9.5 14z"/></symbol><symbol id="icon-select" viewBox="0 0 24.4 39.3"><path fill="#666" d="M17.3 24.7L12 30l-5.3-5.3zM6.7 14.7L12 9.4l5.3 5.3z"/></symbol><symbol id="icon-send" viewBox="0 0 24 24"><path d="M2.01 21L23 12 2.01 3 2 10l15 2-15 2z"/></symbol><symbol id="icon-sheriff" viewBox="0 0 24 24"><g clip-path="url(#a)"><path d="M21 15c-.151 0-.298.017-.44.049l-1.39-2.447a1.227 1.227 0 0 1 0-1.204l1.39-2.447A1.998 1.998 0 0 0 23 7a2 2 0 1 0-3.731-1h-3.138a1.22 1.22 0 0 1-1.06-.617l-1.347-2.371c.175-.297.276-.643.276-1.011 0-1.103-.897-2-2-2s-2 .897-2 2c0 .369.101.714.276 1.011L8.929 5.383A1.22 1.22 0 0 1 7.869 6H4.731A2 2 0 1 0 3.44 8.951l1.39 2.447c.211.371.211.833 0 1.204l-1.39 2.447A1.998 1.998 0 0 0 1 17a2 2 0 1 0 3.731 1h3.138c.438 0 .844.236 1.06.617l1.347 2.372A1.984 1.984 0 0 0 10 22c0 1.103.897 2 2 2s2-.897 2-2c0-.369-.101-.714-.276-1.011l1.347-2.372c.216-.38.622-.616 1.06-.616h3.138a2 2 0 1 0 1.731-3V15zm-3.569-1.41L18.8 16h-2.669a3.223 3.223 0 0 0-2.799 1.629L12 19.975l-1.332-2.345A3.222 3.222 0 0 0 7.869 16H5.2l1.369-2.411a3.23 3.23 0 0 0 0-3.178L5.2 8h2.669a3.224 3.224 0 0 0 2.799-1.63L12 4.025l1.332 2.345A3.224 3.224 0 0 0 16.131 8H18.8l-1.369 2.411a3.233 3.233 0 0 0 0 3.179zM12 9c-1.654 0-3 1.346-3 3s1.346 3 3 3 3-1.346 3-3-1.346-3-3-3zm0 4c-.551 0-1-.449-1-1 0-.551.449-1 1-1 .551 0 1 .449 1 1 0 .551-.449 1-1 1z"/></g></symbol><symbol id="icon-shield" viewBox="0 0 24 24"><path d="M12 1L3 5v6c0 5.55 3.84 10.74 9 12 5.16-1.26 9-6.45 9-12V5l-9-4zm0 10.99h7c-.53 4.12-3.28 7.79-7 8.94V12H5V6.3l7-3.11v8.8z"/></symbol><symbol id="icon-tablet" viewBox="0 0 24 24"><clipPath id="b"><use overflow="visible" xlink:href="#a"/></clipPath><path clip-path="url(#b)" d="M18 0H6C4.34 0 3 1.34 3 3v18c0 1.66 1.34 3 3 3h12c1.66 0 3-1.34 3-3V3c0-1.66-1.34-3-3-3zm-4 22h-4v-1h4v1zm5.25-3H4.75V3h14.5v16z"/></symbol><symbol id="icon-today" viewBox="0 0 24 24"><path d="M19 3h-1V1h-2v2H8V1H6v2H5c-1.11 0-1.99.9-1.99 2L3 19a2 2 0 0 0 2 2h14c1.1 0 2-.9 2-2V5c0-1.1-.9-2-2-2zm0 16H5V8h14v11zM7 10h5v5H7z"/></symbol><symbol id="icon-topic" viewBox="0 0 24 17.2"><path d="M1.7 17.2h5.1l3.4-6.9V0H0v10.3h5.1l-3.4 6.9zm13.7 0h5.1l3.4-6.9V0H13.7v10.3h5.1l-3.4 6.9z"/></symbol><symbol id="icon-trash" viewBox="0 0 13 15"><path d="M5.833 5.75h-1.75V11h1.75V5.75zM7 5.75h1.75V11H7V5.75z" fill="#A94442"/><path fill-rule="evenodd" clip-rule="evenodd" d="M12.833 2.25H9.917v-.292A1.458 1.458 0 0 0 8.458.5H4.375a1.458 1.458 0 0 0-1.458 1.458v.292H0V4h1.167v8.75a1.75 1.75 0 0 0 1.75 1.75h7a1.75 1.75 0 0 0 1.75-1.75V4h1.166V2.25zm-2.916 10.5h-7V4h7v8.75z" fill="#A94442"/></symbol><symbol id="icon-user" viewBox="0 0 24 24"><circle cx="12" cy="6" r="6"/><path d="M12 15c-9.15 0-12 6-12 6v3h24v-3s-2.85-6-12-6z"/></symbol><symbol id="icon-views" viewBox="0 0 24 24"><path d="M12 4.5C7 4.5 2.73 7.61 1 12c1.73 4.39 6 7.5 11 7.5s9.27-3.11 11-7.5c-1.73-4.39-6-7.5-11-7.5zM12 17c-2.76 0-5-2.24-5-5s2.24-5 5-5 5 2.24 5 5-2.24 5-5 5zm0-8c-1.66 0-3 1.34-3 3s1.34 3 3 3 3-1.34 3-3-1.34-3-3-3z"/></symbol><symbol id="icon-visibility_off" viewBox="0 0 24 24"><path d="M0 0h24v24H0V0zm0 0h24v24H0V0zm0 0h24v24H0V0zm0 0h24v24H0V0z" fill="none"/><path d="M12 6a9.77 9.77 0 0 1 8.82 5.5 9.647 9.647 0 0 1-2.41 3.12l1.41 1.41c1.39-1.23 2.49-2.77 3.18-4.53C21.27 7.11 17 4 12 4c-1.27 0-2.49.2-3.64.57l1.65 1.65C10.66 6.09 11.32 6 12 6zm-1.07 1.14L13 9.21c.57.25 1.03.71 1.28 1.28l2.07 2.07c.08-.34.14-.7.14-1.07C16.5 9.01 14.48 7 12 7c-.37 0-.72.05-1.07.14zM2.01 3.87l2.68 2.68A11.738 11.738 0 0 0 1 11.5C2.73 15.89 7 19 12 19c1.52 0 2.98-.29 4.32-.82l3.42 3.42 1.41-1.41L3.42 2.45 2.01 3.87zm7.5 7.5l2.61 2.61c-.04.01-.08.02-.12.02a2.5 2.5 0 0 1-2.5-2.5c0-.05.01-.08.01-.13zm-3.4-3.4l1.75 1.75a4.6 4.6 0 0 0-.36 1.78 4.507 4.507 0 0 0 6.27 4.14l.98.98c-.88.24-1.8.38-2.75.38a9.77 9.77 0 0 1-8.82-5.5c.7-1.43 1.72-2.61 2.93-3.53z"/></symbol><symbol id="icon-vote" viewBox="0 0 16 16"><path class="st0" d="M4 8H0l8-8 8 8h-4v8H4z"/></symbol><symbol id="icon-warning" viewBox="0 0 24 24"><path d="M1 21h22L12 2 1 21zm12-3h-2v-2h2v2zm0-4h-2v-4h2v4z"/></symbol></svg>