<?xml version="1.0" encoding="UTF-8"?>
<svg width="50px" height="50px" viewBox="0 0 100 100" version="1.1" xmlns="http://www.w3.org/2000/svg" xmlns:xlink="http://www.w3.org/1999/xlink" style="background: #FFFFFF;">
    <!-- Generator: Sketch 47.1 (45422) - http://www.bohemiancoding.com/sketch -->
    <title>Artboard</title>
    <desc>Created with Sketch.</desc>
    <defs></defs>
    <g id="Symbols" stroke="none" stroke-width="1" fill="none" fill-rule="evenodd">
        <g id="Artboard" fill="#f47b4d">
            <path d="M66.9830697,66.0056446 C66.6110292,66.3541435 66.0088809,66.5377579 65.241527,66.5377579 L65.2408714,66.5377579 C63.5386635,66.5377579 60.691161,65.575164 57.8049793,62.8709965 C55.3246004,60.5475681 54.9246979,56.7042544 54.9004415,54.6878734 C57.2015199,54.711209 61.188089,55.1140554 63.6373279,57.4086214 C65.4208276,59.079881 66.7090381,60.9614681 67.2646404,62.7085684 C67.7297729,64.1719568 67.6245526,65.4047526 66.9830697,66.0056446 Z M54.7388416,51.5151515 C53.7777644,51.5151515 53.1559488,51.5741046 53.0900632,51.5802456 L51.7244945,51.7128901 L51.5832175,52.9908218 C51.5487996,53.3067737 50.7788234,60.7668 55.415398,65.109987 C58.4815357,67.9821094 62.1671946,69.6969697 65.2743059,69.6969697 C66.9414405,69.6969697 68.3587998,69.194947 69.3733066,68.244635 C72.348319,65.4572577 70.8781856,59.7142411 66.0265815,55.169631 C62.6323271,51.989847 57.4978411,51.5151515 54.7388416,51.5151515 L54.7388416,51.5151515 Z" id="Fill-1"></path>
            <path d="M32.4234906,32.1764183 C32.7948779,31.8279253 33.3974816,31.6440069 34.1641638,31.6440069 C35.8648818,31.6440069 38.7098917,32.6068917 41.593547,35.3103993 C44.0717547,37.6344027 44.4713071,41.4773444 44.4955423,43.4943054 C42.1964782,43.4712772 38.2133987,43.0675166 35.7669587,40.7736034 C33.9850202,39.102679 32.6976098,37.2205096 32.1428214,35.4740529 C31.677441,34.009461 31.7825692,32.7773002 32.4234906,32.1764183 Z M33.378814,43.0116349 C36.7704248,46.1913652 41.9020539,46.6666667 44.6586383,46.6666667 C45.588744,46.6666667 46.1939677,46.6120131 46.3049909,46.6015737 L47.6687093,46.4692385 L47.8098627,45.1904072 C47.8455604,44.8750747 48.6158451,37.4167097 43.9816916,33.0720608 C40.9175828,30.1996799 37.2358052,28.4848485 34.1314136,28.4848485 C32.4657384,28.4848485 31.0496197,28.9871697 30.0360009,29.9374657 C28.5573294,31.3240688 28.1168391,33.4616975 28.7964058,35.9570305 C29.4478073,38.3464338 31.0751648,40.8525132 33.378814,43.0116349 L33.378814,43.0116349 Z" id="Fill-2"></path>
            <path d="M44.4930952,54.6878734 C44.4688387,56.7042544 44.0689348,60.5475681 41.5885474,62.8709965 C38.7023559,65.575164 35.8554992,66.5377579 34.1532854,66.5377579 L34.1526298,66.5377579 C33.3846177,66.5377579 32.7821396,66.3541435 32.4104256,66.0056446 C31.2189087,64.8895269 31.7250166,61.1853057 35.7568344,57.4086214 C38.2054262,55.1140554 42.1920089,54.711209 44.4930952,54.6878734 Z M47.8103306,52.9908218 L47.6683975,51.7128901 L46.3057742,51.5808597 C46.2382494,51.5741046 45.6151205,51.5151515 44.6546957,51.5151515 C41.8963423,51.5151515 36.7611831,51.989847 33.3665892,55.169631 C28.5152963,59.7142411 27.0458134,65.4572577 30.0208361,68.244635 C31.0353463,69.194947 32.4527105,69.6969697 34.1198508,69.6969697 C37.2269728,69.6969697 40.9126443,67.9821094 43.9787925,65.109987 C48.615383,60.7658788 47.8454041,53.3055455 47.8103306,52.9908218 L47.8103306,52.9908218 Z" id="Fill-3"></path>
            <path d="M54.8979162,43.4943054 C54.9221514,41.4773444 55.3217049,37.6344027 57.7999195,35.3103993 C60.6835826,32.6068917 63.5286004,31.6440069 65.2293231,31.6440069 C65.9966624,31.6440069 66.5982853,31.8279253 66.9700011,32.1764183 C67.6109243,32.7773002 67.7160527,34.009461 67.2513261,35.4740529 C66.6962086,37.2205096 65.4091222,39.102679 63.6271788,40.7736034 C61.1800771,43.0675166 57.1969866,43.4712772 54.8979162,43.4943054 Z M51.5835867,45.1901001 L51.7247404,46.4692385 L53.0884626,46.6009596 C53.2001411,46.6120131 53.8040564,46.6666667 54.7348197,46.6666667 C57.4914117,46.6666667 62.6230549,46.1913652 66.0143476,43.0116349 C68.3183306,40.8525132 69.94602,38.3464338 70.5970958,35.9570305 C71.2773194,33.4616975 70.836828,31.3240688 69.3581523,29.9374657 C68.3445308,28.9871697 66.9284082,28.4848485 65.2627284,28.4848485 C62.1583283,28.4848485 58.4758855,30.1996799 55.4124232,33.0720608 C50.778912,37.4164026 51.5485439,44.8750747 51.5835867,45.1901001 L51.5835867,45.1901001 Z" id="Fill-4"></path>
            <path d="M71.3242451,43.1055002 L70.9377,43.030303 L70.7121615,43.3353537 C70.2723777,43.9296241 69.7793552,44.5132391 69.247291,45.0697587 L68.4848485,45.8680051 L69.614154,46.0083528 C73.6535183,46.5103773 76.0670055,48.277662 76.0670055,49.6966653 C76.0670055,51.1150596 73.6535183,52.8826488 69.6144766,53.3846733 L68.4854938,53.5259343 L69.2485816,54.3235718 C69.7783872,54.8785692 70.2710871,55.4621842 70.7121615,56.0579768 L70.9377,56.3636364 L71.3242451,56.2875259 C76.2260762,55.3340142 79.3939394,52.7468677 79.3939394,49.6966653 C79.3939394,46.6455495 76.2260762,44.0587075 71.3242451,43.1055002" id="Fill-5"></path>
            <path d="M28.4567397,56.3636364 L28.6826141,56.0579768 C29.1211332,55.4643153 29.6132169,54.8807003 30.1466033,54.3235718 L30.9090909,53.5259343 L29.7800413,53.3846733 C25.7407607,52.8826488 23.3271307,51.1150596 23.3271307,49.6966653 C23.3271307,48.277662 25.7407607,46.5103773 29.7800413,46.0083528 L30.9090909,45.8680051 L30.1466033,45.0697587 C29.6132169,44.5126302 29.1211332,43.9290152 28.6826141,43.3353537 L28.4567397,43.030303 L28.0701717,43.1055002 C23.1680506,44.0580986 20,46.6455495 20,49.6966653 C20,52.7468677 23.1680506,55.3340142 28.0701717,56.2875259 L28.4567397,56.3636364" id="Fill-6"></path>
            <path d="M55.3506936,69.2486042 L54.4797998,68.4848485 L54.3270114,69.61451 C53.7792983,73.6536712 51.8508431,76.0672297 50.3026982,76.0672297 C48.7548854,76.0672297 46.8270945,73.6536712 46.2793813,69.61451 L46.1265929,68.4861392 L45.2560313,69.2486042 C44.6458742,69.7816522 44.0091452,70.2750119 43.3634481,70.7125501 L43.030303,70.9380952 L43.1123438,71.3240064 C44.1523012,76.2263052 46.9745685,79.3939394 50.3026982,79.3939394 C53.6318243,79.3939394 56.4540915,76.2263052 57.494049,71.3240064 L57.5757576,70.9380952 L57.2429446,70.7125501 C56.5949226,70.2727533 55.9581936,69.7803615 55.3506936,69.2486042" id="Fill-7"></path>
            <path d="M45.2560313,30.1465582 L46.1265929,30.9078001 L46.2793813,29.7796518 C46.8270945,25.7411003 48.7548854,23.3270049 50.3026982,23.3270049 C51.8508431,23.3270049 53.7792983,25.7411003 54.3270114,29.7796518 L54.4797998,30.9090909 L55.3506936,30.1459128 C55.9555364,29.6160445 56.5922654,29.1232863 57.2429446,28.6821597 L57.5757576,28.4565946 L57.494049,28.0700037 C56.4544237,23.1675926 53.6318243,20 50.3026982,20 C46.9745685,20 44.1516369,23.1675926 43.1123438,28.0700037 L43.030303,28.4565946 L43.3634481,28.6821597 C44.0084809,29.1197367 44.6452099,29.6124948 45.2560313,30.1465582" id="Fill-8"></path>
        </g>
    </g>
</svg>