<svg id="Layer_1" data-name="Layer 1" xmlns="http://www.w3.org/2000/svg" xmlns:xlink="http://www.w3.org/1999/xlink" viewBox="0 0 140 140"><defs><style>.cls-1{fill:#fff;}.cls-2{fill:url(#linear-gradient);}.cls-3{fill:url(#linear-gradient-2);}.cls-4{fill:url(#linear-gradient-3);}.cls-5{fill:url(#linear-gradient-4);}</style><linearGradient id="linear-gradient" x1="11.53" y1="57.99" x2="124.53" y2="57.99" gradientUnits="userSpaceOnUse"><stop offset="0" stop-color="#fdb515"/><stop offset="0.2" stop-color="#fcad1d"/><stop offset="0.5" stop-color="#f89632"/><stop offset="0.86" stop-color="#f37451"/></linearGradient><linearGradient id="linear-gradient-2" x1="11.53" y1="57.99" x2="124.53" y2="57.99" xlink:href="#linear-gradient"/><linearGradient id="linear-gradient-3" x1="11.53" y1="61.13" x2="124.53" y2="61.13" xlink:href="#linear-gradient"/><linearGradient id="linear-gradient-4" x1="11.53" y1="70" x2="124.53" y2="70" xlink:href="#linear-gradient"/></defs><title>Artboard 2 copy</title><rect class="cls-1" x="-289.33" y="-15" width="718.67" height="170"/><path class="cls-2" d="M88.58,46.75A5.88,5.88,0,0,0,78.94,53l-6.73,6.73a5.85,5.85,0,0,0-4.6-.18L61.06,53a5.89,5.89,0,1,0-3.37,3.37L64.24,63a5.88,5.88,0,1,0,11.1.43l7-7a5.88,5.88,0,0,0,6.27-9.65Z"/><path class="cls-3" d="M56,76.83A21.62,21.62,0,0,1,40.81,50.38a21.37,21.37,0,0,1,9.5-12.73l-6-11.9A34.39,34.39,0,0,0,61,90.23h0a34,34,0,0,0,14.27-3.12L69.65,76A21.54,21.54,0,0,1,56,76.83Z"/><path class="cls-4" d="M83.42,14.15a50.41,50.41,0,0,0-5.76-2.41l-1,3.67L73.8,24.69a37,37,0,0,1,4.52,2A37.25,37.25,0,0,1,51.84,95.81l-3.95,12.37-.21.51A50.75,50.75,0,0,0,83.42,14.15Z"/><path class="cls-5" d="M116.83,29.48A55.14,55.14,0,1,0,29.15,95.63c4.56,5,11.21,21.21,14.9,30.79.54.22,1.28.52,2.3.89s1.86.71,2.4,1l2.21,1a5.08,5.08,0,0,1,3,4.61v2.65H86.08v-2.65a5.08,5.08,0,0,1,3-4.61l2.19-1c.55-.25,1.4-.58,2.39-.95s1.68-.64,2.22-.86c5.36-15.81,9.77-25.51,13.1-28.85a55.13,55.13,0,0,0,7.88-68.14ZM61.19,117.84a57.42,57.42,0,0,1-15.86-2.26l2.06-6.06.29-.83.21-.51-.67-1.82-.63-1.7c0-.1-3.6-9.68-5.89-14.37a39.87,39.87,0,0,1,2.35-69.95l1.16-.59,1.72,3.43c.77-.56,1.55-1.1,2.33-1.59,8-5.06,16.76-6.35,23-6.54L73.8,4.75c37,5.7,51.8,42.64,42.49,72.54A57.42,57.42,0,0,1,61.19,117.84Z"/></svg>