<svg xmlns="http://www.w3.org/2000/svg" xmlns:xlink="http://www.w3.org/1999/xlink" viewBox="0 0 366 100"><defs><style>.cls-1{fill:#fff;}.cls-2{fill:#92958c;}.cls-3{fill:url(#linear-gradient);}.cls-4{fill:url(#linear-gradient-2);}.cls-5{fill:url(#linear-gradient-3);}.cls-6{fill:url(#linear-gradient-4);}</style><linearGradient id="linear-gradient" x1="32.55" y1="45.49" x2="74.97" y2="45.49" gradientUnits="userSpaceOnUse"><stop offset="0" stop-color="#fdb515"/><stop offset="0.2" stop-color="#fcad1d"/><stop offset="0.5" stop-color="#f89632"/><stop offset="0.86" stop-color="#f37451"/></linearGradient><linearGradient id="linear-gradient-2" x1="36.79" y1="85.34" x2="55.21" y2="85.34" gradientTransform="translate(-1.4 -37.91) rotate(-2.21)" xlink:href="#linear-gradient"/><linearGradient id="linear-gradient-3" x1="46.27" y1="46.72" x2="70.71" y2="46.72" xlink:href="#linear-gradient"/><linearGradient id="linear-gradient-4" x1="28.78" y1="50" x2="80.22" y2="50" xlink:href="#linear-gradient"/></defs><title>Artboard 1 copy</title><g id="Layer_2" data-name="Layer 2"><rect class="cls-1" x="-36.9" y="-27.14" width="467" height="177"/></g><g id="Layer_1" data-name="Layer 1"><path class="cls-2" d="M105.38,36.48h-2l-.21-.22L103,35.18h-.22a5,5,0,0,1-3.9,1.51c-4.32,0-7.14-3.25-7.14-7.79s2.82-7.79,7.36-7.79c4.32,0,6.06,2.38,6.49,4.54l-.22.22h-2.6l-.22-.22c-.44-.86-1.09-1.95-3.46-1.95-2.82,0-4.33,2.16-4.33,5.19s1.51,5.19,4.33,5.19c2.38,0,3.46-1.3,3.46-3l-.22-.22H98.68l-.22-.21V28.47l.22-.22h6.71l.22.22v7.79Z"/><path class="cls-2" d="M111.08,36.48h-2.6l-.21-.22V21.55l.21-.22h2.6l.22.22V36.26Z"/><path class="cls-2" d="M118.57,36.69c-3.25,0-5.41-2.16-5.41-5.63s2.16-5.63,5.41-5.63S124,27.6,124,31.07,121.81,36.69,118.57,36.69Zm0-8.66c-1.51,0-2.38,1.08-2.38,3s.87,3,2.38,3,2.37-1.08,2.37-3S120.08,28,118.57,28Z"/><path class="cls-2" d="M131.91,36.69a3.63,3.63,0,0,1-2.81-1.08h-.22l-.22.64-.21.22h-2.38l-.22-.22V21.55l.22-.22h2.59l.22.22v5h.22a3.62,3.62,0,0,1,2.81-1.08c2.59,0,4.76,2.16,4.76,5.63S134.5,36.69,131.91,36.69ZM131.26,28c-1.73,0-2.38,1.3-2.38,3s.65,3,2.38,3,2.38-1.3,2.38-3S133,28,131.26,28Z"/><path class="cls-2" d="M147.2,36.48h-2.38l-.22-.22-.21-.43h-.22a3.54,3.54,0,0,1-2.38.87c-2.38,0-3.9-1.3-3.9-3.46,0-3.24,3-3.68,4.77-3.68a5.27,5.27,0,0,1,1.51.22l.22-.22v-.22c0-1.08-.22-1.3-1.51-1.3-.65,0-1.3,0-1.52.65l-.22.22h-2.6l-.22-.22c0-1.3,1.08-3.25,4.55-3.25s4.54,1.73,4.54,5v5.84Zm-3-4.55a3.12,3.12,0,0,0-1.3-.22q-1.95,0-2,1.3c0,.64.43,1.08,1.51,1.08a1.75,1.75,0,0,0,1.95-1.51v-.44Z"/><path class="cls-2" d="M152.54,36.48h-2.6l-.22-.22V21.55l.22-.22h2.6l.22.22V36.26Z"/><path class="cls-2" d="M171.46,30.42h-4.11l-.22.22v5.62l-.22.22h-2.6l-.21-.22V21.55l.21-.22h7.14c3,0,5.2,1.51,5.2,4.55S174.5,30.42,171.46,30.42Zm0-6.49h-4.11l-.22.22v3.46l.22.21h4.11c1.3,0,2.17-.43,2.17-1.95S172.77,23.93,171.46,23.93Z"/><path class="cls-2" d="M186.83,36.48h-2.38l-.22-.22-.22-.43h-.22a3.52,3.52,0,0,1-2.37.86c-2.38,0-3.9-1.29-3.9-3.46,0-3.25,3-3.68,4.76-3.68a5.2,5.2,0,0,1,1.51.22l.22-.22v-.22c0-1.08-.22-1.3-1.51-1.3-.64,0-1.3,0-1.51.65l-.22.22h-2.6l-.22-.22c0-1.3,1.08-3.25,4.54-3.25s4.54,1.73,4.54,5v5.84Zm-3-4.55a3.12,3.12,0,0,0-1.3-.21q-1.94,0-1.94,1.3c0,.65.43,1.08,1.51,1.08A1.74,1.74,0,0,0,184,32.58v-.44Z"/><path class="cls-2" d="M196.28,28.25h-1.52c-1.73,0-2.38.87-2.38,2.82v5.19l-.22.22h-2.59l-.22-.22V25.88l.22-.22h2.37l.22.22.22.65h.22s.43-.87,2.38-.87h1.3l.22.22V28Z"/><path class="cls-2" d="M202.51,33.23a.58.58,0,0,0,.65.65h1.95l.22.22v2.16l-.22.22h-1.95c-1.95,0-3.68-.87-3.68-3.24V28.47l-.21-.22h-1.52l-.22-.21V25.88l.22-.22h1.52l.21-.22V23.49l.22-.22h2.6l.21.22v1.95l.22.22h2.38l.22.22V28l-.22.21h-2.38l-.22.22Z"/><path class="cls-2" d="M217.29,36.48h-2.6l-.21-.22V30c0-1.08-.43-1.94-1.73-1.94-1.52,0-2.38.86-2.38,2.81v5.4l-.22.22h-2.59l-.22-.22V25.88l.22-.22h2.38l.21.22.22.65h.21a3.81,3.81,0,0,1,2.81-1.09c2.6,0,4.11,1.73,4.11,4.33v6.48Z"/><path class="cls-2" d="M229.59,31.93l-.22.22h-6.71l-.22.22a2,2,0,0,0,2.16,1.73,1.69,1.69,0,0,0,1.51-.65l.22-.22h2.6l.21.22c-.21,1.3-1.3,3.24-4.54,3.24-3.68,0-5.41-2.59-5.41-5.62s1.73-5.63,5.19-5.63,5.19,2.6,5.19,5.63Zm-3.25-2.16a2,2,0,0,0-3.89,0l.22.21h3.46Z"/><path class="cls-2" d="M238.35,28.25h-1.51c-1.73,0-2.38.87-2.38,2.82v5.19l-.21.22h-2.6l-.21-.22V25.88l.21-.22H234l.22.22.21.65h.22s.43-.87,2.38-.87h1.3l.22.22V28Z"/><path class="cls-2" d="M244.37,36.69c-3,0-4.76-1.51-4.76-3.68l.22-.22h2.6l.22.22c0,.86.64,1.08,1.73,1.08s1.73-.22,1.73-.86c0-.87-.87-.87-2.16-1.09s-4.11-.87-4.11-3.46c0-1.73,1.3-3.25,4.54-3.25,2.59,0,4.54,1.09,4.54,3.25l-.22.22H246.1l-.22-.22c0-.43-.44-.65-1.51-.65s-1.51.21-1.51.86c0,.87,1.3.87,2.59,1.08s3.68.65,3.68,3.25C249.13,35,247.83,36.69,244.37,36.69Z"/><path class="cls-2" d="M260.95,36.48h-2.59l-.22-.22V30c0-1.08-.43-1.94-1.73-1.94-1.51,0-2.38.86-2.38,2.81v5.4l-.22.22h-2.59l-.22-.22V21.55l.22-.22h2.59l.22.22v5h.22a3.82,3.82,0,0,1,2.81-1.09c2.6,0,4.11,1.73,4.11,4.33v6.48Z"/><path class="cls-2" d="M266.41,23.93h-2.59l-.22-.22V21.55l.22-.22h2.59l.22.22v2.16Zm0,12.55h-2.59l-.22-.22V25.88l.22-.22h2.59l.22.22V36.25Z"/><path class="cls-2" d="M275.11,36.69a3.63,3.63,0,0,1-2.81-1.08h-.22v5l-.22.22h-2.6l-.22-.22V25.88l.22-.22h2.38l.22.22.22.65h.22a3.63,3.63,0,0,1,2.81-1.09c2.6,0,4.76,2.17,4.76,5.63S277.71,36.69,275.11,36.69ZM274.46,28c-1.73,0-2.38,1.3-2.38,3s.65,3,2.38,3,2.38-1.3,2.38-3S276.2,28,274.46,28Z"/><path class="cls-2" d="M95.95,48.32h-1.4l-.14.14v5.45l-.14.14H93.15L93,53.92V48.46l-.14-.14h-1l-.14-.14v-1l.14-.14h1l.14-.14v-.56a1.79,1.79,0,0,1,2-1.82h1.12l.14.14v1l-.14.14H95a.51.51,0,0,0-.56.55v.56l.14.14h1.4l.14.14v1Z"/><path class="cls-2" d="M100.14,46.93c2.1,0,3.36,1.39,3.36,3.64s-1.26,3.64-3.36,3.64-3.36-1.41-3.36-3.64S98,46.93,100.14,46.93Zm0,6c1.26,0,2-.84,2-2.37s-.7-2.38-2-2.38-2,.84-2,2.38S98.89,52.94,100.14,52.94Z"/><path class="cls-2" d="M108.72,48.32H108c-1.12,0-1.82.42-1.82,2.1v3.5l-.14.14h-1.12l-.14-.14V47.21l.14-.14h1l.14.14.14.56h.14a2.22,2.22,0,0,1,1.82-.7h.56l.14.14v1Z"/><path class="cls-2" d="M120.33,54.06H114l-.14-.14V44.41l.14-.14h6.29l.14.14v1l-.14.14h-4.89l-.14.14v2.65l.14.14h4.61l.14.14v1l-.14.14h-4.61l-.14.14v2.79l.14.13h4.89l.14.14v1Z"/><path class="cls-2" d="M130.1,48.32h-1.4l-.14.14v5.45l-.14.14h-1.12l-.14-.14V48.46l-.14-.14h-2.66l-.14.14v5.45l-.14.14H123l-.14-.14V48.46l-.14-.14h-1l-.14-.14v-1l.14-.14h1l.14-.14v-.56a1.79,1.79,0,0,1,2-1.82h1.12l.14.14v1l-.14.14h-1.12a.51.51,0,0,0-.56.55v.56l.14.14H127l.14-.14v-.56a1.79,1.79,0,0,1,2-1.82h1.12l.14.14v1l-.14.14h-1.12a.51.51,0,0,0-.56.55v.56l.14.14h1.4l.14.14v1Z"/><path class="cls-2" d="M131,50.57c0-2,1-3.64,3.22-3.64s3.21,1.68,3.21,3.64V51l-.14.14h-4.61l-.14.14a1.67,1.67,0,0,0,1.82,1.68,1.33,1.33,0,0,0,1.4-.84l.14-.14H137l.14.14a2.56,2.56,0,0,1-2.79,2.1C132.15,54.2,131,52.66,131,50.57Zm4.9-.7a1.68,1.68,0,1,0-3.36,0l.14.13h3.08Z"/><path class="cls-2" d="M141.77,52.94a1.5,1.5,0,0,0,1.68-1.12l.14-.14h1.12l.14.14c-.14,1.26-1.12,2.38-3.08,2.38s-3.35-1.41-3.35-3.64,1.26-3.64,3.35-3.64,2.94,1.11,3.08,2.37l-.14.14h-1.12l-.14-.14a1.51,1.51,0,0,0-1.68-1.12c-1.26,0-2,.84-2,2.38S140.51,52.94,141.77,52.94Z"/><path class="cls-2" d="M149.93,54.06h-1.12a1.79,1.79,0,0,1-2-1.82V48.46l-.14-.14h-1l-.14-.14v-1l.14-.14h1l.14-.14V45.67l.14-.14h1.12l.14.14v1.26l.14.14h1.54l.14.14v1l-.14.14h-1.54l-.14.14v3.78a.51.51,0,0,0,.56.55h1.12l.14.14v1Z"/><path class="cls-2" d="M152.56,46h-1.12l-.14-.14V44.69l.14-.14h1.12l.14.14v1.12Zm0,8.11h-1.12l-.14-.14V47.21l.14-.14h1.12l.14.14v6.71Z"/><path class="cls-2" d="M157.76,53.92l-.14.14h-1.25l-.14-.14-2.37-5.73v-1l.14-.14h.84l.14.14,2,4.89h.14l2-4.89.14-.14H160l.14.14v1Z"/><path class="cls-2" d="M160.87,50.57c0-2,1-3.64,3.21-3.64s3.22,1.68,3.22,3.64V51l-.14.14h-4.61l-.14.14a1.67,1.67,0,0,0,1.82,1.68,1.34,1.34,0,0,0,1.4-.84l.14-.14h1.12l.14.14a2.57,2.57,0,0,1-2.8,2.1C162,54.2,160.87,52.66,160.87,50.57Zm4.9-.7a1.68,1.68,0,1,0-3.36,0l.14.13h3.08Z"/><path class="cls-2" d="M175.56,54.06h-2.94l-.14-.14V44.41l.14-.14h2.94c3.5,0,4.61,2,4.61,4.9S179.06,54.06,175.56,54.06Zm-.14-8.53H174l-.14.14v7l.14.13h1.4c2.65,0,3.35-1.25,3.35-3.63S178.07,45.53,175.42,45.53Z"/><path class="cls-2" d="M181.32,50.57c0-2,1-3.64,3.22-3.64s3.22,1.68,3.22,3.64V51l-.14.14H183l-.14.14a1.66,1.66,0,0,0,1.82,1.68,1.33,1.33,0,0,0,1.4-.84l.14-.14h1.12l.14.14a2.56,2.56,0,0,1-2.79,2.1C182.44,54.2,181.32,52.66,181.32,50.57Zm4.9-.7a1.68,1.68,0,1,0-3.36,0L183,50h3.08Z"/><path class="cls-2" d="M192.4,53.92l-.14.14H191l-.14-.14-2.37-5.73v-1l.14-.14h.84l.14.14,2,4.89h.14l2-4.89.14-.14h.84l.14.14v1Z"/><path class="cls-2" d="M195.51,50.57c0-2,1-3.64,3.21-3.64s3.22,1.68,3.22,3.64V51l-.14.14h-4.62l-.14.14a1.66,1.66,0,0,0,1.82,1.68,1.33,1.33,0,0,0,1.4-.84l.14-.14h1.12l.14.14a2.55,2.55,0,0,1-2.79,2.1C196.63,54.2,195.51,52.66,195.51,50.57Zm4.89-.7a1.68,1.68,0,1,0-3.36,0l.14.13h3.08Z"/><path class="cls-2" d="M204.49,54.06h-1.12l-.14-.14V44.41l.14-.14h1.12l.14.14v9.51Z"/><path class="cls-2" d="M209.28,46.93c2.1,0,3.36,1.39,3.36,3.64s-1.26,3.64-3.36,3.64-3.35-1.41-3.35-3.64S207.19,46.93,209.28,46.93Zm0,6c1.26,0,2-.84,2-2.37s-.7-2.38-2-2.38-2,.84-2,2.38S208,52.94,209.28,52.94Z"/><path class="cls-2" d="M217.31,54.2a2.22,2.22,0,0,1-1.82-.84h-.14v3.35l-.14.14h-1.12l-.14-.14V47.21l.14-.14h1l.14.14.14.56h.14a2.22,2.22,0,0,1,1.82-.84c2,0,3.07,1.53,3.07,3.64S219.26,54.2,217.31,54.2Zm-.14-6c-1.12,0-1.82.7-1.82,2.38s.7,2.37,1.82,2.37S219,52.1,219,50.57,218.28,48.19,217.17,48.19Z"/><path class="cls-2" d="M231.35,54.06h-1.12l-.14-.14V49.72c0-.84-.14-1.54-1.26-1.54s-1.54.7-1.54,1.82v3.92l-.14.14H226l-.14-.14V49.72c0-.84-.14-1.54-1.25-1.54-.7,0-1.54.42-1.54,1.82v3.92l-.14.14h-1.12l-.14-.14V47.21l.14-.14h1l.14.14.14.56h.14a2.06,2.06,0,0,1,1.81-.84,1.93,1.93,0,0,1,1.82,1H227a2.53,2.53,0,0,1,2.1-1c2,0,2.37,1.26,2.37,2.79v4.19Z"/><path class="cls-2" d="M232.72,50.57c0-2,1-3.64,3.21-3.64s3.21,1.68,3.21,3.64V51l-.14.14H234.4l-.14.14a1.66,1.66,0,0,0,1.82,1.68,1.33,1.33,0,0,0,1.4-.84l.14-.14h1.12l.14.14a2.55,2.55,0,0,1-2.79,2.1C233.83,54.2,232.72,52.66,232.72,50.57Zm4.89-.7a1.68,1.68,0,1,0-3.35,0l.14.13h3.07Z"/><path class="cls-2" d="M246.32,54.06H245.2l-.14-.14V49.87c0-.7-.14-1.68-1.4-1.68s-1.82.7-1.82,2.38v3.35l-.14.14h-1.12l-.14-.14V47.21l.14-.14h1l.14.14.14.56H242a2.21,2.21,0,0,1,1.82-.84c2,0,2.66,1.26,2.66,2.94v4.05Z"/><path class="cls-2" d="M251.69,54.06h-1.12a1.79,1.79,0,0,1-2-1.82V48.46l-.14-.14h-1l-.14-.14v-1l.14-.14h1l.14-.14V45.67l.14-.14h1.12l.13.14v1.26l.14.14h1.54l.14.14v1l-.14.14h-1.54l-.14.14v3.78a.51.51,0,0,0,.56.55h1.12l.14.14v1Z"/><path class="cls-2" d="M256.88,49.24c0-2.94,1.68-5,4.62-5a3.63,3.63,0,0,1,3.92,2.93l-.14.14h-1.12l-.14-.14a2.38,2.38,0,0,0-2.52-1.68c-2.1,0-3.22,1.54-3.22,3.77S259.39,53,261.49,53A2.37,2.37,0,0,0,264,51.19l.14-.14h1.12l.14.14a3.63,3.63,0,0,1-3.92,3.08C258.56,54.27,256.88,52.17,256.88,49.24Z"/><path class="cls-2" d="M269.86,47c2.1,0,3.36,1.4,3.36,3.63s-1.26,3.64-3.36,3.64-3.36-1.4-3.36-3.64S267.76,47,269.86,47Zm0,6c1.26,0,2-.84,2-2.38s-.7-2.37-2-2.37-2,.84-2,2.37S268.6,53,269.86,53Z"/><path class="cls-2" d="M278.57,51.19h-3.78l-.14-.14v-1l.14-.14h3.78l.14.14v1Z"/><path class="cls-2" d="M283.49,47c2.1,0,3.35,1.4,3.35,3.63s-1.26,3.64-3.35,3.64-3.36-1.4-3.36-3.64S281.4,47,283.49,47Zm0,6c1.26,0,2-.84,2-2.38s-.7-2.37-2-2.37-2,.84-2,2.37S282.23,53,283.49,53Z"/><path class="cls-2" d="M291.52,54.27a2.21,2.21,0,0,1-1.82-.84h-.14v3.36l-.14.14H288.3l-.14-.14V47.28l.14-.14h1l.14.14.14.56h.14a2.21,2.21,0,0,1,1.82-.84c2,0,3.07,1.54,3.07,3.63S293.47,54.27,291.52,54.27Zm-.15-6c-1.11,0-1.81.7-1.81,2.37s.7,2.38,1.81,2.38,1.82-.84,1.82-2.38S292.5,48.26,291.37,48.26Z"/><path class="cls-2" d="M295.54,50.63c0-2,1-3.63,3.21-3.63S302,48.68,302,50.63v.42l-.14.14h-4.61l-.14.14A1.66,1.66,0,0,0,298.9,53a1.33,1.33,0,0,0,1.4-.84l.14-.14h1.12l.14.14a2.56,2.56,0,0,1-2.8,2.1C296.66,54.27,295.54,52.73,295.54,50.63Zm4.89-.7a1.68,1.68,0,1,0-3.35,0l.14.14h3.08Z"/><path class="cls-2" d="M307.18,48.4h-.7c-1.12,0-1.82.41-1.82,2.09V54l-.14.14h-1.12l-.14-.14V47.28l.14-.14h1l.14.14.14.56h.13a2.21,2.21,0,0,1,1.82-.7h.56l.14.14v1Z"/><path class="cls-2" d="M313.73,54.13h-1l-.14-.14-.14-.56h-.14a2.34,2.34,0,0,1-2,.84A2.1,2.1,0,0,1,308,52c0-1.54,1.26-2.23,3.08-2.23a5.84,5.84,0,0,1,1.26.14l.14-.14v-.29c0-1-.42-1.25-1.4-1.25s-1.4.28-1.4.84l-.14.14h-1.12l-.14-.14c0-1,.7-2.1,2.8-2.1s2.8,1,2.8,3.08V54Zm-1.26-2.94-.14-.14a3.91,3.91,0,0,0-1.12-.14c-1.25,0-1.82.41-1.82,1.11s.42,1,1.26,1c1.12,0,1.82-.55,1.82-1.39Z"/><path class="cls-2" d="M319.12,54.13H318a1.79,1.79,0,0,1-2-1.82V48.54l-.14-.14h-1l-.14-.14v-1l.14-.14h1L316,47V45.74l.14-.14h1.12l.14.14V47l.14.14h1.54l.14.14v1l-.14.14h-1.54l-.14.14v3.78a.51.51,0,0,0,.56.56h1.12l.14.14v1Z"/><path class="cls-2" d="M321.75,46h-1.12l-.14-.14V44.76l.14-.13h1.12l.14.13v1.12Zm0,8.11h-1.12l-.14-.14V47.28l.14-.14h1.12l.14.14V54Z"/><path class="cls-2" d="M326.54,47c2.1,0,3.36,1.4,3.36,3.63s-1.26,3.64-3.36,3.64-3.35-1.4-3.35-3.64S324.44,47,326.54,47Zm0,6c1.26,0,2-.84,2-2.38s-.7-2.37-2-2.37-2,.84-2,2.37S325.28,53,326.54,53Z"/><path class="cls-2" d="M337.08,54.13H336l-.14-.14V49.94c0-.7-.14-1.68-1.4-1.68s-1.82.7-1.82,2.37V54l-.14.14h-1.12l-.14-.14V47.28l.14-.14h1l.14.14.14.56h.14a2.21,2.21,0,0,1,1.82-.84c2,0,2.65,1.26,2.65,2.94V54Z"/><rect class="cls-2" x="91.75" y="60.89" width="139.22" height="18.56"/><path class="cls-1" d="M98.15,65h1.79V69.6h0c.24-.39.48-.74.72-1.07L103.29,65h2.23l-3.41,4.22,3.63,5.68h-2.11l-2.81-4.54-.88,1.06v3.48H98.15Z"/><path class="cls-1" d="M106.71,69.92c0-.82,0-1.51-.06-2.13h1.59l.09,1.08h0a2.59,2.59,0,0,1,2.28-1.24c1.25,0,2.54.81,2.54,3.08v4.24h-1.81v-4c0-1-.38-1.81-1.37-1.81a1.52,1.52,0,0,0-1.41,1.06,1.8,1.8,0,0,0-.07.59v4.2h-1.82Z"/><path class="cls-1" d="M121.92,71.3a3.55,3.55,0,0,1-3.68,3.81,3.46,3.46,0,0,1-3.58-3.69,3.54,3.54,0,0,1,3.71-3.79A3.44,3.44,0,0,1,121.92,71.3Zm-5.39.08c0,1.38.68,2.42,1.78,2.42s1.75-1,1.75-2.45c0-1.12-.5-2.4-1.74-2.4S116.52,70.19,116.52,71.38Z"/><path class="cls-1" d="M124.38,67.79l.75,3.25c.16.77.32,1.54.45,2.32h0c.15-.78.38-1.57.59-2.31l.93-3.26h1.47l.89,3.18c.22.84.41,1.61.57,2.39h0c.12-.78.28-1.56.47-2.39l.79-3.18h1.78l-2.25,7.16h-1.67L128.36,72a21.29,21.29,0,0,1-.55-2.29h0a18.48,18.48,0,0,1-.54,2.29l-.91,2.91h-1.69l-2.12-7.16Z"/><path class="cls-1" d="M134.31,64.52h1.82V74.95h-1.82Z"/><path class="cls-1" d="M139.36,71.88a1.94,1.94,0,0,0,2.2,1.85,5.33,5.33,0,0,0,2-.33l.27,1.25a6.76,6.76,0,0,1-2.5.44,3.39,3.39,0,0,1-3.69-3.61c0-2,1.21-3.86,3.5-3.86s3.08,1.91,3.08,3.49a4.5,4.5,0,0,1-.06.76Zm3.14-1.27A1.54,1.54,0,0,0,141,68.87a1.77,1.77,0,0,0-1.66,1.75Z"/><path class="cls-1" d="M152.27,64.52v8.42c0,.73,0,1.53.06,2h-1.62l-.07-1.13h0a2.58,2.58,0,0,1-2.34,1.29c-1.7,0-3.06-1.46-3.06-3.66,0-2.39,1.49-3.82,3.21-3.82a2.28,2.28,0,0,1,2,.94h0V64.52Zm-1.81,6.26a2.31,2.31,0,0,0,0-.47A1.58,1.58,0,0,0,148.86,69c-1.16,0-1.81,1-1.81,2.36s.65,2.27,1.79,2.27a1.6,1.6,0,0,0,1.56-1.28,1.93,1.93,0,0,0,.06-.53Z"/><path class="cls-1" d="M160.75,67.79c0,.49-.06,1.08-.06,2.06v4.05A3.45,3.45,0,0,1,156.87,78a5,5,0,0,1-2.49-.58l.39-1.36a4.36,4.36,0,0,0,2.09.54,1.9,1.9,0,0,0,2.06-2.16v-.62h0a2.41,2.41,0,0,1-2.09,1.06c-1.78,0-3-1.47-3-3.5,0-2.35,1.53-3.78,3.25-3.78a2.26,2.26,0,0,1,2.07,1.12h0l.08-1Zm-1.87,2.87a1.77,1.77,0,0,0-.06-.48A1.51,1.51,0,0,0,157.36,69c-1,0-1.76.88-1.76,2.34,0,1.22.62,2.2,1.75,2.2a1.55,1.55,0,0,0,1.47-1.09,3.17,3.17,0,0,0,.07-.65Z"/><path class="cls-1" d="M163.92,71.88a1.94,1.94,0,0,0,2.21,1.85,5.35,5.35,0,0,0,2-.33l.27,1.25a6.75,6.75,0,0,1-2.5.44,3.38,3.38,0,0,1-3.69-3.61c0-2,1.2-3.86,3.5-3.86s3.09,1.91,3.09,3.49a4.76,4.76,0,0,1-.06.76Zm3.15-1.27a1.54,1.54,0,0,0-1.49-1.75,1.77,1.77,0,0,0-1.66,1.75Z"/><path class="cls-1" d="M173.34,65.18a16.14,16.14,0,0,1,2.77-.2,4.51,4.51,0,0,1,2.93.8A2.81,2.81,0,0,1,180,68a3,3,0,0,1-.85,2.25A4.39,4.39,0,0,1,176,71.27a5.32,5.32,0,0,1-.88-.06v3.73h-1.79Zm1.79,4.61a3.48,3.48,0,0,0,.88.07c1.35,0,2.17-.66,2.17-1.82s-.76-1.69-2-1.69a5.19,5.19,0,0,0-1,.09Z"/><path class="cls-1" d="M181.45,64.52h1.82V74.95h-1.82Z"/><path class="cls-1" d="M189.25,74.95l-.12-.79h0a2.64,2.64,0,0,1-2.12,1A2.13,2.13,0,0,1,184.72,73c0-1.81,1.6-2.72,4.25-2.7v-.12c0-.47-.19-1.25-1.46-1.25a3.76,3.76,0,0,0-1.92.53l-.35-1.18a5.18,5.18,0,0,1,2.59-.63c2.29,0,3,1.46,3,3v2.59a11,11,0,0,0,.1,1.71Zm-.24-3.5c-1.28,0-2.5.25-2.5,1.34a1,1,0,0,0,1,1,1.47,1.47,0,0,0,1.41-1,1.26,1.26,0,0,0,.06-.39Z"/><path class="cls-1" d="M194.68,65.75v2h1.72v1.35h-1.72v3.16c0,.87.24,1.32.93,1.32a2.46,2.46,0,0,0,.71-.09l0,1.38a4,4,0,0,1-1.31.18,2.09,2.09,0,0,1-1.56-.58,2.85,2.85,0,0,1-.56-2V69.14h-1V67.79h1V66.18Z"/><path class="cls-1" d="M198,74.95v-5.8h-1V67.79h1v-.31a3.33,3.33,0,0,1,.87-2.44,2.73,2.73,0,0,1,1.87-.69,3.58,3.58,0,0,1,1.16.18l-.13,1.39a2.18,2.18,0,0,0-.76-.13c-.9,0-1.2.75-1.2,1.63v.37h1.57v1.35h-1.56v5.8Z"/><path class="cls-1" d="M209.1,71.3a3.55,3.55,0,0,1-3.68,3.81,3.47,3.47,0,0,1-3.59-3.69,3.54,3.54,0,0,1,3.71-3.79A3.44,3.44,0,0,1,209.1,71.3Zm-5.4.08c0,1.38.67,2.42,1.78,2.42s1.75-1,1.75-2.45c0-1.12-.5-2.4-1.73-2.4S203.71,70.19,203.71,71.38Z"/><path class="cls-1" d="M210.59,70.1c0-1,0-1.66-.06-2.31h1.58l.06,1.37h.06a2.13,2.13,0,0,1,2-1.54,1.87,1.87,0,0,1,.43.05v1.7a2.52,2.52,0,0,0-.53-.06,1.59,1.59,0,0,0-1.62,1.37,3,3,0,0,0-.06.56v3.7h-1.81Z"/><path class="cls-1" d="M215.82,69.92c0-.82,0-1.51-.06-2.13h1.56l.07,1.06h0a2.48,2.48,0,0,1,2.2-1.22,2.07,2.07,0,0,1,2,1.32h0a2.67,2.67,0,0,1,.88-.89,2.39,2.39,0,0,1,1.44-.43c1.19,0,2.39.81,2.39,3.1v4.22h-1.76V71c0-1.19-.41-1.9-1.28-1.9a1.37,1.37,0,0,0-1.26,1,2.45,2.45,0,0,0-.09.6v4.29h-1.76V70.81c0-1-.4-1.71-1.23-1.71a1.41,1.41,0,0,0-1.29,1,1.52,1.52,0,0,0-.1.58v4.23h-1.76Z"/><path class="cls-3" d="M61.48,41.27a2.21,2.21,0,0,0-3.62,2.36l-2.53,2.53a2.2,2.2,0,0,0-1.73-.07l-2.46-2.46a2.21,2.21,0,1,0-1.27,1.27l2.46,2.46a2.21,2.21,0,1,0,4.17.16l2.62-2.62a2.21,2.21,0,0,0,2.35-3.62Z"/><path class="cls-4" d="M50,52.06a7.39,7.39,0,0,1-1.59-13.65l-2.6-5.17A13,13,0,1,0,57.49,56.48L55,51.61A7.37,7.37,0,0,1,50,52.06Z"/><path class="cls-5" d="M57.48,28.17,55.74,33.8A13.11,13.11,0,0,1,48,58.86l-1.73,5.62a19,19,0,0,0,11.2-36.31Z"/><path class="cls-6" d="M54.5,25A20.7,20.7,0,0,1,69.12,60.37c-1.25,1.25-2.91,4.89-4.92,10.83l-.83.32c-.37.14-.69.26-.9.35l-.82.38A1.91,1.91,0,0,0,60.54,74v1H48.47V74a1.91,1.91,0,0,0-1.11-1.73l-.83-.38c-.2-.09-.52-.21-.9-.36l-.86-.33c-1.39-3.59-3.88-9.68-5.59-11.56A20.7,20.7,0,0,1,54.5,25m0-5A25.72,25.72,0,0,0,35.45,63c.48.56,2.08,3.37,4.63,10l.78,2,2,.82.6.24V80H65.56V76.06l.55-.22L68.22,75,69,72.81c2.38-7,3.57-8.69,3.75-8.93A25.72,25.72,0,0,0,54.5,20Z"/></g></svg>