<?xml version="1.0" encoding="UTF-8"?>
<svg width="112px" height="134px" viewBox="0 0 112 134" version="1.1" xmlns="http://www.w3.org/2000/svg" xmlns:xlink="http://www.w3.org/1999/xlink">
    <!-- Generator: Sketch 47.1 (45422) - http://www.bohemiancoding.com/sketch -->
    <title>Artboard</title>
    <desc>Created with Sketch.</desc>
    <defs>
        <linearGradient x1="-94.2386182%" y1="50.2088598%" x2="184.403689%" y2="50.2088598%" id="linearGradient-1">
            <stop stop-color="#FDB515" offset="0%"></stop>
            <stop stop-color="#FCAD1D" offset="20%"></stop>
            <stop stop-color="#F89632" offset="50%"></stop>
            <stop stop-color="#F37451" offset="86%"></stop>
        </linearGradient>
        <linearGradient x1="-30.8268534%" y1="49.9844961%" x2="201.14184%" y2="49.9844961%" id="linearGradient-2">
            <stop stop-color="#FDB515" offset="0%"></stop>
            <stop stop-color="#FCAD1D" offset="20%"></stop>
            <stop stop-color="#F89632" offset="50%"></stop>
            <stop stop-color="#F37451" offset="86%"></stop>
        </linearGradient>
        <linearGradient x1="-56.2132184%" y1="49.9574105%" x2="119.597491%" y2="49.9574105%" id="linearGradient-3">
            <stop stop-color="#FDB515" offset="0%"></stop>
            <stop stop-color="#FCAD1D" offset="20%"></stop>
            <stop stop-color="#F89632" offset="50%"></stop>
            <stop stop-color="#F37451" offset="86%"></stop>
        </linearGradient>
        <linearGradient x1="-2.9798055%" y1="50.016137%" x2="99.4281013%" y2="50.016137%" id="linearGradient-4">
            <stop stop-color="#FDB515" offset="0%"></stop>
            <stop stop-color="#FCAD1D" offset="20%"></stop>
            <stop stop-color="#F89632" offset="50%"></stop>
            <stop stop-color="#F37451" offset="86%"></stop>
        </linearGradient>
    </defs>
    <g id="Page-1" stroke="none" stroke-width="1" fill="none" fill-rule="evenodd">
        <g id="Artboard" fill-rule="nonzero">
            <g id="logo-footer">
                <path d="M74.7,43.5 C72.4,41.2 68.7,41.2 66.4,43.5 C64.8,45.1 64.3,47.6 65.1,49.7 L58.4,56.4 C57,55.7 55.3,55.6 53.8,56.2 L47.3,49.7 C48.5,46.7 47,43.3 43.9,42.1 C40.8,40.9 37.5,42.4 36.3,45.5 C35.1,48.5 36.6,51.9 39.7,53.1 C41.1,53.6 42.6,53.6 43.9,53.1 L50.4,59.7 C49.2,62.7 50.7,66.1 53.7,67.3 C56.7,68.5 60.1,67 61.3,64 C61.8,62.8 61.8,61.4 61.4,60.1 L68.4,53.1 C71.4,54.3 74.8,52.8 76,49.7 C76.9,47.6 76.4,45.2 74.7,43.5 L74.7,43.5 Z" id="Shape" fill="url(#linearGradient-1)"></path>
                <path d="M42.1,73.6 C30.6,70.5 23.8,58.6 26.9,47.1 C28.3,41.8 31.7,37.2 36.4,34.4 L30.4,22.5 C13.8,31.7 7.8,52.6 17,69.2 C23.1,80.2 34.6,87 47.1,87 L47.1,87 C52,87 56.9,85.9 61.4,83.9 L55.8,72.8 C51.5,74.5 46.7,74.8 42.1,73.6 Z" id="Shape" fill="url(#linearGradient-2)"></path>
                <path d="M69.6,10.9 C67.7,10 65.8,9.2 63.8,8.5 L62.8,12.2 L59.9,21.5 C61.4,22.1 63,22.7 64.4,23.5 C82.7,33 89.8,55.5 80.3,73.7 C72.3,89.1 54.7,96.9 38,92.6 L34,105 L33.8,105.5 C60.8,113 88.8,97.1 96.2,70.1 C102.8,46.5 91.5,21.6 69.6,10.9 Z" id="Shape" fill="url(#linearGradient-3)"></path>
                <path d="M103,26.2 C86.9,0.4 52.9,-7.6 27,8.5 C1.1,24.6 -6.8,58.6 9.3,84.5 C11,87.3 13,90 15.3,92.4 C19.9,97.4 26.5,113.6 30.2,123.2 C30.7,123.4 31.5,123.7 32.5,124.1 C33.5,124.5 34.4,124.8 34.9,125.1 L37.1,126.1 C38.9,126.9 40.1,128.7 40.1,130.7 L40.1,133.3 L72.2,133.3 L72.2,130.7 C72.2,128.7 73.4,126.9 75.2,126.1 L77.4,125.1 C78,124.9 78.8,124.5 79.8,124.2 C80.8,123.9 81.5,123.6 82,123.3 C87.4,107.5 91.8,97.8 95.1,94.5 C113.3,76.3 116.5,48 103,26.2 L103,26.2 Z M47.3,114.6 C41.9,114.6 36.6,113.8 31.4,112.3 L33.5,106.2 L33.8,105.4 L34,104.9 L33.3,103.1 L32.7,101.4 C32.7,101.3 29.1,91.7 26.8,87 C7.9,75.8 1.6,51.4 12.8,32.4 C16.7,25.8 22.4,20.5 29.2,17.1 L30.4,16.5 L32.1,19.9 C32.9,19.3 33.6,18.8 34.4,18.3 C42.4,13.2 51.2,12 57.4,11.8 L59.9,1.5 C96.9,7.2 111.7,44.1 102.4,74 C95,98.2 72.6,114.7 47.3,114.6 Z" id="Shape" fill="url(#linearGradient-4)"></path>
            </g>
        </g>
    </g>
</svg>