<svg version="1.1" id="Laag_1" xmlns="http://www.w3.org/2000/svg" xmlns:xlink="http://www.w3.org/1999/xlink" x="0px" y="0px"
	 viewBox="0 0 425.2 318.9" style="enable-background:new 0 0 425.2 425.2; " xml:space="preserve">
<style type="text/css">
	.st1{fill:#5DC1D3;}
</style>
<g>
	<circle class="st1" cx="190.6" cy="149.4" r="5.3"/>
	<circle class="st1" cx="230.4" cy="111.8" r="5.3"/>
	<circle class="st1" cx="217" cy="122.5" r="5.3"/>
	<circle class="st1" cx="220.2" cy="91.4" r="5.3"/>
	<circle class="st1" cx="204.9" cy="114" r="5.3"/>
	<circle class="st1" cx="186.1" cy="108.8" r="5.3"/>
	<circle class="st1" cx="250" cy="121.1" r="5.3"/>
	<circle class="st1" cx="234.9" cy="132.4" r="5.3"/>
	<circle class="st1" cx="219.7" cy="147.3" r="5.3"/>
	<circle class="st1" cx="206.7" cy="154.1" r="5.3"/>
	<circle class="st1" cx="219.7" cy="135.3" r="3.2"/>
	<circle class="st1" cx="241.4" cy="159.8" r="5.3"/>
	<circle class="st1" cx="198.2" cy="166.5" r="5.3"/>
	<circle class="st1" cx="153.8" cy="172.7" r="2.4"/>
	<circle class="st1" cx="137.6" cy="151.4" r="4.6"/>
	<circle class="st1" cx="180" cy="177.3" r="4.8"/>
	<circle class="st1" cx="172.2" cy="164.8" r="4.5"/>
	<circle class="st1" cx="212.7" cy="171" r="5.3"/>
	<circle class="st1" cx="188.2" cy="193.6" r="5.3"/>
	<circle class="st1" cx="227.1" cy="159.5" r="5.3"/>
	<circle class="st1" cx="159" cy="124.4" r="5.3"/>
	<circle class="st1" cx="237" cy="175.5" r="5.3"/>
	<circle class="st1" cx="251.8" cy="171.1" r="3.9"/>
	<circle class="st1" cx="215.1" cy="203.3" r="5.3"/>
	<circle class="st1" cx="251.1" cy="186" r="5.3"/>
	<circle class="st1" cx="277.7" cy="150.6" r="3.5"/>
	<circle class="st1" cx="231" cy="191.6" r="5.3"/>
	<circle class="st1" cx="218.9" cy="184.5" r="5.3"/>
	<circle class="st1" cx="175.4" cy="144.1" r="4.5"/>
	<circle class="st1" cx="263.3" cy="150.5" r="5.3"/>
	<circle class="st1" cx="258.7" cy="135" r="5.3"/>
	<circle class="st1" cx="202.8" cy="139.1" r="5.3"/>
	<circle class="st1" cx="206.9" cy="127.5" r="3.2"/>
	<circle class="st1" cx="215.6" cy="160.1" r="3.2"/>
	<circle class="st1" cx="162.9" cy="180.7" r="3.2"/>
	<circle class="st1" cx="182.1" cy="159" r="3.2"/>
	<circle class="st1" cx="187" cy="133.5" r="4.8"/>
	<circle class="st1" cx="259.5" cy="163.4" r="4.2"/>
	<circle class="st1" cx="251.5" cy="152.8" r="3.5"/>
	<circle class="st1" cx="244.5" cy="105.6" r="4.7"/>
	<circle class="st1" cx="261.5" cy="108.8" r="3.5"/>
	<circle class="st1" cx="248.2" cy="206.7" r="5.3"/>
	<circle class="st1" cx="241.3" cy="144.4" r="5.3"/>
	<circle class="st1" cx="271.6" cy="121.9" r="4.5"/>
	<circle class="st1" cx="202.5" cy="183" r="5.3"/>
	<circle class="st1" cx="170.7" cy="195.6" r="5.3"/>
	<circle class="st1" cx="293.8" cy="126.1" r="3.2"/>
	<circle class="st1" cx="229.3" cy="143.4" r="3.2"/>
	<circle class="st1" cx="272.2" cy="181.1" r="5.3"/>
	<circle class="st1" cx="160.4" cy="153" r="1.9"/>
	<circle class="st1" cx="250.4" cy="82.3" r="1.9"/>
	<circle class="st1" cx="124.6" cy="121.3" r="1.9"/>
	<circle class="st1" cx="121.1" cy="202" r="1.9"/>
	<circle class="st1" cx="149.3" cy="188.9" r="1.9"/>
	<circle class="st1" cx="283.1" cy="216.1" r="1.9"/>
	<circle class="st1" cx="146.9" cy="91.3" r="3.5"/>
	<circle class="st1" cx="281.3" cy="91.3" r="3.5"/>
	<circle class="st1" cx="297.3" cy="181.5" r="3.5"/>
	<circle class="st1" cx="184" cy="219.2" r="3.5"/>
</g>
</svg>
