<svg width="88.79" height="33.26" xmlns="http://www.w3.org/2000/svg">
    <defs>
        <style>.a{fill:#5ec1d3;}.b,.c{fill:#fff;}.c{isolation:isolate;font-size:4.37px;font-family:ArialMT, Arial;}</style>
    </defs>
    <g>
        <title>background</title>
        <rect fill="none" id="canvas_background" height="602" width="802" y="-1" x="-1"/>
    </g>
    <g>
        <title>Layer 1</title>
        <path id="svg_1" d="m15.68,16.13a1.1,1.1 0 0 1 0,2.2a1.1,1.1 0 0 1 -1.2,-1a1.11,1.11 0 0 1 1,-1.2l0.2,0" class="a"/>
        <path id="svg_2" d="m24,8.27a1.11,1.11 0 1 1 -1.11,1.12a1.11,1.11 0 0 1 1.11,-1.12l0,0" class="a"/>
        <path id="svg_3" d="m21.2,10.5a1.11,1.11 0 1 1 -1.11,1.11l0,0a1.1,1.1 0 0 1 1.09,-1.11l0,0" class="a"/>
        <path id="svg_4" d="m21.85,4a1.12,1.12 0 0 1 1.15,1.12a1.11,1.11 0 0 1 -1.1,1.11a1.09,1.09 0 0 1 -1.11,-1.09l0,0a1.09,1.09 0 0 1 1.06,-1.14" class="a"/>
        <path id="svg_5" d="m18.66,8.74a1.11,1.11 0 1 1 -1.1,1.1l0,0a1.1,1.1 0 0 1 1.1,-1.09" class="a"/>
        <path id="svg_6" d="m14.75,7.65a1.11,1.11 0 0 1 1.2,1a1.1,1.1 0 0 1 -1,1.2l-0.2,0a1.1,1.1 0 0 1 -1,-1.2a1.11,1.11 0 0 1 1,-1" class="a"/>
        <path id="svg_7" d="m28.07,10.22a1.11,1.11 0 1 1 -1.07,1.11l0,0a1.1,1.1 0 0 1 1.1,-1.1l0,0" class="a"/>
        <path id="svg_8" d="m24.93,12.58a1.11,1.11 0 1 1 -1.1,1.1l0,0a1.09,1.09 0 0 1 1.1,-1.09" class="a"/>
        <path id="svg_9" d="m21.77,15.67a1.11,1.11 0 0 1 1.11,1.1a1.09,1.09 0 0 1 -1.09,1.11a1.11,1.11 0 0 1 -1.12,-1.09l0,0a1.1,1.1 0 0 1 1.1,-1.1" class="a"/>
        <path id="svg_10" d="m19.05,17.1a1.12,1.12 0 0 1 1.12,1.1a1.11,1.11 0 0 1 -1.1,1.11a1.09,1.09 0 0 1 -1.07,-1.09l0,0a1.09,1.09 0 0 1 1,-1.12l0,0" class="a"/>
        <path id="svg_11" d="m21.77,13.61a0.68,0.68 0 1 1 -0.68,0.67l0,0a0.66,0.66 0 0 1 0.66,-0.67l0,0" class="a"/>
        <path id="svg_12" d="m26.28,18.29a1.12,1.12 0 0 1 1.21,1a1.1,1.1 0 0 1 -1,1.2a0.74,0.74 0 0 1 -0.21,0a1.09,1.09 0 0 1 -1,-1.2a1.11,1.11 0 0 1 1,-1" class="a"/>
        <path id="svg_13" d="m17.27,19.69a1.11,1.11 0 1 1 0,2.21a1.09,1.09 0 1 1 0,-2.17l0,0" class="a"/>
        <path id="svg_14" d="m8,21.57a0.5,0.5 0 0 1 0,0.95a0.49,0.49 0 0 1 -0.64,-0.3a0.5,0.5 0 0 1 0.64,-0.65" class="a"/>
        <path id="svg_15" d="m4.62,16.67a1,1 0 1 1 -1,1a1,1 0 0 1 1,-1" class="a"/>
        <path id="svg_16" d="m13.48,22.05a0.95,0.95 0 1 1 -1,0.95a0.94,0.94 0 0 1 1,-0.95" class="a"/>
        <path id="svg_17" d="m11.86,19.48a0.95,0.95 0 1 1 -0.95,0.95a0.94,0.94 0 0 1 0.95,-0.95" class="a"/>
        <path id="svg_18" d="m20.29,20.63a1.11,1.11 0 0 1 1.12,1.09a1.12,1.12 0 0 1 -1.1,1.12a1.08,1.08 0 1 1 0,-2.16" class="a"/>
        <path id="svg_19" d="m15.18,25.33a1.11,1.11 0 1 1 0,2.21a1.09,1.09 0 0 1 -1.11,-1.09l0,0a1.11,1.11 0 0 1 1.09,-1.11" class="a"/>
        <path id="svg_20" d="m23.3,18.23a1.11,1.11 0 1 1 -1.1,1.1l0,0a1.09,1.09 0 0 1 1.09,-1.09l0,0" class="a"/>
        <path id="svg_21" d="m9.11,10.9a1.11,1.11 0 1 1 -1.11,1.1l0,0a1.1,1.1 0 0 1 1.1,-1.1l0,0" class="a"/>
        <path id="svg_22" d="m25.36,21.56a1.11,1.11 0 1 1 0,2.21a1.1,1.1 0 0 1 -1.1,-1.1l0,0a1.1,1.1 0 0 1 1.1,-1.1" class="a"/>
        <path id="svg_23" d="m28.44,20.92a0.82,0.82 0 1 1 -0.82,0.82a0.81,0.81 0 0 1 0.8,-0.82l0,0" class="a"/>
        <path id="svg_24" d="m20.82,27.34a1.11,1.11 0 1 1 -1.12,1.11a1.11,1.11 0 0 1 1.12,-1.11l0,0" class="a"/>
        <path id="svg_25" d="m28.29,23.76a1.11,1.11 0 1 1 -1.1,1.11l0,0a1.1,1.1 0 0 1 1.1,-1.1l0,0" class="a"/>
        <path id="svg_26" d="m33.84,16.74a0.72,0.72 0 0 1 0.72,0.72a0.72,0.72 0 1 1 -1.44,0l0,0a0.72,0.72 0 0 1 0.72,-0.72" class="a"/>
        <path id="svg_27" d="m24.11,24.92a1.11,1.11 0 1 1 -1.11,1.08l0,0a1.09,1.09 0 0 1 1.08,-1.1l0,0" class="a"/>
        <path id="svg_28" d="m21.59,23.44a1.11,1.11 0 1 1 -0.21,0a0.74,0.74 0 0 1 0.21,0" class="a"/>
        <path id="svg_29" d="m12.52,15.17a1,1 0 1 1 -1,1a1,1 0 0 1 1,-1" class="a"/>
        <path id="svg_30" d="m30.85,16.35a1.11,1.11 0 1 1 -1.11,1.11l0,0a1.11,1.11 0 0 1 1.11,-1.11" class="a"/>
        <path id="svg_31" d="m29.88,13.11a1.11,1.11 0 0 1 1.12,1.1a1.09,1.09 0 0 1 -1.09,1.11a1.11,1.11 0 0 1 -1.12,-1.09l0,0a1.11,1.11 0 0 1 1.1,-1.1" class="a"/>
        <path id="svg_32" d="m18.22,14a1.11,1.11 0 1 1 -1.1,1.14a1.09,1.09 0 0 1 1.09,-1.14l0,0" class="a"/>
        <path id="svg_33" d="m19.09,12a0.68,0.68 0 0 1 0.69,0.66a0.68,0.68 0 0 1 -1.36,0l0,0a0.66,0.66 0 0 1 0.67,-0.66l0,0" class="a"/>
        <path id="svg_34" d="m20.89,18.79a0.67,0.67 0 1 1 -0.67,0.67a0.67,0.67 0 0 1 0.67,-0.67l0,0" class="a"/>
        <path id="svg_35" d="m13.93,18.55a0.66,0.66 0 0 1 0.65,0.68a0.65,0.65 0 0 1 -0.67,0.65a0.66,0.66 0 0 1 -0.66,-0.66a0.67,0.67 0 0 1 0.67,-0.67l0,0" class="a"/>
        <path id="svg_36" d="m15,12.9a1,1 0 1 1 -1,1a1,1 0 0 1 0.9,-1l0.1,0" class="a"/>
        <path id="svg_37" d="m30.05,19.28a0.87,0.87 0 1 1 -0.87,0.87l0,0a0.87,0.87 0 0 1 0.87,-0.87" class="a"/>
        <path id="svg_38" d="m28.44,17.2a0.73,0.73 0 0 1 0.73,0.73a0.74,0.74 0 0 1 -0.73,0.74l0,0a0.74,0.74 0 1 1 0,-1.47" class="a"/>
        <path id="svg_39" d="m26.93,7.12a1,1 0 1 1 -0.95,1a1,1 0 0 1 0.95,-1" class="a"/>
        <path id="svg_40" d="m27.69,28.06a1.11,1.11 0 1 1 -1.09,1.11l0,0a1.1,1.1 0 0 1 1.09,-1.1" class="a"/>
        <path id="svg_41" d="m26.26,15.11a1.11,1.11 0 0 1 1.11,1.1a1.11,1.11 0 0 1 -2.21,0l0,0a1.11,1.11 0 0 1 1.1,-1.11" class="a"/>
        <path id="svg_42" d="m32.57,10.54a0.95,0.95 0 1 1 -0.95,1a1,1 0 0 1 0.95,-1" class="a"/>
        <path id="svg_43" d="m18.17,23.12a1.11,1.11 0 1 1 -1.11,1.11l0,0a1.1,1.1 0 0 1 1.09,-1.11l0,0" class="a"/>
        <path id="svg_44" d="m11.55,25.74a1.11,1.11 0 1 1 -1.11,1.11l0,0a1.1,1.1 0 0 1 1.09,-1.11l0,0" class="a"/>
        <path id="svg_45" d="m37.2,11.7a0.67,0.67 0 0 1 0.67,0.67a0.66,0.66 0 0 1 -0.67,0.66a0.65,0.65 0 0 1 -0.66,-0.66a0.66,0.66 0 0 1 0.66,-0.67l0,0" class="a"/>
        <path id="svg_46" d="m23.76,15.3a0.67,0.67 0 1 1 -0.67,0.67a0.67,0.67 0 0 1 0.67,-0.67l0,0" class="a"/>
        <path id="svg_47" d="m32.7,22.73a1.11,1.11 0 1 1 -1.11,1.11l0,0a1.1,1.1 0 0 1 1.09,-1.11l0,0" class="a"/>
        <path id="svg_48" d="m9.38,17.58a0.39,0.39 0 1 1 0.12,0.77l-0.12,0a0.38,0.38 0 0 1 -0.32,-0.45a0.39,0.39 0 0 1 0.32,-0.32" class="a"/>
        <path id="svg_49" d="m28.29,0.82a0.39,0.39 0 0 1 0.45,0.32a0.38,0.38 0 0 1 -0.32,0.45a0.28,0.28 0 0 1 -0.13,0a0.38,0.38 0 0 1 -0.38,-0.38a0.39,0.39 0 0 1 0.38,-0.39l0,0" class="a"/>
        <path id="svg_50" d="m1.91,11a0.38,0.38 0 0 1 0.4,0.38a0.39,0.39 0 0 1 -0.38,0.4a0.4,0.4 0 0 1 -0.4,-0.38l0,0a0.38,0.38 0 0 1 0.38,-0.4" class="a"/>
        <path id="svg_51" d="m1.2,27.81a0.39,0.39 0 0 1 0.32,0.45a0.36,0.36 0 0 1 -0.32,0.32a0.38,0.38 0 0 1 -0.45,-0.32a0.4,0.4 0 0 1 0.33,-0.45l0.12,0" class="a"/>
        <path id="svg_52" d="m7.07,25.08a0.39,0.39 0 0 1 0.39,0.39a0.4,0.4 0 0 1 -0.39,0.39a0.39,0.39 0 0 1 -0.39,-0.39l0,0a0.39,0.39 0 0 1 0.39,-0.38" class="a"/>
        <path id="svg_53" d="m35,30.75a0.38,0.38 0 0 1 0.39,0.39a0.39,0.39 0 0 1 -0.39,0.39a0.4,0.4 0 0 1 -0.39,-0.39l0,0a0.39,0.39 0 0 1 0.39,-0.39" class="a"/>
        <path id="svg_54" d="m6.57,4.36a0.74,0.74 0 1 1 -0.73,0.74l0,0a0.74,0.74 0 0 1 0.73,-0.74" class="a"/>
        <path id="svg_55" d="m34.6,4.36a0.74,0.74 0 1 1 -0.73,0.74a0.74,0.74 0 0 1 0.73,-0.74l0,0" class="a"/>
        <path id="svg_56" d="m38,23.18a0.74,0.74 0 1 1 -0.74,0.73a0.73,0.73 0 0 1 0.74,-0.73l0,0" class="a"/>
        <path id="svg_57" d="m14.31,31a0.74,0.74 0 1 1 -0.74,0.74l0,0a0.74,0.74 0 0 1 0.74,-0.74l0,0" class="a"/>
        <path id="svg_58" d="m52.26,17.46a3.77,3.77 0 0 1 -1.48,-0.3a3.36,3.36 0 0 1 -1.19,-0.81a3.85,3.85 0 0 1 -0.79,-1.24a4.47,4.47 0 0 1 0,-3.1a3.6,3.6 0 0 1 2,-2a3.89,3.89 0 0 1 1.5,-0.29a3.8,3.8 0 0 1 1.49,0.29a3.56,3.56 0 0 1 2,2a4.29,4.29 0 0 1 0,3.1a3.56,3.56 0 0 1 -2,2.05a3.91,3.91 0 0 1 -1.51,0.3m0,-1.47a1.82,1.82 0 0 0 1.08,-0.32a2,2 0 0 0 0.75,-0.86a3,3 0 0 0 0,-2.5a2.22,2.22 0 0 0 -0.75,-0.86a2,2 0 0 0 -2.16,0a2.08,2.08 0 0 0 -0.75,0.86a3,3 0 0 0 0,2.5a2,2 0 0 0 0.75,0.86a2,2 0 0 0 1.08,0.32" class="b"/>
        <path id="svg_59" d="m57.5,20l0,-10.11l1.5,0l0,1.18a3,3 0 0 1 1,-1a2.82,2.82 0 0 1 1.45,-0.37a3.07,3.07 0 0 1 1.36,0.3a3.2,3.2 0 0 1 1.09,0.81a3.58,3.58 0 0 1 0.8,1.19a4.62,4.62 0 0 1 0.3,1.53a4.24,4.24 0 0 1 -0.27,1.58a3.91,3.91 0 0 1 -0.73,1.26a3.28,3.28 0 0 1 -2.5,1.12a2.81,2.81 0 0 1 -1.34,-0.31a2.73,2.73 0 0 1 -1,-0.87l0,3.76l-1.66,-0.07zm3.69,-4a2,2 0 0 0 1.09,-0.32a2.06,2.06 0 0 0 0.74,-0.86a2.6,2.6 0 0 0 0.28,-1.25a2.6,2.6 0 0 0 -0.3,-1.26a2.12,2.12 0 0 0 -0.74,-0.86a2,2 0 0 0 -2.17,0a2.3,2.3 0 0 0 -0.75,0.86a3,3 0 0 0 0,2.5a2.22,2.22 0 0 0 0.75,0.86a2,2 0 0 0 1.08,0.32" class="b"/>
        <path id="svg_60" d="m69.86,17.46a3.81,3.81 0 0 1 -1.49,-0.3a3.72,3.72 0 0 1 -1.19,-0.8a3.64,3.64 0 0 1 -0.77,-1.24a4,4 0 0 1 -0.28,-1.56a3.86,3.86 0 0 1 0.28,-1.56a3.66,3.66 0 0 1 0.75,-1.22a3.12,3.12 0 0 1 1.15,-0.78a3.37,3.37 0 0 1 1.43,-0.3a3.44,3.44 0 0 1 1.41,0.27a3.48,3.48 0 0 1 1.12,0.78a3.76,3.76 0 0 1 0.72,1.2a4.5,4.5 0 0 1 0.23,1.54l0,0.51l-5.42,0a2.49,2.49 0 0 0 0.35,1.16a2.16,2.16 0 0 0 0.7,0.74a2.09,2.09 0 0 0 1,0.24a2,2 0 0 0 1.81,-1l1.41,0.56a2.75,2.75 0 0 1 -0.73,1a3.5,3.5 0 0 1 -1.12,0.65a3.76,3.76 0 0 1 -1.37,0.23m-0.11,-6.58a1.91,1.91 0 0 0 -0.88,0.22a2,2 0 0 0 -0.65,0.64a2.51,2.51 0 0 0 -0.37,0.95l3.71,0a2.49,2.49 0 0 0 -0.32,-0.95a1.81,1.81 0 0 0 -0.62,-0.64a1.9,1.9 0 0 0 -0.87,-0.22" class="b"/>
        <path id="svg_61" d="m74.62,17.24l0,-7.35l1.46,0l0,1a2.45,2.45 0 0 1 1,-0.9a2.71,2.71 0 0 1 1.34,-0.32a2.61,2.61 0 0 1 1.46,0.39a2.53,2.53 0 0 1 1,1.12a3.88,3.88 0 0 1 0.33,1.68l0,4.37l-1.69,0l0,-4.18a2.22,2.22 0 0 0 -0.41,-1.41a1.37,1.37 0 0 0 -1.13,-0.5a1.69,1.69 0 0 0 -1,0.24a1.76,1.76 0 0 0 -0.63,0.64a2.14,2.14 0 0 0 -0.22,1l0,4.27l-1.51,-0.05z" class="b"/>
        <path id="svg_62" d="m51.38,29a3.5,3.5 0 0 1 -1.32,-0.23a2.87,2.87 0 0 1 -1.06,-0.72a2.37,2.37 0 0 1 -0.6,-1.05l1.47,-0.38a1.37,1.37 0 0 0 0.59,0.75a1.67,1.67 0 0 0 0.95,0.27a1.42,1.42 0 0 0 0.89,-0.27a0.77,0.77 0 0 0 0.36,-0.66a0.75,0.75 0 0 0 -0.29,-0.59a2,2 0 0 0 -0.95,-0.36l-0.42,-0.07a3.56,3.56 0 0 1 -1.78,-0.77a1.78,1.78 0 0 1 -0.6,-1.41a2.19,2.19 0 0 1 0.35,-1.21a2.57,2.57 0 0 1 1,-0.81a3.53,3.53 0 0 1 2.69,0a3,3 0 0 1 1.59,1.69l-1.45,0.36a1.5,1.5 0 0 0 -0.53,-0.71a1.43,1.43 0 0 0 -0.83,-0.26a1.34,1.34 0 0 0 -0.82,0.24a0.77,0.77 0 0 0 -0.32,0.63a0.63,0.63 0 0 0 0.28,0.53a2.35,2.35 0 0 0 1,0.34l0.46,0.08a3.31,3.31 0 0 1 1.73,0.79a1.9,1.9 0 0 1 0.62,1.41a2.27,2.27 0 0 1 -0.8,1.74a2.67,2.67 0 0 1 -1,0.5a3.24,3.24 0 0 1 -1.16,0.18" class="b"/>
        <path id="svg_63" d="m59,29a3.61,3.61 0 0 1 -2.67,-1.1a3.85,3.85 0 0 1 -0.79,-1.24a4.33,4.33 0 0 1 -0.27,-1.55a4.24,4.24 0 0 1 0.27,-1.54a4.06,4.06 0 0 1 0.8,-1.24a3.53,3.53 0 0 1 1.21,-0.81a3.73,3.73 0 0 1 1.51,-0.29a3.66,3.66 0 0 1 1.49,0.29a3.51,3.51 0 0 1 1.18,0.81a3.92,3.92 0 0 1 0.79,1.23a4.43,4.43 0 0 1 0,3.1a3.85,3.85 0 0 1 -0.79,1.24a3.81,3.81 0 0 1 -1.21,0.82a3.94,3.94 0 0 1 -1.52,0.28m0,-1.46a2,2 0 0 0 1.09,-0.32a2.22,2.22 0 0 0 0.75,-0.86a2.85,2.85 0 0 0 0.28,-1.25a2.65,2.65 0 0 0 -0.28,-1.24a2.42,2.42 0 0 0 -0.74,-0.87a1.9,1.9 0 0 0 -1.1,-0.34a1.84,1.84 0 0 0 -1.07,0.31a2.2,2.2 0 0 0 -0.76,0.87a2.53,2.53 0 0 0 -0.27,1.24a2.71,2.71 0 0 0 0.27,1.25a2.11,2.11 0 0 0 0.76,0.86a1.92,1.92 0 0 0 1.07,0.32" class="b"/>
        <path id="svg_64" d="m67.62,29a3.6,3.6 0 0 1 -1.45,-0.28a4,4 0 0 1 -1.17,-0.84a3.64,3.64 0 0 1 -0.76,-1.21a4.24,4.24 0 0 1 -0.24,-1.54a4.08,4.08 0 0 1 0.28,-1.54a4.19,4.19 0 0 1 0.72,-1.26a3.68,3.68 0 0 1 1.16,-0.83a3.43,3.43 0 0 1 1.45,-0.3a3.22,3.22 0 0 1 1.4,0.28a3,3 0 0 1 1.09,0.77a2.87,2.87 0 0 1 0.65,1.17l-1.54,0.36a1.91,1.91 0 0 0 -0.66,-0.83a1.69,1.69 0 0 0 -1,-0.29a1.71,1.71 0 0 0 -1,0.32a2.28,2.28 0 0 0 -0.72,0.88a2.93,2.93 0 0 0 -0.3,1.27a2.84,2.84 0 0 0 0.25,1.22a2,2 0 0 0 0.7,0.85a1.71,1.71 0 0 0 1,0.31a2,2 0 0 0 1,-0.29a1.77,1.77 0 0 0 0.68,-0.82l1.53,0.35a2.86,2.86 0 0 1 -0.68,1.18a3.43,3.43 0 0 1 -1.01,0.77a3.66,3.66 0 0 1 -1.42,0.27" class="b"/>
        <rect id="svg_65" height="7.36" width="1.62" y="21.41" x="72.19" class="b"/>
        <path id="svg_66" d="m77.79,29a2.79,2.79 0 0 1 -1,-0.17a2.4,2.4 0 0 1 -0.82,-0.47a2.35,2.35 0 0 1 -0.55,-0.74a2.33,2.33 0 0 1 0.18,-2.18a2.44,2.44 0 0 1 1.05,-0.83a4,4 0 0 1 1.57,-0.29a5,5 0 0 1 1,0.09a4.08,4.08 0 0 1 0.86,0.26l0,-0.46a2,2 0 0 0 -0.18,-0.87a1.53,1.53 0 0 0 -0.52,-0.58a1.59,1.59 0 0 0 -0.82,-0.21a1.72,1.72 0 0 0 -1,0.27a1.61,1.61 0 0 0 -0.6,0.74l-1.48,-0.34a2.4,2.4 0 0 1 0.64,-1a3.16,3.16 0 0 1 1.06,-0.7a3.72,3.72 0 0 1 1.36,-0.25a3.54,3.54 0 0 1 1.25,0.22a2.7,2.7 0 0 1 1,0.64a2.77,2.77 0 0 1 0.63,1a3.33,3.33 0 0 1 0.22,1.25l0,4.49l-1.52,0l-0.06,-1a2.23,2.23 0 0 1 -0.89,0.86a2.65,2.65 0 0 1 -1.38,0.32m-1,-2.38a1,1 0 0 0 0.16,0.56a1.22,1.22 0 0 0 0.48,0.39a2,2 0 0 0 1.65,-0.09a1.66,1.66 0 0 0 0.65,-0.61a1.69,1.69 0 0 0 0.27,-0.92l0,-0.17a5,5 0 0 0 -0.75,-0.24a3.57,3.57 0 0 0 -0.8,-0.09a2.09,2.09 0 0 0 -1.17,0.3a0.94,0.94 0 0 0 -0.44,0.83" class="b"/>
        <rect id="svg_67" height="10.46" width="1.62" y="18.3" x="83.34" class="b"/>
        <text id="svg_68" x="83.56" y="12.08" class="c">®</text>
    </g>
</svg>