<svg xmlns="http://www.w3.org/2000/svg" xmlns:xlink="http://www.w3.org/1999/xlink" width="70" height="70" viewBox="0 0 70 70"><defs><path id="1g0ta" d="M164.531 2714.77c-1.121 0-1.847.069-1.924.076l-1.593.155-.165 1.49c-.04.37-.938 9.073 4.471 14.14 3.577 3.35 7.877 5.351 11.502 5.351 1.945 0 3.599-.586 4.783-1.694 3.47-3.252 1.755-9.952-3.905-15.254-3.96-3.71-9.95-4.264-13.169-4.264zm14.285 16.915c-.434.407-1.137.621-2.032.621-1.987 0-5.309-1.123-8.676-4.28-2.894-2.713-3.36-7.2-3.388-9.554 2.684.027 7.335.497 10.193 3.176 2.08 1.951 3.583 4.148 4.231 6.188.543 1.708.42 3.148-.328 3.85z"/><path id="1g0tb" d="M139.61 2704.848c3.957 3.71 9.943 4.264 13.16 4.264 1.085 0 1.79-.064 1.92-.076l1.591-.154.165-1.492c.042-.368.94-9.07-4.466-14.138-3.575-3.351-7.87-5.352-11.492-5.352-1.944 0-3.596.586-4.778 1.695-1.725 1.617-2.24 4.111-1.447 7.023.76 2.787 2.659 5.71 5.347 8.23zm-1.115-12.642c.433-.406 1.136-.62 2.03-.62 1.985 0 5.304 1.122 8.668 4.274 2.892 2.71 3.358 7.19 3.386 9.541-2.682-.027-7.329-.498-10.183-3.172-2.08-1.948-3.581-4.142-4.228-6.178-.543-1.708-.42-3.144.327-3.845z"/><path id="1g0tc" d="M156.446 2716.492l-.165-1.491-1.59-.154a21.023 21.023 0 0 0-1.926-.077c-3.218 0-9.21.554-13.17 4.264-5.66 5.302-7.374 12.002-3.903 15.254 1.184 1.108 2.837 1.694 4.782 1.694 3.625 0 7.925-2 11.502-5.351 5.41-5.068 4.511-13.772 4.47-14.14zm-3.87 1.98c-.028 2.354-.495 6.84-3.388 9.553-3.368 3.158-6.689 4.281-8.675 4.281-.897 0-1.6-.214-2.033-.62-1.39-1.304-.8-5.629 3.904-10.038 2.857-2.679 7.508-3.15 10.192-3.176z"/><path id="1g0td" d="M160.85 2707.39l.165 1.492 1.59.153c.13.013.835.077 1.921.077 3.216 0 9.203-.554 13.16-4.264 2.688-2.52 4.587-5.443 5.346-8.23.794-2.912.28-5.406-1.445-7.023-1.183-1.109-2.835-1.695-4.778-1.695-3.622 0-7.918 2-11.492 5.352-5.406 5.068-4.508 13.77-4.467 14.137zm3.867-1.989c.028-2.351.494-6.832 3.383-9.54 3.362-3.153 6.679-4.275 8.662-4.275.894 0 1.596.214 2.03.62.746.7.869 2.137.327 3.845-.647 2.036-2.148 4.23-4.225 6.178-2.853 2.674-7.497 3.145-10.177 3.172z"/><path id="1g0te" d="M183.883 2704.958l-.451-.088-.263.356a21.147 21.147 0 0 1-1.71 2.023l-.889.932 1.318.163c4.712.586 7.528 2.648 7.528 4.303 0 1.655-2.816 3.717-7.528 4.303l-1.317.165.89.93a21.297 21.297 0 0 1 1.708 2.024l.263.357.45-.09c5.72-1.112 9.415-4.13 9.415-7.689 0-3.56-3.696-6.577-9.414-7.69"/><path id="1g0tf" d="M133.866 2720.426l.264-.357a20.874 20.874 0 0 1 1.708-2.024l.89-.93-1.318-.165c-4.712-.586-7.528-2.648-7.528-4.303 0-1.655 2.816-3.717 7.528-4.303l1.317-.163-.89-.932a20.872 20.872 0 0 1-1.707-2.023l-.264-.356-.45.088c-5.72 1.111-9.416 4.13-9.416 7.69 0 3.558 3.696 6.576 9.415 7.689l.451.089"/><path id="1g0tg" d="M165.244 2735.461l-1.016-.891-.179 1.318c-.639 4.712-2.888 7.528-4.695 7.528-1.805 0-4.054-2.816-4.693-7.528l-.179-1.316-1.015.889a22.905 22.905 0 0 1-2.208 1.708l-.389.263.096.45c1.213 5.72 4.506 9.415 8.388 9.415 3.884 0 7.177-3.695 8.39-9.415l.096-.45-.389-.263a22.843 22.843 0 0 1-2.207-1.708"/><path id="1g0th" d="M153.467 2689.838l1.015.888.179-1.316c.639-4.712 2.888-7.528 4.693-7.528 1.807 0 4.056 2.816 4.695 7.528l.179 1.317 1.016-.89a22.675 22.675 0 0 1 2.207-1.708l.389-.263-.096-.451c-1.213-5.72-4.506-9.415-8.39-9.415-3.882 0-7.176 3.696-8.388 9.415l-.096.451.389.263c.752.51 1.495 1.086 2.208 1.709"/></defs><g><g transform="translate(-124 -2678)"><g><use fill="#f47b4d" xlink:href="#1g0ta"/></g><g><use fill="#f47b4d" xlink:href="#1g0tb"/></g><g><use fill="#f47b4d" xlink:href="#1g0tc"/></g><g><use fill="#f47b4d" xlink:href="#1g0td"/></g><g><use fill="#f47b4d" xlink:href="#1g0te"/></g><g><use fill="#f47b4d" xlink:href="#1g0tf"/></g><g><use fill="#f47b4d" xlink:href="#1g0tg"/></g><g><use fill="#f47b4d" xlink:href="#1g0th"/></g></g></g></svg>