<?xml version="1.0" encoding="UTF-8"?>
<svg width="24px" height="24px" viewBox="0 0 24 24" version="1.1" xmlns="http://www.w3.org/2000/svg" xmlns:xlink="http://www.w3.org/1999/xlink">
    <!-- Generator: Sketch 47.1 (45422) - http://www.bohemiancoding.com/sketch -->
    <title>icon-information</title>
    <desc>Created with Sketch.</desc>
    <defs></defs>
    <g id="Icons" stroke-width="1" fill-rule="evenodd">
        <g id="icon-information" fill-rule="nonzero">
            <path d="M10.8,18 L13.2,18 L13.2,10.8 L10.8,10.8 L10.8,18 Z M12,0 C5.4,0 0,5.4 0,12 C0,18.6 5.4,24 12,24 C18.6,24 24,18.6 24,12 C24,5.4 18.6,0 12,0 Z M12,21.6 C6.72,21.6 2.4,17.28 2.4,12 C2.4,6.72 6.72,2.4 12,2.4 C17.28,2.4 21.6,6.72 21.6,12 C21.6,17.28 17.28,21.6 12,21.6 Z M10.8,8.4 L13.2,8.4 L13.2,6 L10.8,6 L10.8,8.4 Z" id="Shape"></path>
        </g>
    </g>
</svg>