<?xml version="1.0" encoding="UTF-8"?>
<svg width="24px" height="24px" viewBox="0 0 24 24" version="1.1" xmlns="http://www.w3.org/2000/svg" xmlns:xlink="http://www.w3.org/1999/xlink">
    <!-- Generator: Sketch 47.1 (45422) - http://www.bohemiancoding.com/sketch -->
    <title>icon-liked copy</title>
    <desc>Created with Sketch.</desc>
    <defs></defs>
    <g id="Icons" stroke-width="1" fill-rule="evenodd">
        <g id="icon-liked-copy">
            <g id="Group" transform="translate(1.000000, 2.000000)">
                <polygon id="Shape" fill-rule="nonzero" points="0 19 4 19 4 8 0 8"></polygon>
                <path d="M22,8.55 C22,7.505 21.15625,6.65 20.125,6.65 L14.209375,6.65 L15.1,2.3085 L15.128125,2.0045 C15.128125,1.615 14.96875,1.254 14.715625,0.9975 L13.721875,0 L7.553125,6.2605 C7.20625,6.6025 7,7.0775 7,7.6 L7,17.1 C7,18.145 7.84375,19 8.875,19 L17.3125,19 C18.090625,19 18.75625,18.525 19.0375,17.841 L21.86875,11.1435 C21.953125,10.925 22,10.697 22,10.45 L22,8.55 Z" id="Path"></path>
            </g>
        </g>
    </g>
</svg>