<?xml version="1.0" encoding="UTF-8"?>
<svg width="24px" height="24px" viewBox="0 0 24 24" version="1.1" xmlns="http://www.w3.org/2000/svg" xmlns:xlink="http://www.w3.org/1999/xlink">
    <!-- Generator: Sketch 47.1 (45422) - http://www.bohemiancoding.com/sketch -->
    <title>icon-comment_transparent</title>
    <desc>Created with Sketch.</desc>
    <defs></defs>
    <g id="Icons" stroke="none" stroke-width="1" fill="none" fill-rule="evenodd">
        <g id="icon-comment_transparent" fill-rule="nonzero" fill="#000000">
            <path d="M23.2182266,24 L18.0133333,18.7951067 L2.76398627,18.7951067 C1.24253082,18.7951067 0,17.5525758 0,16.0311204 L0,2.76398627 C0,1.24253082 1.24253082,0 2.76398627,0 L20.4534984,0 C21.9736628,-2.45491296e-16 23.2063413,1.24118452 23.2064287,2.76382431 L23.2182266,24 Z M22.1008343,2.76429338 C22.1008342,1.85016933 21.3613944,1.10559451 20.4534984,1.10559451 L2.76398627,1.10559451 C1.85313381,1.10559451 1.10559451,1.85313381 1.10559451,2.76398627 L1.10559451,16.0311204 C1.10559451,16.9419729 1.85313381,17.6895122 2.76398627,17.6895122 L18.4712855,17.6895122 L22.1111483,21.3293749 L22.1008343,2.76429338 Z" id="a"></path>
        </g>
    </g>
</svg>